<?xml version="1.0" encoding="UTF-8" standalone="no"?>
<svg
   version="1.1"
   width="37.445389"
   height="61.686081"
   id="svg20"
   sodipodi:docname="Investigacion_LupaBlanca.svg"
   inkscape:version="1.4 (86a8ad7, 2024-10-11)"
   xmlns:inkscape="http://www.inkscape.org/namespaces/inkscape"
   xmlns:sodipodi="http://sodipodi.sourceforge.net/DTD/sodipodi-0.dtd"
   xmlns="http://www.w3.org/2000/svg"
   xmlns:svg="http://www.w3.org/2000/svg">
  <defs
     id="defs20" />
  <sodipodi:namedview
     id="namedview20"
     pagecolor="#26348c"
     bordercolor="#000000"
     borderopacity="0.25"
     inkscape:showpageshadow="2"
     inkscape:pageopacity="0.0"
     inkscape:pagecheckerboard="0"
     inkscape:deskcolor="#d1d1d1"
     inkscape:zoom="8.1133775"
     inkscape:cx="22.801848"
     inkscape:cy="37.900369"
     inkscape:window-width="1920"
     inkscape:window-height="1009"
     inkscape:window-x="-8"
     inkscape:window-y="-8"
     inkscape:window-maximized="1"
     inkscape:current-layer="svg20" />
  <path
     d="m 18.268559,2.8707731 c 5.164956,-0.154947 9.507969,0.702324 13.440436,4.273538 3.519938,3.3484709 5.533995,7.9345279 5.734983,12.7866489 0.05898,4.99392 -1.733461,9.491975 -5.202189,13.087514 -2.738359,2.633402 -6.727347,4.82353 -10.580501,4.82353 0.129183,2.712881 0.129183,2.712881 0.260979,5.480567 0.688992,0.172247 1.377977,0.344494 2.087837,0.521959 0.355782,0.711561 0.30008,1.281533 0.307174,2.078086 0.0048,0.489914 0.0048,0.489914 0.01007,0.989724 0.0024,0.358071 0.0041,0.716144 0.0059,1.074215 0.0011,0.179941 0.0024,0.359882 0.0031,0.545271 0.0053,0.951892 0.0092,1.903779 0.01162,2.855684 0.0031,0.984144 0.01189,1.968134 0.02224,2.952224 0.0068,0.756069 0.009,1.5121 0.01,2.268197 0.0011,0.36284 0.0041,0.725679 0.0092,1.088495 0.0063,0.507253 0.0053,1.014574 0.0041,1.521866 0.0018,0.288772 0.0031,0.57754 0.0048,0.875066 -0.127296,0.714829 -0.127296,0.714829 -0.616105,1.199597 -0.68737,0.369216 -1.155052,0.395511 -1.933397,0.39298 -0.394115,-2.56e-4 -0.394115,-2.56e-4 -0.796195,-5.1e-4 -0.272833,-0.0041 -0.545673,-0.0084 -0.826776,-0.01271 -0.409254,0.0011 -0.409254,0.0011 -0.826772,0.0024 -2.344483,-0.0165 -2.344483,-0.0165 -3.218407,-0.60606 -0.274123,-0.822375 -0.295692,-1.405281 -0.298889,-2.268722 -0.0017,-0.304849 -0.0033,-0.609691 -0.0051,-0.923776 -2.92e-4,-0.329494 -5.82e-4,-0.658986 -8.88e-4,-0.998464 -0.0014,-0.507277 -0.0014,-0.507277 -0.0026,-1.024803 -0.0015,-0.715847 -0.002,-1.431689 -0.0019,-2.147537 2.6e-5,-0.916481 -0.0035,-1.832908 -0.008,-2.74938 -0.0035,-0.875117 -0.0034,-1.750226 -0.0037,-2.625351 -0.0019,-0.328968 -0.0037,-0.657928 -0.0058,-0.996863 8.27e-4,-0.305665 0.0016,-0.611337 0.0025,-0.926266 -3.71e-4,-0.268864 -7.69e-4,-0.537722 -0.0011,-0.81473 0.066,-0.720928 0.192574,-1.145863 0.586482,-1.748744 0.522008,-0.260943 0.522008,-0.260943 2.087884,-0.260943 0,-1.894711 0,-3.789419 0,-5.741545 -0.602862,0 -1.205724,0 -1.826854,0 C 13.284299,37.166323 10.450994,35.668963 7.829558,33.405435 7.652601,33.253374 7.475646,33.101312 7.293328,32.944644 5.446087,31.233971 3.665376,28.914802 3.392909,26.358993 c 1.39101,0.09935 2.208862,0.555396 3.131753,1.565875 0.380052,0.507458 0.754722,1.018965 1.125473,1.533254 2.432357,3.301057 6.002993,5.207595 10.020181,5.92097 3.752451,0.498546 7.649458,-0.303775 10.776613,-2.495616 3.557859,-2.744355 5.645782,-6.180146 6.427631,-10.579857 0.465274,-4.339252 -0.906306,-8.28475 -3.540549,-11.717565 -2.700936,-3.1553949 -5.79203,-4.7948009 -9.933528,-5.3663879 -0.273171,0.01271 -0.546341,0.02556 -0.827796,0.03874 -0.738395,-0.03877 -0.738395,-0.03877 -1.290939,-0.438392 -0.151389,-0.169555 -0.302777,-0.339111 -0.458752,-0.513803 -0.155425,-0.169555 -0.310851,-0.339111 -0.470987,-0.513803 -0.113707,-0.131876 -0.227418,-0.263753 -0.344573,-0.399625 0.08612,-0.172246 0.172245,-0.344492 0.260978,-0.521959 z"
     fill="#fefefe"
     id="path1"
     style="stroke-width:0.260979" />
  <path
     d="m 4.419323,13.034696 c 2.330941,0.167275 4.174113,0.881714 5.758876,2.640376 0.54118,0.65696 0.947155,1.299281 1.304897,2.071523 0.18604,-0.141631 0.372079,-0.283264 0.563756,-0.429189 2.089234,-1.560597 3.806828,-2.684451 6.482686,-2.702563 0.523472,0.07738 1.045961,0.162517 1.565878,0.260979 -0.306411,2.474161 -0.739424,4.921467 -1.190719,7.372667 -0.05792,0.317012 -0.115854,0.634024 -0.175537,0.960641 -0.05545,0.297963 -0.110891,0.595924 -0.168019,0.902915 -0.07497,0.403828 -0.07497,0.403828 -0.151451,0.815815 -0.141131,0.648117 -0.141131,0.648117 -0.402109,1.170074 -0.217664,-0.02792 -0.435326,-0.05584 -0.659585,-0.08461 -2.242186,-0.238855 -3.920224,-0.297195 -5.747662,1.124457 -0.579012,0.507873 -1.137324,1.026745 -1.683115,1.569954 C 9.528184,28.198471 9.151918,27.691454 8.807039,27.151035 7.53218,25.229233 5.833401,24.433724 3.621094,23.928552 3.287366,23.869352 2.953639,23.810128 2.609798,23.749128 2.726786,21.268066 2.970444,18.810202 3.262247,16.34384 c 0.03408,-0.293338 0.06817,-0.586673 0.103279,-0.888898 0.03319,-0.273866 0.06639,-0.547732 0.100609,-0.829896 0.02977,-0.247058 0.05955,-0.494115 0.09023,-0.748659 0.141158,-0.821269 0.141158,-0.821269 0.862965,-0.841684 z"
     fill="#fefefe"
     id="path2"
     style="stroke-width:0.260979" />
  <path
     d="m 14.107162,1.9991441 c 0.992527,0.492003 1.668859,1.170275 2.163275,2.161234 0.433685,1.360431 0.352749,2.675192 -0.154957,3.995227 -0.323842,0.508893 -0.662637,1.008408 -1.011296,1.500631 -0.604265,0.8555149 -0.604265,0.8555149 -0.750314,2.3488149 -1.377972,0 -2.755942,0 -4.175671,0 -0.05382,-0.296049 -0.107656,-0.592097 -0.163111,-0.897117 C 9.790018,10.162976 9.433218,9.5724831 8.84068,8.8080541 7.853188,7.4115251 7.818192,6.0957161 8.090365,4.4366501 c 0.516882,-1.157819 1.193469,-1.845552 2.334541,-2.428331 1.216777,-0.411763 2.46131,-0.401456 3.682256,-0.0092 z"
     fill="#fefefe"
     id="path3"
     style="stroke-width:0.260979" />
  <path
     d="m 1.043922,14.353865 c 0.602862,0 1.205726,0 1.826856,0 -0.249079,2.437793 -0.501737,4.874987 -0.799249,7.307421 -0.04071,0.333726 -0.08141,0.667454 -0.123359,1.011294 -0.121308,0.81556 -0.121308,0.81556 -0.382296,1.598498 0.339112,0.02152 0.678222,0.04306 1.027608,0.06525 2.024584,0.228838 4.005145,1.141702 5.496877,2.544548 0.755256,0.972002 1.196039,1.876744 1.043917,3.131752 C 8.988943,29.829617 8.84361,29.646607 8.693873,29.458048 8.494714,29.210443 8.295555,28.96284 8.090359,28.707732 7.896581,28.443982 7.702805,28.180228 7.503155,27.908483 5.802315,25.885158 2.971306,25.569827 0.497491,25.353741 0.333319,25.340891 0.169147,25.328181 0,25.315001 0.160968,21.640462 0.599849,18.003324 1.043917,14.353868 Z"
     fill="#fefefe"
     id="path4"
     style="stroke-width:0.260979" />
  <path
     d="m 20.356394,16.963658 c 0.516741,0.08612 1.033479,0.172246 1.565873,0.260979 0.03525,1.328365 -0.08795,2.569305 -0.333357,3.870853 -0.03413,0.187336 -0.06828,0.374675 -0.103437,0.567688 -0.07186,0.392486 -0.144494,0.784832 -0.21787,1.177038 -0.11243,0.601508 -0.222215,1.203452 -0.331643,1.805511 -0.07036,0.382491 -0.140868,0.764957 -0.211535,1.147392 -0.03289,0.179958 -0.06581,0.359918 -0.09971,0.54533 -0.238002,1.264746 -0.238002,1.264746 -0.529287,1.84732 -0.201852,-0.03768 -0.403704,-0.07536 -0.611673,-0.114172 -2.905954,-0.517893 -5.227589,-0.701477 -7.821223,0.913427 -0.231457,0.166864 -0.462913,0.333728 -0.701383,0.505649 -0.344272,0.181195 -0.690679,0.358924 -1.043918,0.521957 0.832953,-1.665902 1.611797,-2.521969 3.429433,-3.157238 1.146247,-0.268 2.169861,-0.294179 3.339721,-0.268116 0.203365,0.0024 0.406729,0.0048 0.616257,0.0071 0.495997,0.0061 0.991954,0.01545 1.487889,0.02548 0.03816,-0.264698 0.07633,-0.529396 0.115648,-0.802116 0.141787,-0.982092 0.284516,-1.964044 0.427532,-2.945957 0.06177,-0.424988 0.123278,-0.850015 0.184521,-1.275077 0.08808,-0.610985 0.177087,-1.22183 0.266265,-1.832654 0.04082,-0.285077 0.04082,-0.285077 0.08242,-0.575914 0.113543,-0.772377 0.241988,-1.482 0.489498,-2.224517 z"
     fill="#fefefe"
     id="path5"
     style="stroke-width:0.260979" />
  <path
     d="m 10.178199,12.26603 c 1.377972,0 2.755941,0 4.175671,0 0,0.344492 0,0.688986 0,1.043917 -1.377972,0 -2.755942,0 -4.175671,0 0,-0.344492 0,-0.688985 0,-1.043917 z"
     fill="#ffffff"
     id="path6"
     style="stroke-width:0.260979" />
  <path
     d="m 10.439179,13.570926 c 1.205724,0 2.411449,0 3.65371,0 0,0.172247 0,0.344494 0,0.521959 -0.258368,0 -0.516739,0 -0.782937,0 0,0.172245 0,0.344493 0,0.521958 -0.688986,0 -1.377972,0 -2.087836,0 0,-0.172246 0,-0.344492 0,-0.521958 -0.258369,0 -0.516738,0 -0.782937,0 0,-0.172246 0,-0.344492 0,-0.521959 z"
     fill="#fefefe"
     id="path7"
     style="stroke-width:0.260979" />
  <path
     d="m 17.224642,5.7415471 c 0.430617,0 0.861232,0 1.304896,0 0,0.258369 0,0.516738 0,0.782937 -0.430616,0 -0.861231,0 -1.304896,0 0,-0.258369 0,-0.516739 0,-0.782937 z"
     fill="#ffffff"
     id="path8"
     style="stroke-width:0.260979" />
  <path
     d="m 6.00253,5.7415471 c 0.430616,0 0.861231,0 1.304896,0 0,0.258369 0,0.516738 0,0.782937 -0.430615,0 -0.861231,0 -1.304896,0 0,-0.258369 0,-0.516739 0,-0.782937 z"
     fill="#ffffff"
     id="path9"
     style="stroke-width:0.260979" />
  <path
     d="m 15.658766,9.3952571 c 0.516739,0.25837 0.516739,0.25837 1.043918,0.521958 0,0.2583689 0,0.5167389 0,0.7829389 -0.344493,-0.172248 -0.688987,-0.344493 -1.043918,-0.521959 0,-0.2583689 0,-0.5167399 0,-0.7829379 z"
     fill="#fefefe"
     id="path10"
     style="stroke-width:0.260979" />
  <path
     d="m 8.351345,9.3952571 c 0.172245,0 0.344492,0 0.521958,0 -0.08155,0.505647 -0.08155,0.505647 -0.26098,1.0439169 -0.25837,0.08612 -0.516738,0.172246 -0.782938,0.26098 0.228357,-1.0112949 0.228357,-1.0112949 0.52196,-1.3048969 z"
     fill="#fefefe"
     id="path11"
     style="stroke-width:0.260979" />
  <path
     d="m 16.180725,1.5658771 c 0.172246,0 0.344492,0 0.521959,0 -0.08155,0.505647 -0.08155,0.505647 -0.26098,1.043918 -0.25837,0.08612 -0.516739,0.172245 -0.782938,0.260978 0.228358,-1.011294 0.228358,-1.011294 0.521959,-1.304896 z"
     fill="#fefefe"
     id="path12"
     style="stroke-width:0.260979" />
  <path
     d="m 7.829385,1.5658771 c 0.516739,0.25837 0.516739,0.25837 1.043918,0.521958 0,0.25837 0,0.516739 0,0.782938 -0.344493,-0.172246 -0.688986,-0.344494 -1.043918,-0.521959 0,-0.25837 0,-0.516739 0,-0.782937 z"
     fill="#fefefe"
     id="path13"
     style="stroke-width:0.260979" />
  <path
     d="m 9.917219,0.2609794 c 0.172248,0.08612 0.344493,0.1722463 0.52196,0.2609783 0.163112,0.5382712 0.163112,0.5382712 0.260979,1.0439194 -0.258369,0 -0.516739,0 -0.782939,0 -0.1468,-0.5056482 -0.1468,-0.5056482 -0.260978,-1.0439194 0.08612,-0.08612 0.172245,-0.1722452 0.260978,-0.2609783 z"
     fill="#fefefe"
     id="path14"
     style="stroke-width:0.260979" />
  <path
     d="m 16.963662,3.6537111 c 0.344494,0 0.688986,0 1.043919,0 0,0.172246 0,0.344493 0,0.521958 -0.430617,0.08612 -0.861233,0.172248 -1.304897,0.260981 0.08612,-0.258369 0.172246,-0.516739 0.260978,-0.782939 z"
     fill="#fefefe"
     id="path15"
     style="stroke-width:0.260979" />
  <path
     d="m 6.524489,3.6537111 c 0.645924,0.129182 0.645924,0.129182 1.304896,0.26098 0,0.172246 0,0.344494 0,0.521959 -0.430616,-0.08612 -0.861233,-0.172247 -1.304896,-0.260981 0,-0.172245 0,-0.344491 0,-0.521958 z"
     fill="#fefefe"
     id="path16"
     style="stroke-width:0.260979" />
  <path
     d="m 16.702684,7.8293811 c 0.645922,0.129183 0.645922,0.129183 1.304897,0.260978 0,0.172247 0,0.344494 0,0.521959 -0.430617,-0.08612 -0.861233,-0.172246 -1.304897,-0.260978 0,-0.172246 0,-0.344494 0,-0.521959 z"
     fill="#fefefe"
     id="path17"
     style="stroke-width:0.260979" />
  <path
     d="m 7.829385,7.8293811 c 0,0.172246 0,0.344492 0,0.521959 -0.430616,0.08612 -0.861233,0.172245 -1.304896,0.260978 0,-0.172246 0,-0.344491 0,-0.521959 0.521958,-0.260978 0.521958,-0.260978 1.304896,-0.260978 z"
     fill="#fefefe"
     id="path18"
     style="stroke-width:0.260979" />
  <path
     d="m 14.35387,0.2609794 c 0.172245,0.08612 0.344492,0.1722463 0.521958,0.2609783 -0.172246,0.4306162 -0.344493,0.8612334 -0.521958,1.3048974 -0.293602,-0.9786732 -0.293602,-0.9786732 0,-1.5658757 z"
     fill="#fefefe"
     id="path19"
     style="stroke-width:0.260979" />
  <path
     d="m 12.005055,0 c 0.172246,0 0.344493,0 0.521959,0 0,0.4306163 0,0.8612329 0,1.3048959 -0.172248,0 -0.344494,0 -0.521959,0 0,-0.430615 0,-0.8612303 0,-1.3048959 z"
     fill="#fefefe"
     id="path20"
     style="stroke-width:0.260979" />
</svg>
