<?xml version="1.0" encoding="UTF-8"?>
<svg version="1.1" xmlns="http://www.w3.org/2000/svg" width="1076" height="274">
<path d="M0 0 C20.75069543 -0.58605521 37.13963035 2.45684749 53 17 C66.20548781 29.59637859 73.07291615 46.14882992 74.203125 64.25390625 C74.44587489 81.38800266 69.99307402 97.44792599 58.5625 110.5 C57.06225283 112.02058951 55.54212976 113.52190331 54 115 C53.33742188 115.69351563 52.67484375 116.38703125 51.9921875 117.1015625 C42.56848502 126.38193871 27.3527126 134 14 134 C14.495 144.395 14.495 144.395 15 155 C17.64 155.66 20.28 156.32 23 157 C24.36215069 159.72430138 24.15739948 161.91290718 24.19287109 164.96264648 C24.20893402 166.21411972 24.22499695 167.46559296 24.24154663 168.75498962 C24.25303112 170.12701745 24.26364016 171.49905284 24.2734375 172.87109375 C24.27876118 173.56056658 24.28408485 174.25003941 24.28956985 174.96040535 C24.31628724 178.60778822 24.33566902 182.25513698 24.35009766 185.90258789 C24.36676865 189.67368856 24.41156884 193.44391916 24.4624691 197.21469021 C24.49608115 200.11173027 24.50766807 203.0085619 24.51332474 205.90577888 C24.52005109 207.29611954 24.53530936 208.68644583 24.55921555 210.07659721 C24.59073902 212.02014569 24.58791167 213.96415989 24.58349609 215.90795898 C24.59158295 217.01445297 24.5996698 218.12094696 24.60800171 219.26097107 C24 222 24 222 21.6212616 223.85748291 C18.8004937 225.08695788 16.90227175 225.37377387 13.83984375 225.36328125 C12.88142578 225.36263672 11.92300781 225.36199219 10.93554688 225.36132812 C9.94619141 225.34521484 8.95683594 225.32910156 7.9375 225.3125 C6.94427734 225.31572266 5.95105469 225.31894531 4.92773438 225.32226562 C-3.42760097 225.26037425 -3.42760097 225.26037425 -7 223 C-8.34032435 220.31935129 -8.1419272 218.23847226 -8.16113281 215.23681641 C-8.17074036 214.02861237 -8.1803479 212.82040833 -8.19024658 211.57559204 C-8.19449646 210.26416229 -8.19874634 208.95273254 -8.203125 207.6015625 C-8.20887684 206.24636838 -8.21463457 204.89117429 -8.22039795 203.53598022 C-8.23090733 200.69292827 -8.23675034 197.84990459 -8.24023438 195.00683594 C-8.24571786 191.36610621 -8.26974251 187.72575071 -8.29820633 184.08513832 C-8.31684278 181.28499261 -8.32203884 178.48493684 -8.32357025 175.68473434 C-8.3280653 173.6905459 -8.34670739 171.69640561 -8.36553955 169.70230103 C-8.36253845 168.48779266 -8.35953735 167.2732843 -8.35644531 166.02197266 C-8.36191376 164.41885727 -8.36191376 164.41885727 -8.36749268 162.78335571 C-7.93852101 159.53436382 -7.42394067 158.20598165 -5 156 C-3.02 155.67 -1.04 155.34 1 155 C1.33 148.07 1.66 141.14 2 134 C-0.31 134 -2.62 134 -5 134 C-23.03784635 129.93539703 -39.08908293 120.35669346 -49.75390625 104.9765625 C-56 95.06896552 -56 95.06896552 -56 90 C-50.6935232 90.37903406 -47.51956774 92.13187604 -44 96 C-42.73000633 97.75654968 -41.48187113 99.52900786 -40.25 101.3125 C-31.80359608 113.21425097 -18.32295315 121.2047798 -4 124 C12.56189389 126.43335343 26.99707863 123.41013072 40.87109375 114.06640625 C53.75651509 104.32638596 62.20516841 90.07226588 64.4375 74.0625 C66.26369122 57.85313462 61.14469019 42.92575149 51.4375 30.0078125 C41.75742333 18.0628461 30.17205774 11.29327515 15 9.4375 C13.79839233 9.33816162 13.79839233 9.33816162 12.57250977 9.23681641 C8.21885959 8.78557084 5.64295132 8.12894226 2.4375 5.03515625 C0 2 0 2 0 0 Z " fill="#27348A" transform="translate(92,30)"/>
<path d="M0 0 C14 0 14 0 17.03881836 2.39575195 C17.63315674 3.49878662 18.22749512 4.60182129 18.83984375 5.73828125 C19.18076553 6.3336821 19.52168732 6.92908295 19.87294006 7.54252625 C20.94640991 9.44215154 21.94136503 11.37140719 22.9375 13.3125 C23.62850315 14.57109551 24.32444143 15.82699463 25.02539062 17.08007812 C26.3922927 19.53297681 27.73122848 21.99827078 29.05419922 24.47509766 C31.3828128 28.77530895 34.04020243 32.84774946 36.75219727 36.91479492 C38 39 38 39 38 41 C38.66 41 39.32 41 40 41 C40.25217285 40.31083496 40.5043457 39.62166992 40.76416016 38.91162109 C42.17877085 35.57881842 43.92650148 32.51840523 45.7734375 29.4140625 C46.13845367 28.79405365 46.50346985 28.1740448 46.87954712 27.5352478 C48.04142841 25.56321445 49.2080543 23.59403989 50.375 21.625 C51.53374205 19.66248947 52.69150116 17.69940212 53.84902954 15.73617554 C54.56714885 14.51900913 55.28614214 13.30235774 56.00619507 12.08633423 C58.37666264 8.07911695 60.69782647 4.04665373 63 0 C67.95 0 72.9 0 78 0 C78 22.77 78 45.54 78 69 C72.72 69 67.44 69 62 69 C61.67 56.79 61.34 44.58 61 32 C55.44863636 41.49791955 55.44863636 41.49791955 49.90063477 50.99780273 C49.20601417 52.18480462 48.51127924 53.3717396 47.81640625 54.55859375 C47.45446167 55.17963989 47.09251709 55.80068604 46.71960449 56.44055176 C43.54842003 61.85100342 43.54842003 61.85100342 41.19287109 62.4909668 C38.47449078 62.81174609 36.63503965 62.79283911 34 62 C30.81625333 58.69439857 28.79139864 54.83408857 26.625 50.8125 C25.72201172 49.22985352 25.72201172 49.22985352 24.80078125 47.61523438 C23.67958844 45.64506741 22.57203607 43.6670285 21.48291016 41.67895508 C20.04750309 39.08581683 18.52491885 36.54153141 17 34 C16.67 45.55 16.34 57.1 16 69 C10.72 69 5.44 69 0 69 C0 46.23 0 23.46 0 0 Z " fill="#27348B" transform="translate(685,58)"/>
<path d="M0 0 C14 0 14 0 17.38671875 2.3515625 C18.58227539 3.91040039 18.58227539 3.91040039 19.6875 5.625 C20.1198999 6.20822021 20.5522998 6.79144043 20.99780273 7.39233398 C21.90580189 8.61997504 22.79614555 9.86085868 23.66894531 11.11376953 C25.41970915 13.59476759 27.2973539 15.96088175 29.1887207 18.33544922 C30.47527029 19.95283891 31.74041357 21.58719133 33.00390625 23.22265625 C37.23805836 28.56088975 41.63805668 33.76566801 46 39 C46.33 26.13 46.66 13.26 47 0 C52.28 0 57.56 0 63 0 C63 22.77 63 45.54 63 69 C49 69 49 69 44.1875 64.6875 C42.76063794 62.81490838 41.36522161 60.91799496 40 59 C38.51032905 57.17900118 37.01024323 55.36647384 35.5 53.5625 C33.99864567 51.70942979 32.49866596 49.8552451 31 48 C29.41806694 46.06135654 27.83475383 44.12383829 26.25 42.1875 C25.55390625 41.33542969 24.8578125 40.48335937 24.140625 39.60546875 C21.77441138 36.72542408 19.38623307 33.86347969 17 31 C16.67 43.54 16.34 56.08 16 69 C10.72 69 5.44 69 0 69 C0 46.23 0 23.46 0 0 Z " fill="#27348B" transform="translate(844,58)"/>
<path d="M0 0 C5.73375 -0.04125 11.4675 -0.0825 17.375 -0.125 C19.16341309 -0.14320801 20.95182617 -0.16141602 22.79443359 -0.18017578 C36.4649026 -0.26348253 49.16784309 0.6107987 60.17578125 9.8203125 C67.86469802 17.9537705 69.60385945 26.59103121 69.47070312 37.45214844 C69.07595276 47.45109118 65.30806428 54.18411148 58 61 C49.92594154 67.34390307 41.26337954 69.47788233 31.15234375 69.29296875 C30.35542114 69.28994751 29.55849854 69.28692627 28.73742676 69.28381348 C25.80398318 69.26829853 22.87072645 69.22641682 19.9375 69.1875 C13.358125 69.125625 6.77875 69.06375 0 69 C0 46.23 0 23.46 0 0 Z M16 14 C16 27.53 16 41.06 16 55 C19.3 55.0825 22.6 55.165 26 55.25 C27.53527344 55.30462402 27.53527344 55.30462402 29.1015625 55.36035156 C36.35913244 55.44741993 41.5651716 54.03073094 47.05859375 49.18359375 C47.51363281 48.60738281 47.96867187 48.03117187 48.4375 47.4375 C48.91058594 46.85871094 49.38367188 46.27992187 49.87109375 45.68359375 C53.1489342 40.79518809 52.48545157 34.61838801 52 29 C50.44017643 22.64477287 46.68939857 19.558277 41.31640625 16.12890625 C33.48075927 12.31018454 24.42493291 14 16 14 Z " fill="#27348B" transform="translate(194,58)"/>
<path d="M0 0 C8.32212939 5.90143396 14.28718943 13.54817166 16.1875 23.6875 C17.38695562 34.36775908 15.73542242 43.94147724 9.265625 52.68359375 C3.27101795 59.8146192 -4.25060697 64.80059856 -13.70605469 65.91943359 C-27.15129032 66.85218702 -38.70354908 65.59600077 -49.375 56.703125 C-57.08805744 48.79499024 -59.81373139 39.66539999 -59.74414062 28.82788086 C-59.48415899 19.02141855 -56.43315238 11.67376477 -49.58203125 4.58203125 C-35.9595412 -7.41930989 -15.69073047 -8.92571061 0 0 Z M-38.7578125 17.14453125 C-42.83735585 23.42075179 -43.14416165 29.31654568 -42.3828125 36.64453125 C-40.66936845 42.58317255 -37.42297196 46.21722282 -32.3828125 49.64453125 C-26.23979973 52.51127054 -20.06481688 52.50822758 -13.6953125 50.45703125 C-7.80227427 47.23253863 -3.76499353 44.03880665 -1.3828125 37.64453125 C-0.10875038 31.66623978 -0.02717598 26.37391838 -2.3828125 20.64453125 C-5.67789595 15.66722099 -9.56469051 11.36841925 -15.3828125 9.64453125 C-25.45030778 8.48492446 -31.77146178 9.79047786 -38.7578125 17.14453125 Z " fill="#27348B" transform="translate(1037.3828125,62.35546875)"/>
<path d="M0 0 C5.5275 -0.061875 11.055 -0.12375 16.75 -0.1875 C18.46799805 -0.21481201 20.18599609 -0.24212402 21.95605469 -0.27026367 C33.19527593 -0.37520311 44.34295837 -0.16906078 53.37890625 7.3828125 C58.56238835 12.55380428 60.1562773 17.47087017 60.25 24.75 C60.16764036 33.64484107 58.02994116 38.52884364 52 45 C50.6819783 46.02009636 49.35135898 47.0244967 48 48 C48.31751221 48.45850342 48.63502441 48.91700684 48.9621582 49.3894043 C50.41386746 51.48767091 51.86320008 53.58756859 53.3125 55.6875 C54.06176758 56.7693457 54.06176758 56.7693457 54.82617188 57.87304688 C57.33970974 61.51850908 59.78263945 65.16313379 62 69 C45.18404693 70.67820499 45.18404693 70.67820499 40.1328125 66.796875 C38.13033341 63.94509543 36.50511535 61.14092699 35 58 C33.07910576 54.03443577 33.07910576 54.03443577 30 51 C25.56434561 50.10527754 21.56341667 50.04609512 17 50 C17 56.27 17 62.54 17 69 C11.39 69 5.78 69 0 69 C0 46.23 0 23.46 0 0 Z M17 14 C17 21.59 17 29.18 17 37 C19.495625 37.061875 21.99125 37.12375 24.5625 37.1875 C25.33408447 37.21481201 26.10566895 37.24212402 26.90063477 37.27026367 C32.00452501 37.33075326 35.4699469 36.37942183 40 34 C43.02924057 30.57988968 43.54014187 27.36522571 43.34765625 22.9296875 C42.76835839 19.71425894 41.39909181 18.14655583 39 16 C34.10757602 13.90324686 29.83454375 13.75349774 24.625 13.875 C22.10875 13.91625 19.5925 13.9575 17 14 Z " fill="#27348B" transform="translate(482,58)"/>
<path d="M0 0 C17.49 0 34.98 0 53 0 C53 4.62 53 9.24 53 14 C41.12 14 29.24 14 17 14 C17 18.62 17 23.24 17 28 C27.56 28 38.12 28 49 28 C49 32.29 49 36.58 49 41 C38.44 41 27.88 41 17 41 C17 45.95 17 50.9 17 56 C29.21 56 41.42 56 54 56 C54 60.29 54 64.58 54 69 C36.18 69 18.36 69 0 69 C0 46.23 0 23.46 0 0 Z " fill="#27348B" transform="translate(778,58)"/>
<path d="M0 0 C17.49 0 34.98 0 53 0 C53 4.62 53 9.24 53 14 C41.12 14 29.24 14 17 14 C17 18.62 17 23.24 17 28 C27.56 28 38.12 28 49 28 C49 32.29 49 36.58 49 41 C38.44 41 27.88 41 17 41 C17 45.95 17 50.9 17 56 C29.21 56 41.42 56 54 56 C54 60.29 54 64.58 54 69 C36.18 69 18.36 69 0 69 C0 46.23 0 23.46 0 0 Z " fill="#27348B" transform="translate(274,58)"/>
<path d="M0 0 C8.58443671 -0.26527926 15.75306988 1.77539744 22.4375 7.3125 C25.82890395 10.52980724 27.95071375 13.81604058 30 18 C30.64066406 17.45730469 31.28132813 16.91460937 31.94140625 16.35546875 C40.62929254 9.16951213 47.50125832 5.58186394 59 6 C60.33960928 6.30714146 61.67506763 6.63470136 63 7 C62.34677661 10.87437064 61.68939462 14.74801314 61.02856445 18.62109375 C60.69731082 20.56735704 60.36911639 22.51414022 60.04101562 24.4609375 C58.57637368 33.03018588 56.89005006 41.51489914 55 50 C54.08734375 49.84144531 53.1746875 49.68289062 52.234375 49.51953125 C44.20427067 48.2296715 38.14041237 48.98424134 31 53 C28.42272326 55.14543358 26.16771886 57.44467578 24 60 C21.38444378 58.69222189 21.16422304 57.43742349 19.9375 54.8125 C16.41579668 48.37310644 11.69659831 45.17295908 4.75 42.96875 C1.84324483 42.2283501 -1.05518875 41.56803466 -4 41 C-3.45730103 27.22667436 -1.83312437 13.65617301 0 0 Z " fill="#0095DB" transform="translate(37,69)"/>
<path d="M0 0 C5.5275 -0.061875 11.055 -0.12375 16.75 -0.1875 C18.46799805 -0.21481201 20.18599609 -0.24212402 21.95605469 -0.27026367 C33.19077916 -0.37516112 44.35335557 -0.17522912 53.37890625 7.38671875 C58.87215918 12.85349817 60.14258712 17.7023907 60.3125 25.1875 C60.23423724 32.16853798 59.09447293 37.43548055 54.45703125 42.77734375 C44.09096355 52.47922405 30.19584247 51.10996535 17 51 C17 56.94 17 62.88 17 69 C11.39 69 5.78 69 0 69 C0 46.23 0 23.46 0 0 Z M17 14 C17 21.59 17 29.18 17 37 C28.91985668 37.64684307 28.91985668 37.64684307 40 34 C42.58612706 31.09060706 42.95987691 29.37448216 43.375 25.5 C42.96340947 21.65848838 42.51419926 19.91971527 40 17 C34.6627472 14.18985553 30.52688767 13.60137674 24.5625 13.8125 C22.066875 13.874375 19.57125 13.93625 17 14 Z " fill="#27348B" transform="translate(340,58)"/>
<path d="M0 0 C5.61 0 11.22 0 17 0 C21.65157603 9.18043461 26.0748444 18.40329606 30.25 27.8125 C30.80604744 29.06030438 31.36228473 30.30802418 31.91870117 31.55566406 C33.33611149 34.73691356 34.74895133 37.92016744 36.15985107 41.10430908 C36.99396881 42.98639137 37.8291503 44.86799851 38.66455078 46.74951172 C40.21684343 50.24836718 41.76567913 53.74872247 43.3125 57.25 C43.78655273 58.32096924 44.26060547 59.39193848 44.74902344 60.49536133 C45.17860352 61.47142334 45.60818359 62.44748535 46.05078125 63.453125 C46.42887939 64.31067383 46.80697754 65.16822266 47.1965332 66.05175781 C48 68 48 68 48 69 C42.06 69 36.12 69 30 69 C28.02 64.71 26.04 60.42 24 56 C13.77 55.67 3.54 55.34 -7 55 C-7.99 57.97 -8.98 60.94 -10 64 C-10.66 65.65 -11.32 67.3 -12 69 C-17.94 69 -23.88 69 -30 69 C-27.75034846 62.25104538 -27.75034846 62.25104538 -26.27929688 59.01196289 C-25.95103912 58.28509781 -25.62278137 57.55823273 -25.28457642 56.80934143 C-24.75699234 55.65268227 -24.75699234 55.65268227 -24.21875 54.47265625 C-23.84857758 53.65437851 -23.47840515 52.83610077 -23.09701538 51.99302673 C-22.30756161 50.24830439 -21.51686879 48.50414225 -20.72503662 46.76049805 C-18.67739623 42.25081264 -16.63922918 37.73685515 -14.6015625 33.22265625 C-14.20180206 32.33736237 -13.80204163 31.45206848 -13.39016724 30.53994751 C-8.82027677 20.40601455 -4.38170993 10.21665029 0 0 Z M8 19 C6.49414477 22.45581315 4.99631711 25.91504753 3.5 29.375 C3.07074219 30.35984375 2.64148438 31.3446875 2.19921875 32.359375 C1.59013672 33.77089844 1.59013672 33.77089844 0.96875 35.2109375 C0.40317383 36.51490479 0.40317383 36.51490479 -0.17382812 37.84521484 C-1.11933353 39.9266173 -1.11933353 39.9266173 -1 42 C5.6 42 12.2 42 19 42 C17.54983603 38.35071906 16.09036023 34.70567322 14.625 31.0625 C14.00625 29.50112305 14.00625 29.50112305 13.375 27.90820312 C12.97539062 26.91884766 12.57578125 25.92949219 12.1640625 24.91015625 C11.79748535 23.99371338 11.4309082 23.07727051 11.05322266 22.13305664 C10.18962982 19.84315047 10.18962982 19.84315047 8 19 Z " fill="#27348B" transform="translate(428,58)"/>
<path d="M0 0 C5.61 0 11.22 0 17 0 C22.9573116 12.34014547 28.62731289 24.78989685 34.1875 37.3125 C34.52861816 38.08009644 34.86973633 38.84769287 35.22119141 39.6385498 C39.55422377 49.39515329 43.815132 59.17890231 48 69 C42.06 69 36.12 69 30 69 C25.125 59.375 25.125 59.375 24 56 C13.77 56 3.54 56 -7 56 C-8.65 59.96 -10.3 63.92 -12 68 C-13 69 -13 69 -16.81640625 69.09765625 C-18.39846682 69.09098089 -19.98051159 69.07901875 -21.5625 69.0625 C-22.36880859 69.05798828 -23.17511719 69.05347656 -24.00585938 69.04882812 C-26.00393756 69.03700518 -28.00197783 69.01906914 -30 69 C-28.02007954 62.64096135 -25.61236682 56.61443968 -22.83203125 50.56640625 C-22.43352463 49.68959702 -22.03501801 48.81278778 -21.62443542 47.90940857 C-20.35801606 45.12515754 -19.08551027 42.34374281 -17.8125 39.5625 C-16.56317418 36.82272484 -15.31514418 34.08236249 -14.06735229 31.34188843 C-13.24781264 29.54203528 -12.42776956 27.74241128 -11.60720825 25.94302368 C-7.67942583 17.32105504 -3.83440027 8.66388711 0 0 Z M8 18 C6.49115787 21.43368594 4.99446599 24.87253549 3.5 28.3125 C2.85611328 29.77719727 2.85611328 29.77719727 2.19921875 31.27148438 C1.59013672 32.67817383 1.59013672 32.67817383 0.96875 34.11328125 C0.59169922 34.97735596 0.21464844 35.84143066 -0.17382812 36.73168945 C-1.17111511 39.06746104 -1.17111511 39.06746104 -1 42 C5.27 42 11.54 42 18 42 C15.7183577 33.63397824 12.51779922 25.90081767 9 18 C8.67 18 8.34 18 8 18 Z " fill="#27348B" transform="translate(631,58)"/>
<path d="M0 0 C13 0 13 0 16.359375 2.23828125 C17.14828125 3.25277344 17.9371875 4.26726562 18.75 5.3125 C19.19061768 5.85503418 19.63123535 6.39756836 20.08520508 6.95654297 C20.98631404 8.07291234 21.87113846 9.20263257 22.73876953 10.34521484 C24.63988019 12.83954857 26.67494564 15.22025556 28.6875 17.625 C30.13055754 19.41219351 31.56706201 21.20468265 33 23 C35.64 26.3 38.28 29.6 41 33 C41.33 22.11 41.66 11.22 42 0 C46.95 0 51.9 0 57 0 C57 19.47 57 38.94 57 59 C52.38 59 47.76 59 43 59 C39.8029173 55.8029173 37.61260578 53.35676966 35.19970703 49.71191406 C32.97184848 46.53288595 30.36773886 43.66701475 27.8125 40.75 C26.83889038 39.62061284 25.86621144 38.4904226 24.89453125 37.359375 C23.93933594 36.25078125 22.98414063 35.1421875 22 34 C20.02 31.69 18.04 29.38 16 27 C15.67 37.56 15.34 48.12 15 59 C10.05 59 5.1 59 0 59 C0 39.53 0 20.06 0 0 Z " fill="#FF8000" transform="translate(375,156)"/>
<path d="M0 0 C13 0 13 0 16.140625 2.01953125 C17.18476562 3.40205078 17.18476562 3.40205078 18.25 4.8125 C19.04792969 5.81925781 19.84585938 6.82601562 20.66796875 7.86328125 C21.43753906 8.89839844 22.20710937 9.93351563 23 11 C24.51454122 12.83853475 26.03523065 14.67202476 27.5625 16.5 C29.7590625 19.2225 29.7590625 19.2225 32 22 C36.455 27.445 36.455 27.445 41 33 C41.33 22.11 41.66 11.22 42 0 C46.62 0 51.24 0 56 0 C56 19.47 56 38.94 56 59 C43 59 43 59 39.421875 56.32421875 C38.49072007 55.14282627 37.60043528 53.9282649 36.75 52.6875 C36.2638623 52.05320068 35.77772461 51.41890137 35.27685547 50.76538086 C34.29138248 49.47702128 33.32146422 48.1766016 32.36816406 46.86425781 C30.3916943 44.17112378 28.26288228 41.62938876 26.125 39.0625 C25.46757813 38.24910156 24.81015625 37.43570313 24.1328125 36.59765625 C21.47185562 33.35674723 18.72899589 30.18382854 16 27 C15.67 37.56 15.34 48.12 15 59 C10.05 59 5.1 59 0 59 C0 39.53 0 20.06 0 0 Z " fill="#FF8000" transform="translate(997,156)"/>
<path d="M0 0 C5.89875 -0.0825 11.7975 -0.165 17.875 -0.25 C20.63593018 -0.30462402 20.63593018 -0.30462402 23.45263672 -0.36035156 C35.72205805 -0.50242828 45.82802916 1.07261505 55 10 C61.55785761 18.45017473 61.58162088 26.60764193 61 37 C59.87039227 43.58074231 55.97283425 48.67418879 51 53 C43.47502822 57.67705939 37.3021606 59.15540258 28.515625 59.09765625 C27.7922998 59.09664917 27.06897461 59.09564209 26.32373047 59.09460449 C23.63247076 59.08938887 20.94123372 59.07542762 18.25 59.0625 C9.21625 59.0315625 9.21625 59.0315625 0 59 C0 39.53 0 20.06 0 0 Z M15 12 C15 23.55 15 35.1 15 47 C19.269375 47.0928125 19.269375 47.0928125 23.625 47.1875 C24.51010254 47.21481201 25.39520508 47.24212402 26.30712891 47.27026367 C32.76380829 47.33783864 36.77813067 45.91888715 41.75 41.625 C45.69895057 37.017891 46.40755459 33.14487 46.25 27.20703125 C45.59853639 21.4558291 42.30953269 17.60798085 38 14 C30.36615654 11.10402133 30.36615654 11.10402133 15 12 Z " fill="#FF8000" transform="translate(194,156)"/>
<path d="M0 0 C7.50668061 5.68875301 11.57917022 12.63373339 12.875 21.9375 C13.41513849 30.64723312 11.55962355 38.19547346 6 45 C-0.9360914 52.554006 -8.31779962 56.04386285 -18.51660156 56.52172852 C-29.3428394 56.70889018 -38.28716998 54.77090661 -46.5 47.25 C-52.56484494 40.51688732 -55.11093564 33.0273874 -55 24 C-54.23346765 14.97955678 -50.85221268 8.50157208 -44.375 2.25 C-32.0795294 -7.71868395 -13.34355576 -8.29192304 0 0 Z M-35.4375 13.5 C-39.69704244 18.79251049 -39.66013701 24.44447273 -39 31 C-37.36383759 35.8640263 -34.28708699 39.2440155 -30 42 C-24.68921775 44.59363784 -19.64894875 44.26963343 -14 43 C-8.70401273 40.25393253 -4.90945691 36.72837074 -3 31 C-2.30233795 23.817512 -2.60463796 18.82088486 -7 13 C-11.12462617 8.98391663 -15.17550926 7.30700986 -20.875 6.6875 C-26.94267691 7.29426769 -31.34158378 8.85403268 -35.4375 13.5 Z " fill="#FF8000" transform="translate(975,160)"/>
<path d="M0 0 C3.19216922 1.89591834 6.13308537 3.93312795 9.05859375 6.22265625 C7.67670922 9.43309507 6.13437472 11.2720199 3.43359375 13.47265625 C2.80195312 13.9934375 2.1703125 14.51421875 1.51953125 15.05078125 C1.03742187 15.4375 0.5553125 15.82421875 0.05859375 16.22265625 C-2.15177607 15.15446498 -4.08146069 14.11967505 -6.06640625 12.66015625 C-11.71854858 9.83408508 -17.6953592 9.5758166 -23.75390625 11.28515625 C-28.22674169 13.00304172 -30.30349421 15.2657882 -32.94140625 19.22265625 C-34.8318963 24.89412639 -34.69864982 31.03063539 -32.75390625 36.66015625 C-29.34675196 41.47716749 -25.66179314 43.8497634 -19.94140625 45.22265625 C-14.70598926 45.59661461 -12.12798368 44.95151539 -6.94140625 43.22265625 C-6.61140625 37.61265625 -6.28140625 32.00265625 -5.94140625 26.22265625 C-1.32140625 26.22265625 3.29859375 26.22265625 8.05859375 26.22265625 C8.05859375 34.47265625 8.05859375 42.72265625 8.05859375 51.22265625 C-3.88937719 58.05006822 -15.35160042 60.58038661 -29.046875 57.53125 C-31.52111388 56.614439 -33.67621142 55.57168694 -35.94140625 54.22265625 C-36.66714844 53.79855469 -37.39289062 53.37445313 -38.140625 52.9375 C-44.70458039 48.58175141 -48.14523572 42.60161481 -50.25390625 35.09765625 C-51.88439367 25.90763626 -50.69692005 16.77418798 -45.37890625 8.91015625 C-35.00249448 -3.69162064 -14.48595216 -7.00447254 0 0 Z " fill="#FF8000" transform="translate(747.94140625,157.77734375)"/>
<path d="M0 0 C15.18 0 30.36 0 46 0 C46 3.96 46 7.92 46 12 C35.77 12 25.54 12 15 12 C15 15.63 15 19.26 15 23 C24.24 23 33.48 23 43 23 C43 26.96 43 30.92 43 35 C33.76 35 24.52 35 15 35 C15 38.96 15 42.92 15 47 C25.56 47 36.12 47 47 47 C47 50.96 47 54.92 47 59 C31.49 59 15.98 59 0 59 C0 39.53 0 20.06 0 0 Z " fill="#FF8000" transform="translate(508,156)"/>
<path d="M0 0 C15.18 0 30.36 0 46 0 C46 3.96 46 7.92 46 12 C35.77 12 25.54 12 15 12 C15 15.63 15 19.26 15 23 C24.24 23 33.48 23 43 23 C43 26.96 43 30.92 43 35 C33.76 35 24.52 35 15 35 C15 38.96 15 42.92 15 47 C25.56 47 36.12 47 47 47 C47 50.96 47 54.92 47 59 C31.49 59 15.98 59 0 59 C0 39.53 0 20.06 0 0 Z " fill="#FF8000" transform="translate(265,156)"/>
<path d="M0 0 C5.28 0 10.56 0 16 0 C16.80836304 1.74518921 16.80836304 1.74518921 17.63305664 3.52563477 C19.66620888 7.91489391 21.69964281 12.30402252 23.7331543 16.69311523 C24.60692696 18.57914831 25.48062704 20.46521502 26.35424805 22.35131836 C27.20299588 24.18369822 28.05190248 26.01600455 28.90097046 27.84823608 C29.73843234 29.65604231 30.57520741 31.46416686 31.4112854 33.27261353 C33.31467199 37.38568369 35.22839289 41.49258395 37.18310547 45.58154297 C37.51289902 46.27497299 37.84269257 46.96840302 38.18247986 47.68284607 C39.05665599 49.51713371 39.937137 51.34841293 40.81811523 53.17944336 C42 56 42 56 42 59 C36.72 59 31.44 59 26 59 C22 49.25 22 49.25 22 47 C12.76 47 3.52 47 -6 47 C-6.99 49.97 -7.98 52.94 -9 56 C-9.66 56.99 -10.32 57.98 -11 59 C-13.62697064 59.22137393 -16.00893964 59.28162025 -18.625 59.1875 C-19.33140625 59.17396484 -20.0378125 59.16042969 -20.765625 59.14648438 C-22.51074128 59.1111104 -24.25546608 59.05730221 -26 59 C-24.01609569 52.57925301 -21.5550794 46.5433728 -18.69140625 40.46875 C-18.28341293 39.59279175 -17.87541962 38.7168335 -17.45506287 37.81433105 C-16.16211973 35.04072237 -14.86256303 32.27027746 -13.5625 29.5 C-12.26744865 26.72906878 -10.9737804 23.95749653 -9.6806488 21.18566895 C-8.87955516 19.46975131 -8.07712599 17.75445627 -7.27308655 16.03991699 C-4.78282211 10.72119612 -2.37045069 5.37324555 0 0 Z M7 16 C5.8265684 18.60130627 4.66107492 21.20568508 3.5 23.8125 C3.16613281 24.55048828 2.83226562 25.28847656 2.48828125 26.04882812 C2.01455078 27.11713867 2.01455078 27.11713867 1.53125 28.20703125 C1.23798828 28.8616333 0.94472656 29.51623535 0.64257812 30.19067383 C-0.16733424 32.15116068 -0.16733424 32.15116068 0 35 C5.28 35 10.56 35 16 35 C13.93991112 28.27760471 11.28217236 22.21407336 8 16 C7.67 16 7.34 16 7 16 Z " fill="#FF8000" transform="translate(786,156)"/>
<path d="M0 0 C0.78294434 -0.00128906 1.56588867 -0.00257813 2.37255859 -0.00390625 C9.17923653 0.11891263 15.06614296 1.63150201 21.3125 4.375 C20.654925 8.93333544 19.53299017 12.32019187 17.3125 16.375 C16.74144531 16.1584375 16.17039062 15.941875 15.58203125 15.71875 C7.51092685 12.94711478 -1.37567827 11.88546885 -9.6875 14.375 C-9.6875 16.355 -9.6875 18.335 -9.6875 20.375 C-4.70660063 22.26394277 0.26228583 24.10594003 5.39453125 25.54296875 C19.02336395 29.39620429 19.02336395 29.39620429 23.3125 35.375 C25.03487197 40.5421159 24.96811622 45.48099758 23.1875 50.625 C19.12502996 56.5832894 14.20874789 59.49583793 7.3125 61.375 C4.1737425 61.77211856 1.09796697 61.80446884 -2.0625 61.75 C-2.89668457 61.74202393 -3.73086914 61.73404785 -4.59033203 61.72583008 C-12.77006142 61.53677255 -19.87091238 60.14661133 -26.6875 55.375 C-26.02251617 50.98610675 -24.49992323 47.3938515 -22.6875 43.375 C-22.0275 43.643125 -21.3675 43.91125 -20.6875 44.1875 C-19.6975 44.579375 -18.7075 44.97125 -17.6875 45.375 C-16.57375 45.91125 -15.46 46.4475 -14.3125 47 C-8.23103062 49.28784645 -1.06663407 49.14685252 5.3125 48.375 C7.2936438 47.12221916 7.2936438 47.12221916 8.3125 45.375 C8.62509581 43.28438769 8.62509581 43.28438769 7.3125 41.375 C2.58210744 39.07823078 -1.99292123 37.70691967 -7.125 36.5 C-14.15645331 34.72655738 -19.73667728 32.60246235 -24.6875 27.1875 C-26.60153236 21.804284 -26.38951014 16.52232512 -24.625 11.125 C-18.33077102 2.19125565 -10.61598003 -0.01819752 0 0 Z " fill="#FF8000" transform="translate(587.6875,154.625)"/>
<path d="M0 0 C20.13 0 40.26 0 61 0 C61 4.62 61 9.24 61 14 C53.74 14 46.48 14 39 14 C39 32.15 39 50.3 39 69 C33.39 69 27.78 69 22 69 C22 50.85 22 32.7 22 14 C14.74 14 7.48 14 0 14 C0 9.38 0 4.76 0 0 Z " fill="#27348B" transform="translate(545,58)"/>
<path d="M0 0 C19.8 0 39.6 0 60 0 C60 4.62 60 9.24 60 14 C53.07 14 46.14 14 39 14 C39 32.15 39 50.3 39 69 C33.39 69 27.78 69 22 69 C22 50.85 22 32.7 22 14 C14.74 14 7.48 14 0 14 C0 9.38 0 4.76 0 0 Z " fill="#27348B" transform="translate(915,58)"/>
<path d="M0 0 C2.52608265 1.87625704 4.71816811 3.81737819 7 6 C4.4368935 9.29416436 1.96767641 12.30525796 -1.4375 14.75 C-4.97776235 15.09539145 -6.31468345 13.38006095 -8.984375 11.26171875 C-13.28790175 8.56784444 -18.3542351 8.4745345 -23.2421875 9.4453125 C-27.85155157 10.95857542 -30.95338317 13.14692578 -34 17 C-36.18694791 21.79045733 -37.08645286 26.78701442 -35.359375 31.89453125 C-34.61955876 33.6171426 -33.81232225 35.31036971 -33 37 C-32.67 37.99 -32.34 38.98 -32 40 C-29.75256244 41.15020525 -29.75256244 41.15020525 -27 42 C-26.113125 42.391875 -25.22625 42.78375 -24.3125 43.1875 C-19.70070759 44.31869437 -15.61698044 44.07529023 -11 43 C-7.69140528 41.04543223 -7.69140528 41.04543223 -5 39 C-0.41765954 39 0.05508122 39.5180758 3.25 42.5 C3.95640625 43.1496875 4.6628125 43.799375 5.390625 44.46875 C5.92171875 44.9740625 6.4528125 45.479375 7 46 C2.50760839 52.17703847 -2.52082418 55.35590415 -10 57 C-22.24112853 57.73350574 -32.33003073 57.74681014 -42.3125 49.8125 C-47.99808746 44.47219113 -51.59459757 37.90470481 -52.23828125 30.1171875 C-52.48085557 19.5205197 -50.42193477 11.60582781 -43.06640625 3.7578125 C-31.88458663 -5.75413236 -12.63379541 -7.77826956 0 0 Z " fill="#FF8000" transform="translate(881,159)"/>
<path d="M0 0 C5.28 0 10.56 0 16 0 C21.95010683 12.54696441 27.50690311 25.2470401 33 38 C36.00949987 34.43855705 37.7413402 30.41112809 39.57421875 26.171875 C39.90291458 25.42286926 40.23161041 24.67386353 40.57026672 23.90216064 C41.61423702 21.52021262 42.65095365 19.13518668 43.6875 16.75 C44.39600736 15.12999963 45.10498652 13.51020551 45.81445312 11.890625 C47.54933909 7.92980933 49.27437276 3.96490981 51 0 C56.28 0 61.56 0 67 0 C58.6619448 19.81178928 49.80964416 39.39486284 41 59 C35.72 59 30.44 59 25 59 C24.42032471 57.69442139 23.84064941 56.38884277 23.2434082 55.04370117 C21.07266787 50.15497719 18.90129321 45.26653515 16.72973633 40.37817383 C15.79369345 38.27082767 14.85781781 36.16340722 13.92211914 34.0559082 C12.5696238 31.00972802 11.21650776 27.96382418 9.86328125 24.91796875 C9.45161209 23.99042282 9.03994293 23.06287689 8.61579895 22.10722351 C8.21576157 21.20712051 7.81572418 20.30701752 7.40356445 19.37963867 C7.01407623 18.50141449 6.62458801 17.62319031 6.22329712 16.71835327 C5.35924601 14.79829958 4.47814885 12.8858734 3.58505249 10.97915649 C3.12667999 9.99772675 2.6683075 9.016297 2.19604492 8.00512695 C1.77586594 7.11751175 1.35568695 6.22989655 0.92277527 5.31538391 C0 3 0 3 0 0 Z " fill="#FF8000" transform="translate(437,156)"/>
<path d="M0 0 C17.49 0 34.98 0 53 0 C53 3.96 53 7.92 53 12 C46.73 12 40.46 12 34 12 C34 27.51 34 43.02 34 59 C29.05 59 24.1 59 19 59 C19 43.49 19 27.98 19 12 C12.73 12 6.46 12 0 12 C0 8.04 0 4.08 0 0 Z " fill="#FF8000" transform="translate(613,156)"/>
<path d="M0 0 C20.75069543 -0.58605521 37.13963035 2.45684749 53 17 C66.20548781 29.59637859 73.07291615 46.14882992 74.203125 64.25390625 C74.44087859 81.03534712 70.0797666 97.08599911 59 110 C55.13555254 108.5341751 53.98825638 106.526449 52 103 C52.45890625 102.32195312 52.9178125 101.64390625 53.390625 100.9453125 C62.48689784 87.1480247 67.07593978 72.68609162 63.8125 56.14453125 C59.48245666 39.38643082 50.55379769 25.50703606 35.921875 16 C28.2388464 11.71179799 21.2947881 9.95789785 12.57250977 9.23681641 C8.21885959 8.78557084 5.64295132 8.12894226 2.4375 5.03515625 C0 2 0 2 0 0 Z " fill="#FE7F00" transform="translate(92,30)"/>
<path d="M0 0 C4.11280911 1.66232006 6.37579042 4.1341609 8.9375 7.6875 C10.84383455 13.6307783 11.29786944 18.37784139 8.46484375 24.1015625 C7.23155807 26.14268829 5.95483476 28.15842884 4.62890625 30.140625 C2.5883516 33.3398811 2.5883516 33.3398811 2 39 C-3.28 39 -8.56 39 -14 39 C-14.20625 37.865625 -14.4125 36.73125 -14.625 35.5625 C-15.49691887 31.95390147 -16.88865492 29.4975082 -19.0625 26.5 C-22.1423226 22.09917507 -23.08573796 19.40149178 -23 14 C-21.77262167 7.77047602 -19.12308891 4.59706242 -14 1 C-9.7849344 -1.1075328 -4.57749978 -0.51511506 0 0 Z " fill="#FF8300" transform="translate(76,26)"/>
<path d="M0 0 C4.95 0 9.9 0 15 0 C15 19.47 15 38.94 15 59 C10.05 59 5.1 59 0 59 C0 39.53 0 20.06 0 0 Z " fill="#FF8000" transform="translate(896,156)"/>
<path d="M0 0 C4.95 0 9.9 0 15 0 C15 19.47 15 38.94 15 59 C10.05 59 5.1 59 0 59 C0 39.53 0 20.06 0 0 Z " fill="#FF8000" transform="translate(673,156)"/>
<path d="M0 0 C4.95 0 9.9 0 15 0 C15 19.47 15 38.94 15 59 C10.05 59 5.1 59 0 59 C0 39.53 0 20.06 0 0 Z " fill="#FF8000" transform="translate(347,156)"/>
<path d="M0 0 C1.98 0.33 3.96 0.66 6 1 C5.40550637 9.61572108 4.0572469 18.01077975 2.5 26.5 C2.27441406 27.76070312 2.04882812 29.02140625 1.81640625 30.3203125 C0.14205211 39.57384368 0.14205211 39.57384368 -1 43 C-1.67804688 42.855625 -2.35609375 42.71125 -3.0546875 42.5625 C-12.68410353 40.64195165 -21.93297742 39.41611636 -31 44 C-32.99569283 45.49676962 -34.80143348 47.05529352 -36.58984375 48.79296875 C-38 50 -38 50 -40 50 C-38.64723776 45.26533216 -36.05703097 42.61051769 -32 40 C-25.92810986 37.25256807 -21.1156055 36.60239527 -14.5 36.8125 C-13.67757812 36.82603516 -12.85515625 36.83957031 -12.0078125 36.85351562 C-10.00491779 36.88844984 -8.00236644 36.94223943 -6 37 C-5.91959473 36.4016333 -5.83918945 35.8032666 -5.75634766 35.18676758 C-1.39426994 2.78853989 -1.39426994 2.78853989 0 0 Z " fill="#FF8000" transform="translate(101,84)"/>
<path d="M0 0 C2.31 0 4.62 0 7 0 C6.54693558 4.08393542 6.0865547 8.16701612 5.625 12.25 C5.49867187 13.38953125 5.37234375 14.5290625 5.2421875 15.703125 C4.3923083 23.18206196 3.31629198 30.58888751 2 38 C3.299375 38.0825 4.59875 38.165 5.9375 38.25 C13.57603542 39.11338234 21.47320087 42.54460655 27 48 C28.72303568 50.53241555 30.15928062 53.04511865 31 56 C30.67 56.99 30.34 57.98 30 59 C29.5875 58.40832031 29.175 57.81664062 28.75 57.20703125 C23.47492789 49.98913124 18.12344203 45.21748474 9.23046875 43.3359375 C4.84019582 42.6747055 0.42728718 42.30925903 -4 42 C-3.48311477 27.883686 -1.89395544 13.99353345 0 0 Z " fill="#E78114" transform="translate(27,74)"/>
<path d="M0 0 C-12.53056989 12.61896897 -12.53056989 12.61896897 -18.31640625 13.51171875 C-21.25341678 13.50131612 -24.08656241 13.36042527 -27 13 C-21.11670636 0.04486856 -12.86472201 -1.27857973 0 0 Z " fill="#FF8000" transform="translate(973,139)"/>
<path d="M0 0 C5.28 0 10.56 0 16 0 C15.67 2.31 15.34 4.62 15 7 C14.01 7 13.02 7 12 7 C12 7.66 12 8.32 12 9 C9.36 9 6.72 9 4 9 C4 8.34 4 7.68 4 7 C3.01 7 2.02 7 1 7 C0.67 4.69 0.34 2.38 0 0 Z " fill="#FF8000" transform="translate(62,66)"/>
<path d="M0 0 C6.30005958 2.10001986 11.34091927 5.1784951 14.5 11.125 C15.97959556 14.19158112 16.13169438 14.60491686 15 18 C14.5875 17.40832031 14.175 16.81664062 13.75 16.20703125 C9.72425591 10.69859124 5.97078941 7.23201427 0 4 C-0.99 3.34 -1.98 2.68 -3 2 C-2.01 2 -1.02 2 0 2 C0 1.34 0 0.68 0 0 Z " fill="#CE842A" transform="translate(42,115)"/>
<path d="M0 0 C0.66 0 1.32 0 2 0 C4.125 4.625 4.125 4.625 3 8 C0.37613513 4.93882432 0 4.26826873 0 0 Z " fill="#BE8537" transform="translate(54,125)"/>
<path d="M0 0 C0 0.99 0 1.98 0 3 C-1.65 3.33 -3.3 3.66 -5 4 C-4.67 3.01 -4.34 2.02 -4 1 C-2 0 -2 0 0 0 Z " fill="#FF8000" transform="translate(92,32)"/>
<path d="M0 0 C2.475 0.99 2.475 0.99 5 2 C5 2.66 5 3.32 5 4 C3.35 3.67 1.7 3.34 0 3 C0 2.01 0 1.02 0 0 Z " fill="#FF8000" transform="translate(48,32)"/>
<path d="M0 0 C0.66 0 1.32 0 2 0 C1.6875 1.9375 1.6875 1.9375 1 4 C0.01 4.33 -0.98 4.66 -2 5 C-1.125 1.125 -1.125 1.125 0 0 Z " fill="#FF8000" transform="translate(85,25)"/>
<path d="M0 0 C1.98 0.99 1.98 0.99 4 2 C4 2.99 4 3.98 4 5 C2.68 4.34 1.36 3.68 0 3 C0 2.01 0 1.02 0 0 Z " fill="#FF8000" transform="translate(53,25)"/>
<path d="M0 0 C1.32 0.66 2.64 1.32 4 2 C4 2.66 4 3.32 4 4 C2.68 3.67 1.36 3.34 0 3 C0 2.01 0 1.02 0 0 Z " fill="#FF8000" transform="translate(83,55)"/>
<path d="M0 0 C0.66 0.33 1.32 0.66 2 1 C2 1.66 2 2.32 2 3 C0.35 3.33 -1.3 3.66 -3 4 C-2.67 3.01 -2.34 2.02 -2 1 C-1.34 0.67 -0.68 0.34 0 0 Z " fill="#FF8000" transform="translate(51,48)"/>
<path d="M0 0 C2.475 0.99 2.475 0.99 5 2 C5 2.66 5 3.32 5 4 C3.35 3.67 1.7 3.34 0 3 C0 2.01 0 1.02 0 0 Z " fill="#FF8000" transform="translate(87,48)"/>
<path d="M0 0 C0.66 0.33 1.32 0.66 2 1 C1.67 2.32 1.34 3.64 1 5 C0.01 4.67 -0.98 4.34 -2 4 C-1.34 2.68 -0.68 1.36 0 0 Z " fill="#FF8000" transform="translate(78,20)"/>
<path d="M0 0 C0.66 0.33 1.32 0.66 2 1 C2.625 3.0625 2.625 3.0625 3 5 C2.01 5 1.02 5 0 5 C-0.5625 3.0625 -0.5625 3.0625 -1 1 C-0.67 0.67 -0.34 0.34 0 0 Z " fill="#FF8000" transform="translate(61,20)"/>
<path d="M0 0 C0.66 0 1.32 0 2 0 C2 0.99 2 1.98 2 3 C0.68 3.33 -0.64 3.66 -2 4 C-1.34 2.68 -0.68 1.36 0 0 Z " fill="#FF8000" transform="translate(55,55)"/>
<path d="M0 0 C1.65 0 3.3 0 5 0 C5 0.66 5 1.32 5 2 C3.35 2 1.7 2 0 2 C0 1.34 0 0.68 0 0 Z " fill="#FF8000" transform="translate(88,41)"/>
<path d="M0 0 C1.65 0 3.3 0 5 0 C5 0.66 5 1.32 5 2 C3.35 2 1.7 2 0 2 C0 1.34 0 0.68 0 0 Z " fill="#FF8000" transform="translate(46,41)"/>
<path d="M0 0 C0.66 0 1.32 0 2 0 C2 1.65 2 3.3 2 5 C1.34 5 0.68 5 0 5 C0 3.35 0 1.7 0 0 Z " fill="#FF8000" transform="translate(69,19)"/>
</svg>
