<?xml version="1.0" encoding="UTF-8"?>
<svg version="1.1" xmlns="http://www.w3.org/2000/svg" width="302" height="277">
<path d="M0 0 C15.18 0 30.36 0 46 0 C46.05607422 8.52328125 46.05607422 8.52328125 46.11328125 17.21875 C46.14357327 20.82815477 46.17472918 24.43751097 46.20898438 28.046875 C46.26322013 33.77015681 46.31433362 39.49334253 46.34643555 45.21679688 C46.37253067 49.83351372 46.41297677 54.44990617 46.46318626 59.06642151 C46.47981307 60.82373506 46.49135334 62.58110466 46.49761391 64.33848572 C46.50730081 66.80868168 46.53541355 69.27805557 46.56762695 71.74804688 C46.56619186 72.46734375 46.56475677 73.18664062 46.5632782 73.92773438 C46.68466845 80.55125438 48.11106008 86.02519918 52.75 90.875 C58.43984281 94.59528184 63.24670104 95.45106209 69.859375 94.47265625 C74.21060518 93.51189192 77.11470796 91.88529204 80.25 88.75 C83.78271596 83.1985892 84.29934905 77.39404568 84.31884766 70.95336914 C84.32889328 70.18181488 84.3389389 69.41026062 84.34928894 68.61532593 C84.37995095 66.08860964 84.39710835 63.56199847 84.4140625 61.03515625 C84.43278785 59.27395229 84.45236227 57.51275718 84.4727478 55.75157166 C84.52393067 51.1337507 84.56363023 46.5159007 84.60089111 41.89794922 C84.64808262 36.34775041 84.70962081 30.79769414 84.76873779 25.247612 C84.85678117 16.83179931 84.92666626 8.41601161 85 0 C100.18 0 115.36 0 131 0 C131.12032643 20.11233961 131.12032643 20.11233961 131.14648438 28.77148438 C131.16432768 34.65006771 131.18529716 40.52850915 131.22631836 46.40698242 C131.2592266 51.15324889 131.27691843 55.89936291 131.28463173 60.64573479 C131.29011937 62.44477674 131.30083293 64.24381159 131.31719017 66.04278755 C131.4784035 84.53030298 129.87052428 103.02810911 117.28515625 117.68359375 C104.30382989 130.84244252 87.89231877 135.17523873 69.90942383 135.38037109 C68.56461477 135.38082263 67.21980321 135.37899345 65.875 135.375 C65.18779877 135.37445618 64.50059753 135.37391235 63.79257202 135.37335205 C45.01903602 135.30497026 28.21976267 131.86164755 14.1875 118.4140625 C7.82378824 111.39125202 2.92572252 101.97014604 1.66796875 92.5 C2.11817279 89.11022842 3.56339651 87.47057405 5.6875 84.8125 C17.38541005 69.33240348 19.94491501 52.28379042 17.53125 33.31640625 C15.16836015 21.60041072 10.09311549 12.46129599 1.7578125 3.9609375 C0 2 0 2 0 0 Z " fill="#F3940B" transform="translate(142,74)"/>
<path d="M0 0 C10.98701532 8.91169021 17.41326509 20.15505575 19.21875 34.23046875 C20.56868598 49.64586675 17.02412302 62.0173729 8.546875 74.90625 C6.4609375 76.99609375 6.4609375 76.99609375 4.1015625 77.703125 C-0.01538757 76.60080553 -2.05234734 73.83286882 -4.7890625 70.68359375 C-5.35536377 70.05291992 -5.92166504 69.42224609 -6.50512695 68.77246094 C-10.75645852 64.00076687 -14.84790946 59.10225229 -18.83203125 54.10546875 C-20.51581448 51.94944595 -20.51581448 51.94944595 -22.5390625 49.99609375 C-23.08351177 47.4769356 -23.42788811 44.95872578 -23.78125 42.40625 C-24.38812372 39.94475918 -24.38812372 39.94475918 -26.046875 38.1796875 C-28.79359244 36.87521198 -29.85904743 36.99625875 -32.81640625 37.21875 C-36.70397275 37.34682412 -38.47789401 36.73377691 -41.41796875 34.1796875 C-42.66744512 32.95261508 -43.8948405 31.70273516 -45.1015625 30.43359375 C-46.41346235 29.13220722 -47.72595503 27.83141803 -49.0390625 26.53125 C-49.65136719 25.91008301 -50.26367188 25.28891602 -50.89453125 24.64892578 C-52.7293449 22.8048509 -54.6293181 21.06705391 -56.6015625 19.37109375 C-57.18292969 18.86707031 -57.76429687 18.36304687 -58.36328125 17.84375 C-60.25419387 16.23800194 -62.15495657 14.64528877 -64.05859375 13.0546875 C-64.6920874 12.52117676 -65.32558105 11.98766602 -65.97827148 11.43798828 C-67.24493206 10.3718144 -68.5164174 9.31133988 -69.79321289 8.25732422 C-75.21934144 3.68251458 -75.21934144 3.68251458 -76.5390625 -0.00390625 C-53.42127103 -13.13901504 -22.61922489 -15.79270206 0 0 Z " fill="#27348B" transform="translate(129.5390625,79.00390625)"/>
<path d="M0 0 C2.55957031 0.34643555 2.55957031 0.34643555 4.20605469 1.71313477 C4.68365234 2.3526709 5.16125 2.99220703 5.65332031 3.65112305 C6.20165527 4.37017822 6.74999023 5.0892334 7.31494141 5.83007812 C7.89066895 6.61922607 8.46639648 7.40837402 9.05957031 8.22143555 C9.67268066 9.03572021 10.28579102 9.85000488 10.91748047 10.68896484 C15.52916408 16.84558024 20.02729915 23.08875592 24.49829102 29.34814453 C29.63564037 36.52292083 34.98308503 43.5318371 40.35595703 50.53125 C41.0045166 51.37647217 41.65307617 52.22169434 42.32128906 53.0925293 C42.89838623 53.84203857 43.4754834 54.59154785 44.07006836 55.36376953 C46.77138226 58.95947027 47.91598007 60.83191193 47.55957031 65.34643555 C45.91253344 66.99347242 43.98996588 66.50731785 41.72021484 66.53930664 C40.68889435 66.55536957 39.65757385 66.5714325 38.59500122 66.58798218 C33.87404889 66.63222906 29.15323983 66.67349124 24.43212891 66.6965332 C21.93724248 66.7131116 19.4424039 66.74042594 16.94775391 66.77856445 C13.36237798 66.83314 9.77811733 66.8551778 6.19238281 66.86987305 C4.51415939 66.90387711 4.51415939 66.90387711 2.80203247 66.93856812 C-0.02844847 66.93079365 -2.65864109 66.86707555 -5.44042969 66.34643555 C-7.46923828 64.28442383 -7.46923828 64.28442383 -8.44042969 61.34643555 C-8.95186523 60.18563477 -9.46330078 59.02483398 -9.99023438 57.82885742 C-10.536159 56.49309419 -11.07659377 55.15507768 -11.61230469 53.81518555 C-11.8989801 53.10164917 -12.18565552 52.38811279 -12.48101807 51.6529541 C-13.0817722 50.15121248 -13.68001661 48.6484647 -14.27587891 47.14477539 C-15.18950488 44.84875967 -16.12134048 42.5606732 -17.05371094 40.2722168 C-17.63688075 38.80782595 -18.21895 37.34299624 -18.79980469 35.87768555 C-19.07991394 35.19734253 -19.36002319 34.51699951 -19.64862061 33.81604004 C-21.15633738 29.94140784 -21.84974324 27.32068199 -20.44042969 23.34643555 C-18.69042969 20.8737793 -18.69042969 20.8737793 -16.44042969 18.28393555 C-13.84388474 15.24912027 -11.31237726 12.23222666 -9.01855469 8.96362305 C-8.62796875 8.41198486 -8.23738281 7.86034668 -7.83496094 7.29199219 C-6.74019935 5.72994862 -5.66025519 4.1575516 -4.58105469 2.5847168 C-2.44042969 0.34643555 -2.44042969 0.34643555 0 0 Z " fill="#27348B" transform="translate(107.4404296875,142.653564453125)"/>
<path d="M0 0 C1.32 0.66 2.64 1.32 4 2 C2.46356148 5.68069887 0.21849055 7.98775204 -2.625 10.75 C-3.44226563 11.54921875 -4.25953125 12.3484375 -5.1015625 13.171875 C-5.72804688 13.77515625 -6.35453125 14.3784375 -7 15 C-4.67642489 15.18490007 -4.67642489 15.18490007 -2 13 C1.87792693 13.28939179 3.88644465 14.38131675 6.63671875 17.0625 C7.29115967 17.68987061 7.94560059 18.31724121 8.61987305 18.96362305 C9.30218994 19.63562744 9.98450684 20.30763184 10.6875 21 C12.12430947 22.38222858 13.56180713 23.76374215 15 25.14453125 C15.6909375 25.81307129 16.381875 26.48161133 17.09375 27.17041016 C19.41241452 29.39582921 21.78664289 31.55121103 24.1875 33.6875 C28.50756677 37.54444404 32.77263816 41.457027 37.01513672 45.39892578 C39.81603128 47.99862815 42.63406481 50.57308921 45.49609375 53.10546875 C46.33164795 53.85111084 46.33164795 53.85111084 47.18408203 54.61181641 C48.2480697 55.55967469 49.31785392 56.50107668 50.39404297 57.43505859 C51.65324315 58.56256653 52.83459004 59.77579459 54 61 C54 61.99 54 62.98 54 64 C40.63693757 71.33012362 27.0584526 76.23661183 11.5625 76.0625 C10.51191406 76.05347656 9.46132813 76.04445313 8.37890625 76.03515625 C7.20134766 76.01775391 7.20134766 76.01775391 6 76 C5.8040625 75.18015625 5.608125 74.3603125 5.40625 73.515625 C3.8527347 67.22576954 3.8527347 67.22576954 -0.046875 62.3125 C-2.45666559 61.09273214 -2.45666559 61.09273214 -6 60 C-6 58.02 -6 56.04 -6 54 C-3 53 -3 53 0.18359375 54.04296875 C4.80876816 55.2028129 7.58113121 54.59593673 12.0625 53.3125 C12.74376953 53.13783203 13.42503906 52.96316406 14.12695312 52.78320312 C18.3714297 51.64563448 22.11710224 50.1019743 26 48 C24.55746343 44.63408134 22.66735273 42.48952921 20 40 C19.34 40.99 18.68 41.98 18 43 C13.77510398 42.46719784 11.45919284 41.12321801 8.1875 38.4375 C7.00220703 37.47650391 7.00220703 37.47650391 5.79296875 36.49609375 C5.20128906 36.00238281 4.60960938 35.50867188 4 35 C3.67 35.33 3.34 35.66 3 36 C4.65 37.32 6.3 38.64 8 40 C7.67 41.65 7.34 43.3 7 45 C5.01432292 44.70703125 3.02864583 44.4140625 1.04296875 44.12109375 C-1.2025342 43.86095201 -1.2025342 43.86095201 -4 45 C-4.680625 46.2684375 -4.680625 46.2684375 -5.375 47.5625 C-5.91125 48.366875 -6.4475 49.17125 -7 50 C-9.6875 50.3125 -9.6875 50.3125 -12 50 C-12.99 46.535 -12.99 46.535 -14 43 C-16.31 43 -18.62 43 -21 43 C-21.65234375 41.21875 -21.65234375 41.21875 -22 39 C-19.54150531 34.30931556 -15.18685813 30.87909318 -10.43359375 28.7109375 C-5.42029003 27.24637686 -0.19376076 27.15834636 5 27 C3.19167965 24.92579894 3.19167965 24.92579894 1 23 C-1.98126542 23.18632909 -4.31712838 23.71029689 -7.0625 24.875 C-9 25 -9 25 -11.5625 22.8125 C-12.366875 21.884375 -13.17125 20.95625 -14 20 C-14.61875 19.34 -15.2375 18.68 -15.875 18 C-17 16 -17 16 -16.6875 13.25 C-16.460625 12.5075 -16.23375 11.765 -16 11 C-15.12085938 10.76539062 -14.24171875 10.53078125 -13.3359375 10.2890625 C-9.60886816 8.84886006 -7.51471217 7.10851151 -4.625 4.375 C-3.75101563 3.55773437 -2.87703125 2.74046875 -1.9765625 1.8984375 C-1.32429688 1.27195312 -0.67203125 0.64546875 0 0 Z " fill="#27348B" transform="translate(50,74)"/>
<path d="M0 0 C5.34844008 0.53484401 9.35796103 2.46690767 14 5 C14 6.65 14 8.3 14 10 C10.37 9.67 6.74 9.34 3 9 C4.92869349 12.85738697 5.39420539 13.61560824 8.8125 15.6875 C9.81216797 16.31205078 9.81216797 16.31205078 10.83203125 16.94921875 C15.27722888 19.10373796 19.83448132 19.1465034 24.70703125 19.24609375 C26.00954834 19.27775635 27.31206543 19.30941895 28.65405273 19.34204102 C29.3345871 19.35743927 30.01512146 19.37283752 30.71627808 19.38870239 C42.2369038 19.65688916 53.610328 20.09864471 65 22 C65.33798054 25.17138405 65.24162673 26.6357294 63.453125 29.33203125 C62.72609375 30.15058594 61.9990625 30.96914062 61.25 31.8125 C57.24672935 36.47982029 53.48071447 41.25222024 49.8125 46.1875 C49.32620117 46.84016846 48.83990234 47.49283691 48.33886719 48.1652832 C47.86223633 48.80554443 47.38560547 49.44580566 46.89453125 50.10546875 C46.42354004 50.73759277 45.95254883 51.3697168 45.46728516 52.02099609 C44.42965659 53.42049978 43.39872083 54.82497739 42.37255859 56.23291016 C41.84098145 56.95655762 41.3094043 57.68020508 40.76171875 58.42578125 C40.28049561 59.08618408 39.79927246 59.74658691 39.3034668 60.42700195 C38 62 38 62 36 63 C33.62597499 63.07116382 31.24999323 63.08409085 28.875 63.0625 C27.59367187 63.05347656 26.31234375 63.04445312 24.9921875 63.03515625 C24.00476563 63.02355469 23.01734375 63.01195312 22 63 C21.78475748 57.29607317 22.41032288 52.28209016 23.66015625 46.7109375 C24.0705544 43.43718672 23.92216744 41.18003032 23 38 C20.83101667 35.15099414 20.83101667 35.15099414 18 32.5625 C17.50741699 32.08659424 17.01483398 31.61068848 16.50732422 31.12036133 C12.85612418 27.64860312 8.96964867 24.57594523 4.9453125 21.546875 C1.22596477 18.58932138 -1.40901626 15.69907825 -3 11.125 C-3 6.84728936 -1.69001626 3.92083773 0 0 Z " fill="#27348B" transform="translate(20,146)"/>
<path d="M0 0 C1.74991334 -0.02715383 3.49994945 -0.04646551 5.25 -0.0625 C6.71179688 -0.07990234 6.71179688 -0.07990234 8.203125 -0.09765625 C10.65758678 -0.01195577 12.66168914 0.29293934 15 1 C14.67 2.65 14.34 4.3 14 6 C12.02 6 10.04 6 8 6 C7.67 7.32 7.34 8.64 7 10 C7.6496875 10.44730469 8.299375 10.89460937 8.96875 11.35546875 C9.8040625 11.96003906 10.639375 12.56460938 11.5 13.1875 C12.3353125 13.77917969 13.170625 14.37085938 14.03125 14.98046875 C16 17 16 17 16.28125 19.73828125 C16.14203125 20.85783203 16.14203125 20.85783203 16 22 C10.47691099 20.37989389 5.46041479 18.79135257 1 15 C-0.7274567 10.89729033 0.40949013 8.02305439 2 4 C1.34 3.67 0.68 3.34 0 3 C0 2.01 0 1.02 0 0 Z " fill="#27348B" transform="translate(20,128)"/>
</svg>
