<?xml version="1.0" encoding="UTF-8"?>
<svg version="1.1" xmlns="http://www.w3.org/2000/svg" width="804" height="449">
<path d="M0 0 C19.79066446 -0.59371993 36.43188812 2.69111046 51.5 16.375 C64.98741179 29.2054065 72.70472121 46.77789784 73.47485352 65.36987305 C73.70074887 84.50518316 66.83271698 101.74046823 53.54150391 115.51757812 C43.04888749 125.60803851 27.76419897 134 13 134 C13.495 144.395 13.495 144.395 14 155 C16.64 155.66 19.28 156.32 22 157 C23.36325076 159.72650153 23.14982798 161.91047406 23.17700195 164.96264648 C23.19625481 166.83985634 23.19625481 166.83985634 23.21589661 168.75498962 C23.22406248 170.12702032 23.23150651 171.49905548 23.23828125 172.87109375 C23.24235678 173.56056658 23.2464323 174.25003941 23.25063133 174.96040535 C23.27148566 178.60779649 23.28579161 182.25515004 23.29516602 185.90258789 C23.30624573 189.67355392 23.34066432 193.44393231 23.38033772 197.21469021 C23.40645021 200.11173111 23.41485286 203.00863064 23.41844749 205.90577888 C23.42332533 207.29609216 23.43497343 208.68639863 23.45348549 210.07659721 C23.47776402 212.02024061 23.47450328 213.96416924 23.4699707 215.90795898 C23.47583694 217.01445297 23.48170319 218.12094696 23.48774719 219.26097107 C23 222 23 222 21.1269989 223.85748291 C18.49319861 225.27222828 16.70117311 225.37297465 13.71875 225.36328125 C12.20861328 225.36231445 12.20861328 225.36231445 10.66796875 225.36132812 C9.62253906 225.34521484 8.57710938 225.32910156 7.5 225.3125 C5.93185547 225.31733398 5.93185547 225.31733398 4.33203125 225.32226562 C-4.65137252 225.25900222 -4.65137252 225.25900222 -8 223 C-9.05036902 219.84889295 -9.13301263 217.61536233 -9.14526367 214.30688477 C-9.15164352 213.13879776 -9.15802338 211.97071075 -9.16459656 210.76722717 C-9.16570938 209.50470627 -9.1668222 208.24218536 -9.16796875 206.94140625 C-9.17296135 204.99765358 -9.17296135 204.99765358 -9.17805481 203.01463318 C-9.18404062 200.27170987 -9.18589525 197.52881805 -9.18530273 194.78588867 C-9.1852011 191.27418353 -9.19885701 187.76268052 -9.21607494 184.25102329 C-9.229878 180.89781448 -9.22928388 177.54464312 -9.23046875 174.19140625 C-9.23765427 172.93090958 -9.24483978 171.6704129 -9.25224304 170.37171936 C-9.24916641 169.20048019 -9.24608978 168.02924103 -9.24291992 166.82250977 C-9.24434494 165.79231216 -9.24576996 164.76211456 -9.24723816 163.70069885 C-8.99435218 160.93830623 -8.50934288 159.31007301 -7 157 C-5 156 -5 156 1 156 C1 148.74 1 141.48 1 134 C-1.31 134 -3.62 134 -6 134 C-19.09895384 131.41067192 -29.95538982 125.67320584 -40 117 C-40.67804688 116.41734375 -41.35609375 115.8346875 -42.0546875 115.234375 C-49.1327934 108.67955319 -55.95598593 99.79314607 -57 90 C-51.67004241 90.38071126 -48.53626008 92.12812265 -45 96 C-43.54374702 97.9444287 -42.10811798 99.90438582 -40.6875 101.875 C-31.36738627 114.52372578 -17.68570766 121.82905025 -2.29296875 124.5625 C12.08538037 126.47279075 27.0176248 123.3985228 39 115 C52.6327296 104.4843959 60.6330859 91.31940483 63.62890625 74.4609375 C65.41168985 57.83413471 60.15619028 42.71608852 50.0625 29.5625 C39.71326564 17.47190307 27.86906288 11.19016122 12 9 C10.95328125 9.04898438 9.9065625 9.09796875 8.828125 9.1484375 C6 9 6 9 3.8828125 7.46875 C3.30273438 6.8190625 2.72265625 6.169375 2.125 5.5 C1.52945313 4.8503125 0.93390625 4.200625 0.3203125 3.53125 C-0.11539063 3.0259375 -0.55109375 2.520625 -1 2 C-0.67 1.34 -0.34 0.68 0 0 Z " fill="#FFFFFF" transform="translate(401,33)"/>
<path d="M0 0 C8.93151593 0.64095122 15.99403035 3.37848463 22.06640625 10.1171875 C24.1400544 12.63447672 25.69563494 15.09566673 27.06640625 18.0546875 C27.77925781 17.51199219 28.49210937 16.96929687 29.2265625 16.41015625 C37.23191917 10.43038108 43.81326054 6.12408273 54.06640625 6.0546875 C56.0722054 6.35113457 58.07422968 6.67740298 60.06640625 7.0546875 C58.89232165 16.53498256 57.2331414 25.91237307 55.50390625 35.3046875 C55.2819458 36.51938721 55.05998535 37.73408691 54.83129883 38.9855957 C54.61884521 40.12730225 54.4063916 41.26900879 54.1875 42.4453125 C53.90024048 43.9926709 53.90024048 43.9926709 53.60717773 45.57128906 C53.06640625 48.0546875 53.06640625 48.0546875 52.06640625 50.0546875 C51.23238281 49.94769531 50.39835937 49.84070313 49.5390625 49.73046875 C40.9476309 48.81523033 34.51786019 48.59168811 27.515625 54.0390625 C25.29701586 55.9850898 23.15772058 57.97326119 21.06640625 60.0546875 C19.5757281 58.10333331 18.13398174 56.16057681 16.8125 54.08984375 C11.927598 46.72603625 5.41835507 43.67786873 -3.05859375 41.7421875 C-4.33734375 41.5153125 -5.61609375 41.2884375 -6.93359375 41.0546875 C-6.48530872 31.54795318 -5.55170266 22.13009749 -4.43359375 12.6796875 C-4.30299561 11.55570557 -4.17239746 10.43172363 -4.0378418 9.27368164 C-3.91062744 8.2243042 -3.78341309 7.17492676 -3.65234375 6.09375 C-3.53826172 5.14709473 -3.42417969 4.20043945 -3.30664062 3.22509766 C-2.76576057 0.07822353 -2.76576057 0.07822353 0 0 Z " fill="#FFFFFF" transform="translate(347.93359375,71.9453125)"/>
<path d="M0 0 C13 0 13 0 15.88110352 2.27563477 C16.45787842 3.32033936 17.03465332 4.36504395 17.62890625 5.44140625 C18.62180664 7.15360352 18.62180664 7.15360352 19.63476562 8.90039062 C20.27853535 10.12046575 20.92110548 11.34117456 21.5625 12.5625 C22.23574864 13.75839579 22.91345669 14.95179255 23.59570312 16.14257812 C25.44854766 19.40122792 27.22527407 22.69812213 29 26 C30.31783654 28.3427676 31.65645204 30.67186728 33 33 C36.1969246 30.29020817 37.85467615 26.78762397 39.7734375 23.14453125 C40.5219889 21.78559057 41.27338275 20.42821245 42.02734375 19.07226562 C43.20928054 16.94433747 44.37416656 14.81410922 45.49365234 12.65258789 C46.58379949 10.55918939 47.7332085 8.50936726 48.8984375 6.45703125 C49.21565765 5.81022903 49.53287781 5.16342682 49.85971069 4.49702454 C50.91943359 2.70629883 50.91943359 2.70629883 54 0 C58.29 0 62.58 0 67 0 C67 19.14 67 38.28 67 58 C62.38 58 57.76 58 53 58 C52.67 48.1 52.34 38.2 52 28 C47.75974568 35.87828511 47.75974568 35.87828511 43.59594727 43.796875 C39.33853844 51.39575608 39.33853844 51.39575608 35.70581055 53.03564453 C33.01850341 53.2900873 31.46557618 53.10252411 29 52 C26.55374424 49.61888234 25.17824218 46.92162604 23.6875 43.875 C22.88022437 42.35086361 22.07165149 40.82741355 21.26171875 39.3046875 C20.92100342 38.62390137 20.58028809 37.94311523 20.22924805 37.24169922 C18.66490156 34.3889029 16.80474816 31.70712225 15 29 C14.67 38.57 14.34 48.14 14 58 C9.38 58 4.76 58 0 58 C0 38.86 0 19.72 0 0 Z " fill="#FFFFFF" transform="translate(454,293)"/>
<path d="M0 0 C13 0 13 0 17.625 4.125 C19.11795968 6.05706546 20.57331432 8.01849211 22 10 C23.38630399 11.78354899 24.79101236 13.55158726 26.19677734 15.31982422 C27.1162997 16.4820376 28.02869725 17.64994214 28.93212891 18.82470703 C32.45876107 23.41026005 36.16484253 27.61696289 40 32 C40.33 21.44 40.66 10.88 41 0 C45.62 0 50.24 0 55 0 C55 19.14 55 38.28 55 58 C42 58 42 58 38.4921875 55.4296875 C37.5789841 54.27594915 36.70714059 53.08850512 35.875 51.875 C35.39619385 51.25133545 34.9173877 50.6276709 34.42407227 49.98510742 C33.42453389 48.67743945 32.44190899 47.3566807 31.47607422 46.02392578 C29.52084282 43.34300148 27.46132182 40.7520415 25.39697266 38.15478516 C24.00856748 36.40220813 22.64219247 34.63421779 21.27734375 32.86328125 C18.99100009 29.8777516 18.99100009 29.8777516 16 27 C15.67 37.23 15.34 47.46 15 58 C10.05 58 5.1 58 0 58 C0 38.86 0 19.72 0 0 Z " fill="#FFFFFF" transform="translate(589,293)"/>
<path d="M0 0 C8.600625 -0.12375 8.600625 -0.12375 17.375 -0.25 C19.16341309 -0.28641602 20.95182617 -0.32283203 22.79443359 -0.36035156 C34.54645634 -0.50105524 43.43376578 0.77792395 52.30859375 9.1328125 C58.67413629 16.15990103 59.36872734 23.21030732 59.2734375 32.38671875 C58.67595349 40.28204319 55.7762502 46.20375251 49.93359375 51.53125 C42.92435583 56.85543881 36.39598674 58.15620557 27.734375 58.09765625 C27.03070801 58.09664917 26.32704102 58.09564209 25.60205078 58.09460449 C22.98468384 58.08939005 20.36734021 58.07542881 17.75 58.0625 C11.8925 58.041875 6.035 58.02125 0 58 C0 38.86 0 19.72 0 0 Z M14 12 C14 23.22 14 34.44 14 46 C18.269375 46.0928125 18.269375 46.0928125 22.625 46.1875 C23.51010254 46.21481201 24.39520508 46.24212402 25.30712891 46.27026367 C31.84106693 46.33864722 35.91493245 44.99029175 40.75 40.375 C44.09818352 35.97235608 45.40726775 31.1241045 44.69140625 25.6328125 C43.10785011 19.79037558 40.07978961 16.23259339 35 13 C32.23434618 12.07811539 30.61716298 11.88214778 27.76953125 11.90234375 C26.68442261 11.90609009 26.68442261 11.90609009 25.57739258 11.90991211 C24.20877075 11.92356812 24.20877075 11.92356812 22.8125 11.9375 C19.904375 11.958125 16.99625 11.97875 14 12 Z " fill="#FFFFFF" transform="translate(37,293)"/>
<path d="M0 0 C7.69070436 4.29774655 14.63460603 10.7306796 17.484375 19.26171875 C19.29173887 29.32873553 18.16308562 38.52467871 12.77734375 47.20703125 C8.39754266 53.07151068 1.81873337 56.57595345 -5.125 58.4375 C-17.15488957 59.76130039 -27.80594805 58.91797573 -37.5 51.1875 C-42.68334903 46.32876474 -45.8754826 40.07799972 -46.36328125 32.9609375 C-46.5757446 25.04332825 -46.64980133 18.26712201 -42.125 11.4375 C-41.7125 10.80457031 -41.3 10.17164063 -40.875 9.51953125 C-32.25898406 -1.9603309 -13.03558088 -5.37029212 0 0 Z M-28.5 16.8125 C-32.3597453 23.04747318 -32.70066688 28.37575207 -31.125 35.4375 C-28.69279738 40.30190523 -25.81175698 42.74510769 -21.125 45.4375 C-15.69439165 47.24770278 -11.02756228 47.13847747 -5.875 44.75 C-1.60273294 42.32904867 0.98653408 39.95703021 2.66015625 35.2109375 C4.27518523 28.96357989 3.91391588 24.16381537 0.875 18.4375 C-3.24076387 13.32060437 -7.45726535 10.73869585 -14 10 C-19.85074517 10.24658313 -24.41185518 12.72435518 -28.5 16.8125 Z " fill="#FFFFFF" transform="translate(750.125,293.5625)"/>
<path d="M0 0 C8.353125 -0.1546875 8.353125 -0.1546875 16.875 -0.3125 C19.47930908 -0.38078003 19.47930908 -0.38078003 22.13623047 -0.45043945 C30.7183392 -0.58110132 37.81226357 -0.33946135 45 5 C47.5 7.5625 47.5 7.5625 49 10 C49.35320312 10.56976563 49.70640625 11.13953125 50.0703125 11.7265625 C52.2990063 17.17656161 51.98617979 24.70526298 50.3125 30.296875 C48.06804544 34.52393109 44.6308724 37.0505379 41 40 C41.33322266 40.47421387 41.66644531 40.94842773 42.00976562 41.43701172 C43.51135304 43.57966145 45.00574182 45.72723333 46.5 47.875 C47.02464844 48.62136719 47.54929687 49.36773437 48.08984375 50.13671875 C48.58613281 50.85214844 49.08242188 51.56757813 49.59375 52.3046875 C50.05458984 52.96452637 50.51542969 53.62436523 50.99023438 54.30419922 C52 56 52 56 52 58 C41.13312891 59.8201335 41.13312891 59.8201335 36 58 C33.12503213 55.29211807 31.46028834 51.88599785 29.61035156 48.43896484 C27.16413281 44.0465962 27.16413281 44.0465962 22.7265625 41.78125 C19.03604943 41.45854839 19.03604943 41.45854839 14 42 C14 47.28 14 52.56 14 58 C9.38 58 4.76 58 0 58 C0 38.86 0 19.72 0 0 Z M14 12 C14 18.27 14 24.54 14 31 C24.4990449 31.6141824 24.4990449 31.6141824 34 28 C36.69071349 24.97294732 37 23.50449986 37 19.4375 C35.76600048 15.19562666 34.75703774 14.26404497 31 12 C28.03736463 11.53151206 25.17705941 11.6207032 22.1875 11.75 C19.485625 11.8325 16.78375 11.915 14 12 Z " fill="#FFFFFF" transform="translate(282,293)"/>
<path d="M0 0 C8.3840625 -0.12375 8.3840625 -0.12375 16.9375 -0.25 C18.68281006 -0.28641602 20.42812012 -0.32283203 22.22631836 -0.36035156 C31.05579577 -0.46877872 38.89268903 -0.53393163 45.85498047 5.64672852 C50.43305089 10.28483225 51.95769654 15.10203873 52.02734375 21.51953125 C51.60445068 28.75208704 49.39459065 32.70952199 44.125 37.75 C37.84317506 42.27291396 32.08405949 42.26332778 24.625 42.125 C23.23474609 42.11146484 23.23474609 42.11146484 21.81640625 42.09765625 C19.54415841 42.07423101 17.2720447 42.03836473 15 42 C15 47.28 15 52.56 15 58 C10.05 58 5.1 58 0 58 C0 38.86 0 19.72 0 0 Z M15 12 C15 18.27 15 24.54 15 31 C24.96301952 31.47846431 24.96301952 31.47846431 34 28 C36.4908162 25.66988162 36.93376919 24.44469258 37.4375 21.0625 C36.89919863 17.29439042 35.62436976 15.70155711 33 13 C29.81453711 11.40726856 26.36800652 11.89858167 22.875 11.9375 C18.976875 11.9684375 18.976875 11.9684375 15 12 Z " fill="#FFFFFF" transform="translate(161,293)"/>
<path d="M0 0 C14.85 0 29.7 0 45 0 C45 3.63 45 7.26 45 11 C35.1 11 25.2 11 15 11 C15 14.96 15 18.92 15 23 C23.91 23 32.82 23 42 23 C42 26.63 42 30.26 42 34 C33.09 34 24.18 34 15 34 C15 38.29 15 42.58 15 47 C25.23 47 35.46 47 46 47 C46 50.63 46 54.26 46 58 C30.82 58 15.64 58 0 58 C0 38.86 0 19.72 0 0 Z " fill="#FFFFFF" transform="translate(105,293)"/>
<path d="M0 0 C4.95 0 9.9 0 15 0 C17.43642959 5.40313864 19.87167233 10.80681018 22.3059082 16.2109375 C23.13079295 18.04180662 23.95597847 19.87254027 24.78149414 21.703125 C27.52991525 27.79810384 30.27038866 33.89657298 33 40 C33.36180359 40.80824219 33.72360718 41.61648438 34.09637451 42.44921875 C35.09864926 44.69336831 36.09535973 46.93988907 37.08984375 49.1875 C37.53608849 50.18559692 37.53608849 50.18559692 37.99134827 51.20385742 C40 55.76908863 40 55.76908863 40 58 C35.05 58 30.1 58 25 58 C21.125 50.375 21.125 50.375 20 47 C11.42 47 2.84 47 -6 47 C-7.65 50.63 -9.3 54.26 -11 58 C-15.95 58 -20.9 58 -26 58 C-24.81270759 54.43812277 -23.73154767 51.20857843 -22.21582031 47.83740234 C-21.87496399 47.07575775 -21.53410767 46.31411316 -21.18292236 45.52938843 C-20.81833923 44.72304962 -20.4537561 43.91671082 -20.078125 43.0859375 C-19.69565613 42.23504547 -19.31318726 41.38415344 -18.91912842 40.50747681 C-18.11026267 38.70991282 -17.29994993 36.91299932 -16.48828125 35.11669922 C-15.26419093 32.40642038 -14.04581501 29.69362813 -12.828125 26.98046875 C-8.73468606 17.8847044 -4.54933391 8.87853876 0 0 Z M6 16 C4.82905995 18.7899439 3.66309073 21.58178597 2.5 24.375 C2.16613281 25.1690625 1.83226562 25.963125 1.48828125 26.78125 C1.01455078 27.92207031 1.01455078 27.92207031 0.53125 29.0859375 C0.23798828 29.7876709 -0.05527344 30.4894043 -0.35742188 31.21240234 C-1.11275781 32.99708561 -1.11275781 32.99708561 -1 35 C4.28 35 9.56 35 15 35 C12.91923185 28.54961873 10.57778144 22.26780359 8 16 C7.34 16 6.68 16 6 16 Z " fill="#FFFFFF" transform="translate(409,293)"/>
<path d="M0 0 C4.95 0 9.9 0 15 0 C19.38450456 8.63055108 23.49673206 17.34662076 27.4375 26.1875 C27.71902924 26.81675385 28.00055847 27.44600769 28.2906189 28.09432983 C32.71622974 37.98944759 36.95776187 47.94140745 41 58 C35.72 58 30.44 58 25 58 C21 48.25 21 48.25 21 46 C12.09 46 3.18 46 -6 46 C-6.33 47.65 -6.66 49.3 -7 51 C-7.89305874 53.39228689 -8.94896026 55.66943362 -10 58 C-14.95 58 -19.9 58 -25 58 C-24.27119154 54.35595769 -23.69952423 51.99042527 -22.22167969 48.75146484 C-21.85749939 47.94647552 -21.49331909 47.14148621 -21.11810303 46.31210327 C-20.72334778 45.45371857 -20.32859253 44.59533386 -19.921875 43.7109375 C-19.51342346 42.81186676 -19.10497192 41.91279602 -18.68414307 40.98648071 C-17.37767292 38.11372077 -16.06396839 35.24433691 -14.75 32.375 C-13.88102847 30.46766741 -13.01253393 28.56011744 -12.14453125 26.65234375 C-10.11543831 22.19513974 -8.081072 17.74037103 -6.04467773 13.28649902 C-4.02266637 8.86089785 -2.0115379 4.43037067 0 0 Z M7 15 C4.36 21.6 1.72 28.2 -1 35 C4.61 35 10.22 35 16 35 C13.36 28.4 10.72 21.8 8 15 C7.67 15 7.34 15 7 15 Z " fill="#FFFFFF" transform="translate(236,293)"/>
<path d="M0 0 C14.85 0 29.7 0 45 0 C45 3.63 45 7.26 45 11 C34.77 11 24.54 11 14 11 C14 14.96 14 18.92 14 23 C22.91 23 31.82 23 41 23 C41 26.63 41 30.26 41 34 C32.09 34 23.18 34 14 34 C14 38.29 14 42.58 14 47 C24.56 47 35.12 47 46 47 C46 50.63 46 54.26 46 58 C30.82 58 15.64 58 0 58 C0 38.86 0 19.72 0 0 Z " fill="#FFFFFF" transform="translate(534,293)"/>
<path d="M0 0 C11 0 11 0 14.3828125 2.67578125 C15.3308007 3.86167898 16.24426637 5.07583378 17.125 6.3125 C17.86339111 7.25851074 17.86339111 7.25851074 18.61669922 8.22363281 C19.61859621 9.50997904 20.60724516 10.8067591 21.58203125 12.11376953 C23.67667029 14.90012993 25.90080274 17.56599273 28.125 20.25 C28.82882812 21.12140625 29.53265625 21.9928125 30.2578125 22.890625 C31.97777519 25.04104478 31.97777519 25.04104478 34 27 C34.33 18.09 34.66 9.18 35 0 C39.29 0 43.58 0 48 0 C48 16.83 48 33.66 48 51 C37 51 37 51 33.8359375 48.76171875 C33.02382813 47.74722656 32.21171875 46.73273438 31.375 45.6875 C30.92898438 45.14931641 30.48296875 44.61113281 30.0234375 44.05664062 C29.1065218 42.94305693 28.20371652 41.81770395 27.31542969 40.68115234 C26.04519099 39.05775522 24.73970656 37.47284773 23.4140625 35.89453125 C20.16728862 32.0015548 17.04183313 28.05577751 14 24 C13.67 32.91 13.34 41.82 13 51 C8.71 51 4.42 51 0 51 C0 34.17 0 17.34 0 0 Z " fill="#FFFFFF" transform="translate(720,375)"/>
<path d="M0 0 C11 0 11 0 13.7265625 1.80078125 C14.66628906 3.04408203 14.66628906 3.04408203 15.625 4.3125 C16.34558594 5.22257812 17.06617188 6.13265625 17.80859375 7.0703125 C18.53175781 8.03710938 19.25492188 9.00390625 20 10 C21.55640805 11.90083778 23.11885602 13.79674715 24.6875 15.6875 C25.37199219 16.53699219 26.05648437 17.38648438 26.76171875 18.26171875 C29.45261074 21.55371751 32.23293828 24.77176132 35 28 C35.33 18.76 35.66 9.52 36 0 C39.96 0 43.92 0 48 0 C48 16.83 48 33.66 48 51 C37 51 37 51 34.2734375 49.19921875 C33.64695313 48.37035156 33.02046875 47.54148437 32.375 46.6875 C31.65570313 45.77871094 30.93640625 44.86992187 30.1953125 43.93359375 C29.47085938 42.96550781 28.74640625 41.99742187 28 41 C26.42248828 39.07853901 24.839222 37.16178686 23.25 35.25 C22.55390625 34.38890625 21.8578125 33.5278125 21.140625 32.640625 C18.78768718 29.73809587 16.39201127 26.87041353 14 24 C13.67 32.91 13.34 41.82 13 51 C8.71 51 4.42 51 0 51 C0 34.17 0 17.34 0 0 Z " fill="#FFFFFF" transform="translate(191,375)"/>
<path d="M0 0 C6.125625 -0.061875 6.125625 -0.061875 12.375 -0.125 C13.64134277 -0.14320801 14.90768555 -0.16141602 16.21240234 -0.18017578 C26.91538888 -0.23204268 35.35029327 0.94530077 44.5625 6.5625 C50.20239351 12.20239351 52.32429786 18.19627171 52.5625 26.125 C52.21216715 34.41621079 50.2387098 39.13029897 44.25 44.8125 C35.81149043 52.2759717 26.06693028 51.36812673 15.5 51.1875 C10.385 51.125625 5.27 51.06375 0 51 C0 34.17 0 17.34 0 0 Z M13 11 C13 20.9 13 30.8 13 41 C24.41384234 41.47122257 24.41384234 41.47122257 34 38 C38.54620983 33.2206512 39.350054 29.96784561 39.28515625 23.54296875 C38.76426744 18.89778228 36.34110787 16.17854934 32.9375 13.1875 C26.3947336 9.17741737 21.94477696 11 13 11 Z " fill="#FFFFFF" transform="translate(37,375)"/>
<path d="M0 0 C5.36799999 4.01536608 9.18642539 9.19597454 10.46484375 15.84375 C11.28199493 24.74303709 10.40434266 31.57715199 4.9921875 38.8125 C-0.30173866 44.71967056 -6.32046644 47.40320591 -14.16015625 48.22265625 C-23.54397791 48.51590068 -30.41716842 47.02827576 -38.34765625 42.09375 C-45.34519981 34.89627663 -46.98862063 28.08149804 -46.8671875 18.234375 C-46.24574962 11.88839755 -43.93659104 7.21869837 -39.41015625 2.7421875 C-28.22148812 -6.44310424 -12.47655194 -7.25659537 0 0 Z M-27.53515625 8.84375 C-31.61927303 12.57316681 -33.3862201 16.05651618 -33.84765625 21.59375 C-33.77190036 26.17277268 -32.40237712 29.30452424 -29.53515625 32.84375 C-26.02148396 36.1064457 -23.28754544 37.12313306 -18.59765625 37.34375 C-13.45464274 37.1040005 -10.60318286 36.01681075 -6.53515625 32.84375 C-3.66075479 29.47464443 -2.30089158 26.21008664 -2.09765625 21.78125 C-2.68226649 16.51975783 -4.03233125 13.43497647 -7.66015625 9.59375 C-14.27300837 5.56853566 -20.79251382 4.6130724 -27.53515625 8.84375 Z " fill="#FFFFFF" transform="translate(701.53515625,379.15625)"/>
<path d="M0 0 C13.2 0 26.4 0 40 0 C40 3.63 40 7.26 40 11 C31.09 11 22.18 11 13 11 C13 14.3 13 17.6 13 21 C20.92 21 28.84 21 37 21 C37 24.3 37 27.6 37 31 C29.08 31 21.16 31 13 31 C13 34.3 13 37.6 13 41 C22.24 41 31.48 41 41 41 C41 44.3 41 47.6 41 51 C27.47 51 13.94 51 0 51 C0 34.17 0 17.34 0 0 Z " fill="#FFFFFF" transform="translate(97,375)"/>
<path d="M0 0 C13.2 0 26.4 0 40 0 C40 3.63 40 7.26 40 11 C31.09 11 22.18 11 13 11 C13 14.3 13 17.6 13 21 C20.59 21 28.18 21 36 21 C36 24.3 36 27.6 36 31 C28.41 31 20.82 31 13 31 C13 34.3 13 37.6 13 41 C21.91 41 30.82 41 40 41 C40 44.3 40 47.6 40 51 C26.8 51 13.6 51 0 51 C0 34.17 0 17.34 0 0 Z " fill="#FFFFFF" transform="translate(304,375)"/>
<path d="M0 0 C3.15969307 1.8055389 5.01615727 3.74784201 7.0625 6.75 C4.7525 9.06 2.4425 11.37 0.0625 13.75 C-0.5975 13.481875 -1.2575 13.21375 -1.9375 12.9375 C-2.9275 12.545625 -3.9175 12.15375 -4.9375 11.75 C-5.51886719 11.46253906 -6.10023438 11.17507813 -6.69921875 10.87890625 C-11.67996085 8.60574809 -15.36184402 8.55814988 -20.66796875 9.88671875 C-24.92340423 11.50539558 -27.00434723 14.22302275 -29.3125 18 C-30.46740506 23.08158226 -29.72639311 27.84004826 -27.75 32.625 C-25.28688333 35.51279195 -23.56299297 36.51992203 -19.9375 37.75 C-13.25572696 38.39934838 -13.25572696 38.39934838 -6.9375 36.75 C-6.46748967 33.47444392 -6.46748967 33.47444392 -6.3125 29.6875 C-6.23773438 28.39714844 -6.16296875 27.10679687 -6.0859375 25.77734375 C-6.03695312 24.77832031 -5.98796875 23.77929688 -5.9375 22.75 C-1.9775 22.75 1.9825 22.75 6.0625 22.75 C6.0625 29.68 6.0625 36.61 6.0625 43.75 C-4.58216088 49.21239177 -13.85059855 51.74000744 -25.8984375 49.1015625 C-32.7221978 46.64500879 -37.66768834 42.75753097 -41.25390625 36.42578125 C-44.5026274 29.21520505 -45.28587925 22.1264157 -42.75 14.5625 C-42.18042985 13.27578925 -41.57619658 12.00383468 -40.9375 10.75 C-40.49664062 9.83927734 -40.49664062 9.83927734 -40.046875 8.91015625 C-32.44591846 -4.05117636 -12.64997717 -5.94530406 0 0 Z " fill="#FFFFFF" transform="translate(508.9375,377.25)"/>
<path d="M0 0 C4.29 0 8.58 0 13 0 C15.63608426 5.65433182 18.26859826 11.31030738 20.89794922 16.96777344 C21.7911973 18.88846649 22.68538569 20.80872256 23.58056641 22.72851562 C24.87395264 25.50273538 26.16384522 28.27855737 27.453125 31.0546875 C28.04556 32.32250565 28.04556 32.32250565 28.64996338 33.61593628 C31.30247581 39.33905761 33.69835558 45.12668027 36 51 C31.38 51 26.76 51 22 51 C18 43.25 18 43.25 18 41 C10.08 41 2.16 41 -6 41 C-6.33 42.65 -6.66 44.3 -7 46 C-7.99 48.475 -7.99 48.475 -9 51 C-13.62 51 -18.24 51 -23 51 C-21.77376868 47.32130604 -20.66699497 44.07150666 -19.06054688 40.61865234 C-18.49986511 39.40742203 -18.49986511 39.40742203 -17.92785645 38.17172241 C-17.52885132 37.31841339 -17.12984619 36.46510437 -16.71875 35.5859375 C-16.30459839 34.69387604 -15.89044678 33.80181458 -15.46374512 32.88272095 C-14.14550643 30.04540311 -12.82274848 27.21021772 -11.5 24.375 C-10.61039444 22.46106885 -9.72106856 20.54700767 -8.83203125 18.6328125 C-7.20279012 15.12863945 -5.57330612 11.624584 -3.93945312 8.12255859 C-3.6123938 7.42117767 -3.28533447 6.71979675 -2.94836426 5.99716187 C-1.9928446 3.98493143 -0.9962017 1.9924034 0 0 Z M6 14 C4.83112499 16.64487789 3.66480453 19.29083024 2.5 21.9375 C2.16613281 22.69224609 1.83226562 23.44699219 1.48828125 24.22460938 C-0.23087116 27.49943173 -0.23087116 27.49943173 -1 31 C3.62 31 8.24 31 13 31 C11.31108451 25.12900806 9.53630629 19.55571853 7 14 C6.67 14 6.34 14 6 14 Z " fill="#FFFFFF" transform="translate(541,375)"/>
<path d="M0 0 C-0.55105909 3.9492568 -1.38935371 7.34920174 -3 11 C-3.60585938 10.7834375 -4.21171875 10.566875 -4.8359375 10.34375 C-10.8833685 8.33414216 -16.61295872 7.09761068 -23 8 C-23.99 8.66 -24.98 9.32 -26 10 C-26 11.32 -26 12.64 -26 14 C-19.85994777 16.45602089 -13.69438677 18.16962088 -7.26953125 19.7421875 C-2.73132078 21.48807014 -0.09209756 24.16329047 2.375 28.3125 C3.45052982 32.93727823 3.22963978 36.85983111 0.87109375 40.96484375 C-2.58085205 45.41380932 -6.3888977 48.06199946 -12 49 C-22.11664465 49.75449766 -32.27504925 49.81663383 -41 44 C-40.43454163 40.04179141 -39.19097652 37.3340947 -37 34 C-36.39671875 34.20496094 -35.7934375 34.40992188 -35.171875 34.62109375 C-34.37265625 34.89050781 -33.5734375 35.15992188 -32.75 35.4375 C-31.96109375 35.70433594 -31.1721875 35.97117187 -30.359375 36.24609375 C-23.84553089 38.3275042 -17.67064549 38.66766137 -11 37 C-10.86559222 34.57080135 -10.86559222 34.57080135 -12 32 C-15.67979835 30.23086618 -19.2840478 29.19945627 -23.2109375 28.10546875 C-34.5145509 24.85923653 -34.5145509 24.85923653 -39 20 C-40.78983568 14.63049295 -40.88431724 9.80264667 -38.375 4.6875 C-29.10611308 -5.8009773 -12.13034217 -5.39126319 0 0 Z " fill="#FFFFFF" transform="translate(390,378)"/>
<path d="M0 0 C16.83 0 33.66 0 51 0 C51 3.96 51 7.92 51 12 C45.06 12 39.12 12 33 12 C33 27.18 33 42.36 33 58 C28.05 58 23.1 58 18 58 C18 42.82 18 27.64 18 12 C12.06 12 6.12 12 0 12 C0 8.04 0 4.08 0 0 Z " fill="#FFFFFF" transform="translate(336,293)"/>
<path d="M0 0 C2.76941143 1.60664461 4.9429756 3.34765622 7.125 5.6875 C5.63402342 9.4827131 3.36799151 11.29792731 0.125 13.6875 C-2.8469385 12.56298273 -5.20940687 11.46456209 -7.875 9.6875 C-13.82468056 8.14058305 -18.47107474 8.94895374 -23.875 11.6875 C-27.37364947 15.18614947 -28.70352013 17.93840537 -29.1875 22.875 C-28.80306506 27.56510622 -27.62480475 30.87214592 -24.875 34.6875 C-20.63155844 37.92059833 -16.4557885 38.19087598 -11.2734375 38.05859375 C-7.82074914 37.52438301 -5.61417909 35.77449359 -2.875 33.6875 C1.125 33.6875 1.125 33.6875 2.828125 35 C3.33859375 35.556875 3.8490625 36.11375 4.375 36.6875 C4.89578125 37.244375 5.4165625 37.80125 5.953125 38.375 C6.33984375 38.808125 6.7265625 39.24125 7.125 39.6875 C5.61160052 43.92501854 2.93508791 45.48937236 -0.875 47.6875 C-9.12717273 50.96961415 -18.98798554 51.12219995 -27.375 48.125 C-33.98427638 44.97406591 -38.27922475 40.5959091 -41.3125 33.9375 C-43.82775775 26.76193786 -44.07824618 19.87919621 -41.125 12.8125 C-33.62388818 -1.77443717 -14.85027584 -7.32613608 0 0 Z " fill="#FFFFFF" transform="translate(619.875,377.3125)"/>
<path d="M0 0 C4.62 0 9.24 0 14 0 C19.5923457 10.75451096 24.30138297 21.8325455 29 33 C33.55615935 24.10069653 37.91607124 15.17018553 41.82836914 5.96679688 C43.90764736 1.09235264 43.90764736 1.09235264 45 0 C47.01964199 -0.07244053 49.04167124 -0.08377188 51.0625 -0.0625 C52.71958984 -0.04896484 52.71958984 -0.04896484 54.41015625 -0.03515625 C55.26480469 -0.02355469 56.11945313 -0.01195312 57 0 C56.41832838 5.59880052 54.36448758 10.11328705 52.03515625 15.16015625 C51.64178574 16.02764999 51.24841522 16.89514374 50.84312439 17.78892517 C49.58957246 20.54986991 48.32636677 23.30626397 47.0625 26.0625 C45.80430056 28.82322115 44.54808686 31.58483661 43.29258728 34.3467865 C42.51219283 36.06170905 41.72985784 37.77575023 40.94532776 39.48878479 C40.58833298 40.26987106 40.2313382 41.05095734 39.86352539 41.85571289 C39.55121475 42.53710831 39.23890411 43.21850372 38.91712952 43.92054749 C37.88717654 46.25581013 36.94790184 48.63024541 36 51 C31.38 51 26.76 51 22 51 C19.5094927 45.46830316 17.01926845 39.93647902 14.52929688 34.40454102 C13.68366997 32.52592598 12.83796816 30.64734465 11.9921875 28.76879883 C10.77063213 26.05559182 9.54935369 23.34226031 8.328125 20.62890625 C7.76850067 19.38615685 7.76850067 19.38615685 7.1975708 18.11830139 C6.48249293 16.52925612 5.76868087 14.93964048 5.05627441 13.34939575 C4.3237865 11.72017519 3.58497811 10.09378726 2.84118652 8.46969604 C2.47432739 7.66235016 2.10746826 6.85500427 1.72949219 6.02319336 C1.39729675 5.29796982 1.06510132 4.57274628 0.72283936 3.82554626 C0 2 0 2 0 0 Z " fill="#FFFFFF" transform="translate(243,375)"/>
<path d="M0 0 C17.16 0 34.32 0 52 0 C52 3.96 52 7.92 52 12 C45.73 12 39.46 12 33 12 C33 27.18 33 42.36 33 58 C28.38 58 23.76 58 19 58 C19 42.82 19 27.64 19 12 C12.73 12 6.46 12 0 12 C0 8.04 0 4.08 0 0 Z " fill="#FFFFFF" transform="translate(650,293)"/>
<path d="M0 0 C15.18 0 30.36 0 46 0 C46 3.63 46 7.26 46 11 C40.39 11 34.78 11 29 11 C29 24.2 29 37.4 29 51 C25.04 51 21.08 51 17 51 C17 37.8 17 24.6 17 11 C11.39 11 5.78 11 0 11 C0 7.37 0 3.74 0 0 Z " fill="#FFFFFF" transform="translate(393,375)"/>
<path d="M0 0 C3.80308551 1.8852205 6.39460262 4.48416446 8.2890625 8.28125 C9.95082581 13.49404323 9.64069917 18.5318384 7.6953125 23.58984375 C6.45444307 25.53978143 5.15627225 27.45378293 3.8203125 29.33984375 C1.50493644 32.61793778 1.50493644 32.61793778 0.9453125 38.33984375 C-4.3346875 38.33984375 -9.6146875 38.33984375 -15.0546875 38.33984375 C-15.2609375 37.20546875 -15.4671875 36.07109375 -15.6796875 34.90234375 C-16.54208755 31.28153179 -17.90924619 29.01892723 -20.1796875 26.08984375 C-23.96348575 20.73873691 -24.09757461 15.69692085 -23.0546875 9.33984375 C-21.07413475 4.9034056 -18.4816474 2.26820524 -14.109375 0.03515625 C-9.44702113 -1.54259848 -4.67832453 -1.50311187 0 0 Z " fill="#FFFFFF" transform="translate(385.0546875,29.66015625)"/>
<path d="M0 0 C4.29 0 8.58 0 13 0 C13 16.83 13 33.66 13 51 C8.71 51 4.42 51 0 51 C0 34.17 0 17.34 0 0 Z " fill="#FFFFFF" transform="translate(634,375)"/>
<path d="M0 0 C4.29 0 8.58 0 13 0 C13 16.83 13 33.66 13 51 C8.71 51 4.42 51 0 51 C0 34.17 0 17.34 0 0 Z " fill="#FFFFFF" transform="translate(444,375)"/>
<path d="M0 0 C4.29 0 8.58 0 13 0 C13 16.83 13 33.66 13 51 C8.71 51 4.42 51 0 51 C0 34.17 0 17.34 0 0 Z " fill="#FFFFFF" transform="translate(167,375)"/>
<path d="M0 0 C2.31 0 4.62 0 7 0 C6.04559924 9.34094362 5.07748435 18.67959259 3.9375 28 C3.78152344 29.27875 3.62554687 30.5575 3.46484375 31.875 C3 35 3 35 2 38 C3.299375 38.0825 4.59875 38.165 5.9375 38.25 C13.6951416 39.12684489 21.28409964 42.62468437 27 48 C29.89393052 51.72443721 31.58289017 55.19115611 31 60 C30.443125 59.29875 29.88625 58.5975 29.3125 57.875 C28.549375 56.92625 27.78625 55.9775 27 55 C26.2575 53.989375 25.515 52.97875 24.75 51.9375 C18.23285009 44.18468253 7.38522171 42.97641997 -2.09375 42.1484375 C-2.7228125 42.09945312 -3.351875 42.05046875 -4 42 C-3.38321105 27.92019714 -1.70154225 13.98370001 0 0 Z " fill="#FFFFFF" transform="translate(335,77)"/>
<path d="M0 0 C1.98 0.33 3.96 0.66 6 1 C6.13497731 6.08992429 5.66297857 10.84485974 4.72265625 15.83203125 C4.59185165 16.54985275 4.46104706 17.26767426 4.32627869 18.00724792 C4.05093266 19.51114907 3.77261826 21.01450953 3.49145508 22.51733398 C3.06069754 24.82214423 2.63998775 27.12862476 2.22070312 29.43554688 C1.95110464 30.90114918 1.68094249 32.36664793 1.41015625 33.83203125 C1.28407486 34.52158401 1.15799347 35.21113678 1.02809143 35.92158508 C0.1161316 40.7677368 0.1161316 40.7677368 -1 43 C-1.7734375 42.855625 -2.546875 42.71125 -3.34375 42.5625 C-14.47856196 40.57807807 -23.37442151 39.87463981 -33.3125 46.0625 C-34.199375 46.701875 -35.08625 47.34125 -36 48 C-37.3191582 48.69429379 -38.64649406 49.37530495 -40 50 C-36.80836403 43.61672807 -33.82405278 40.33651596 -26.859375 37.90234375 C-22.46727579 36.87544606 -18.54507 36.77513126 -14.0625 36.875 C-13.28326172 36.88402344 -12.50402344 36.89304688 -11.70117188 36.90234375 C-9.80064553 36.92566309 -7.90027992 36.96152414 -6 37 C-5.85377197 35.98574951 -5.70754395 34.97149902 -5.55688477 33.92651367 C-5.01360275 30.1634124 -4.46669963 26.40084482 -3.91870117 22.63842773 C-3.68203517 21.00999042 -3.44635127 19.38141006 -3.21166992 17.75268555 C-2.87416584 15.41156318 -2.53313264 13.07097805 -2.19140625 10.73046875 C-2.03509483 9.63813179 -2.03509483 9.63813179 -1.87562561 8.52372742 C-1.44058403 5.56419636 -0.94837432 2.84512296 0 0 Z " fill="#FFFFFF" transform="translate(409,87)"/>
<path d="M0 0 C1.17046875 0.03609375 2.3409375 0.0721875 3.546875 0.109375 C4.43890625 0.15578125 5.3309375 0.2021875 6.25 0.25 C4.42780352 5.71658943 -0.82035794 8.62289883 -5.75 11.25 C-9.53397883 11.86902729 -12.96116864 11.77765156 -16.75 11.25 C-15.83552154 10.16481889 -14.91829593 9.08195262 -14 8 C-13.48953125 7.39671875 -12.9790625 6.7934375 -12.453125 6.171875 C-11.89109375 5.53765625 -11.3290625 4.9034375 -10.75 4.25 C-10.1621875 3.5178125 -9.574375 2.785625 -8.96875 2.03125 C-5.9090876 -0.42509869 -3.86619945 -0.15464798 0 0 Z " fill="#FFFFFF" transform="translate(692.75,360.75)"/>
<path d="M0 0 C5.28 0 10.56 0 16 0 C16 1.32 16 2.64 16 4 C10.72 4 5.44 4 0 4 C0 2.68 0 1.36 0 0 Z " fill="#FFFFFF" transform="translate(370,69)"/>
<path d="M0 0 C4.62 0 9.24 0 14 0 C14 0.66 14 1.32 14 2 C13.01 2 12.02 2 11 2 C11 2.66 11 3.32 11 4 C8.36 4 5.72 4 3 4 C3 3.34 3 2.68 3 2 C2.01 2 1.02 2 0 2 C0 1.34 0 0.68 0 0 Z " fill="#FFFFFF" transform="translate(371,74)"/>
<path d="M0 0 C1.65 0 3.3 0 5 0 C5 0.99 5 1.98 5 3 C3.35 3 1.7 3 0 3 C0 2.01 0 1.02 0 0 Z " fill="#FFFFFF" transform="translate(397,44)"/>
<path d="M0 0 C1.65 0 3.3 0 5 0 C5 0.99 5 1.98 5 3 C3.35 3 1.7 3 0 3 C0 2.01 0 1.02 0 0 Z " fill="#FFFFFF" transform="translate(354,44)"/>
<path d="M0 0 C1.98 0.99 1.98 0.99 4 2 C4 2.99 4 3.98 4 5 C2.68 4.34 1.36 3.68 0 3 C0 2.01 0 1.02 0 0 Z " fill="#FFFFFF" transform="translate(391,58)"/>
<path d="M0 0 C0.66 0 1.32 0 2 0 C1.6875 1.9375 1.6875 1.9375 1 4 C0.01 4.33 -0.98 4.66 -2 5 C-1.125 1.125 -1.125 1.125 0 0 Z " fill="#FFFFFF" transform="translate(363,58)"/>
<path d="M0 0 C0.66 0 1.32 0 2 0 C1.6875 1.9375 1.6875 1.9375 1 4 C0.01 4.33 -0.98 4.66 -2 5 C-1.125 1.125 -1.125 1.125 0 0 Z " fill="#FFFFFF" transform="translate(393,28)"/>
<path d="M0 0 C1.98 0.99 1.98 0.99 4 2 C4 2.99 4 3.98 4 5 C2.68 4.34 1.36 3.68 0 3 C0 2.01 0 1.02 0 0 Z " fill="#FFFFFF" transform="translate(361,28)"/>
<path d="M0 0 C0.66 0.33 1.32 0.66 2 1 C2.625 3.0625 2.625 3.0625 3 5 C2.01 5 1.02 5 0 5 C-0.5625 3.0625 -0.5625 3.0625 -1 1 C-0.67 0.67 -0.34 0.34 0 0 Z " fill="#FFFFFF" transform="translate(369,23)"/>
<path d="M0 0 C1.32 0 2.64 0 4 0 C4 0.66 4 1.32 4 2 C2.35 2.33 0.7 2.66 -1 3 C-0.67 2.01 -0.34 1.02 0 0 Z " fill="#FFFFFF" transform="translate(396,36)"/>
<path d="M0 0 C2.475 0.495 2.475 0.495 5 1 C5 1.66 5 2.32 5 3 C3.35 2.67 1.7 2.34 0 2 C0 1.34 0 0.68 0 0 Z " fill="#FFFFFF" transform="translate(356,36)"/>
<path d="M0 0 C2.475 0.495 2.475 0.495 5 1 C5 1.66 5 2.32 5 3 C3.35 2.67 1.7 2.34 0 2 C0 1.34 0 0.68 0 0 Z " fill="#FFFFFF" transform="translate(395,52)"/>
<path d="M0 0 C0 0.66 0 1.32 0 2 C-1.65 2.33 -3.3 2.66 -5 3 C-5 2.34 -5 1.68 -5 1 C-3 0 -3 0 0 0 Z " fill="#FFFFFF" transform="translate(361,52)"/>
<path d="M0 0 C0.66 0.33 1.32 0.66 2 1 C1.34 2.65 0.68 4.3 0 6 C-1.125 2.25 -1.125 2.25 0 0 Z " fill="#FFFFFF" transform="translate(386,23)"/>
<path d="M0 0 C0.66 0 1.32 0 2 0 C2 1.65 2 3.3 2 5 C1.34 5 0.68 5 0 5 C0 3.35 0 1.7 0 0 Z " fill="#FFFFFF" transform="translate(377,22)"/>
</svg>
