<?xml version="1.0" encoding="UTF-8"?>
<svg version="1.1" xmlns="http://www.w3.org/2000/svg" width="1140" height="211">
<path d="M0 0 C20.13 0 40.26 0 61 0 C61.02578125 7.35667969 61.0515625 14.71335938 61.078125 22.29296875 C61.1033125 26.9733414 61.12966021 31.65365064 61.16015625 36.33398438 C61.20837582 43.75122255 61.252464 51.16831384 61.27099609 58.58569336 C61.28621904 64.57053752 61.32076473 70.55499556 61.36830902 76.53966713 C61.38306476 78.81478824 61.39103765 81.08996449 61.39188385 83.36513329 C60.96701317 102.85043461 60.96701317 102.85043461 68.1875 120.5625 C75.45856652 126.86409099 82.85094252 127.79570286 92.24609375 127.37890625 C98.91759379 126.70550822 102.75833527 124.56881353 107.3125 119.75 C114.52080191 110.52415707 114.13208152 99.07237113 114.20532227 87.86865234 C114.21522186 86.91134216 114.22512146 85.95403198 114.23532104 84.9677124 C114.26661189 81.84047824 114.29156363 78.71322895 114.31640625 75.5859375 C114.33700386 73.40304191 114.35800102 71.22015005 114.37937927 69.03726196 C114.43431024 63.3196314 114.48384612 57.60196659 114.53222656 51.88427734 C114.5915362 45.009143 114.65760319 38.13407061 114.72252655 31.25898743 C114.82017095 20.83936311 114.90927644 10.41969722 115 0 C135.13 0 155.26 0 176 0 C176.12032643 26.73029315 176.12032643 26.73029315 176.14648438 38.22265625 C176.16434013 46.03017377 176.18534446 53.83758463 176.22631836 61.64501953 C176.25918254 67.94742112 176.27690951 74.24970813 176.28463173 80.55218887 C176.29012706 82.94324672 176.30085632 85.33429909 176.31719017 87.72530746 C176.49463573 114.8050121 174.08306525 140.03237765 154.8125 160.75 C133.92947828 180.52260376 105.49003184 182.7598465 78.24072266 182.13623047 C56.33542817 181.21539618 35.03666752 174.42737164 19 159 C10.92421641 149.82043284 3.91663692 137.23201987 2 125 C2.35104714 120.69967256 3.89566902 118.52975284 6.6875 115.3125 C21.5315365 97.24034861 26.5096979 74.99716376 24.5390625 51.9453125 C21.82484282 32.0803714 14.46443913 16.09355608 0 2 C0 1.34 0 0.68 0 0 Z " fill="#2C388D" transform="translate(181,16)"/>
<path d="M0 0 C12.37420721 11.65555997 20.05555392 28.02691988 20.61328125 45.046875 C20.63278062 47.0728266 20.63622357 49.09898566 20.625 51.125 C20.61936035 52.18686523 20.6137207 53.24873047 20.60791016 54.34277344 C20.33796262 71.7958168 14.86082465 86.82667535 2.3125 99.375 C-1.66363506 99.31938972 -3.34695816 98.67229054 -6.36328125 96.0390625 C-7.25727048 95.03932721 -8.13555551 94.02538926 -9 93 C-9.4751001 92.45980225 -9.9502002 91.91960449 -10.43969727 91.36303711 C-14.17216249 87.0858506 -17.74476402 82.67659733 -21.2734375 78.23046875 C-23.09745027 76.07293908 -24.91804718 74.09938066 -26.9140625 72.11328125 C-35.3924713 63.61634715 -35.3924713 63.61634715 -36.30859375 59.76171875 C-36.1875 57.4375 -36.1875 57.4375 -35.86328125 55.30859375 C-35.48584671 53.03812039 -35.48584671 53.03812039 -37.375 50 C-39.86102031 47.178031 -41.17288058 45.72102446 -44.6875 44.375 C-46.37638429 44.52699959 -48.06379346 44.69571942 -49.75 44.875 C-54.46472647 45.03385197 -56.81043715 43.95021238 -60.33618164 40.80224609 C-62.3822484 38.82142753 -64.3835228 36.80443705 -66.35205078 34.74658203 C-68.08191715 32.96991123 -69.92483613 31.35660325 -71.8125 29.75 C-74.74779276 27.20809699 -77.62888941 24.61419803 -80.5 22 C-83.96280082 18.87077173 -87.49429003 15.86999651 -91.125 12.9375 C-96.857843 8.30208695 -102.28112514 3.38400108 -107.6875 -1.625 C-107.6328125 -3.40625 -107.6328125 -3.40625 -106.6875 -5.625 C-104.29389113 -7.01365858 -102.1044338 -8.0866418 -99.5625 -9.125 C-98.84545898 -9.42688232 -98.12841797 -9.72876465 -97.38964844 -10.03979492 C-90.31232346 -12.93174704 -83.15456015 -14.96472629 -75.6875 -16.625 C-74.25083984 -16.96337891 -74.25083984 -16.96337891 -72.78515625 -17.30859375 C-47.38583819 -22.47395296 -20.12849934 -16.57025509 0 0 Z " fill="#2E3A8E" transform="translate(168.6875,26.625)"/>
<path d="M0 0 C3.74973906 -0.11622939 7.49901464 -0.1872595 11.25 -0.25 C12.31347656 -0.28351563 13.37695312 -0.31703125 14.47265625 -0.3515625 C15.49746094 -0.36445312 16.52226563 -0.37734375 17.578125 -0.390625 C18.99206543 -0.4220459 18.99206543 -0.4220459 20.43457031 -0.45410156 C24.47564902 0.26120167 26.12803257 2.84563 28.50463867 5.99194336 C28.9710376 6.68425049 29.43743652 7.37655762 29.91796875 8.08984375 C30.44608154 8.86859863 30.97419434 9.64735352 31.51831055 10.44970703 C32.06914307 11.27067871 32.61997559 12.09165039 33.1875 12.9375 C34.34359778 14.64203034 35.49984856 16.34645691 36.65625 18.05078125 C37.77101772 19.70039624 38.88561073 21.35012932 40 23 C41.72262076 25.54620528 43.45179785 28.08769913 45.1875 30.625 C45.88230469 31.64851563 46.57710937 32.67203125 47.29296875 33.7265625 C48.7999658 36.08611705 48.7999658 36.08611705 51 37 C51.23847656 36.30519531 51.47695313 35.61039063 51.72265625 34.89453125 C53.22472815 31.49075364 55.23648106 28.65904566 57.4375 25.6875 C58.33345047 24.45806425 59.22792192 23.22754963 60.12109375 21.99609375 C60.5888623 21.35140137 61.05663086 20.70670898 61.53857422 20.04248047 C64.57455014 15.79941756 67.49296409 11.47388223 70.41967773 7.1550293 C72.16184892 4.59884309 73.80705788 2.19294212 76 0 C78.32250977 -0.24291992 78.32250977 -0.24291992 81.19140625 -0.23046875 C82.21814453 -0.22853516 83.24488281 -0.22660156 84.30273438 -0.22460938 C85.37845703 -0.21236328 86.45417969 -0.20011719 87.5625 -0.1875 C88.64208984 -0.18685547 89.72167969 -0.18621094 90.83398438 -0.18554688 C98.85985402 -0.14014598 98.85985402 -0.14014598 100 1 C100.10046803 3.70300299 100.13616452 6.38048346 100.12939453 9.08398438 C100.13202301 10.35463493 100.13202301 10.35463493 100.13470459 11.6509552 C100.13912409 14.46524066 100.13618477 17.27946384 100.1328125 20.09375 C100.13348551 22.04048678 100.13445551 23.98722347 100.13571167 25.93395996 C100.13718878 30.01962075 100.13503368 34.10525971 100.13037109 38.19091797 C100.1246738 43.44046516 100.12795274 48.68996122 100.13394356 53.93950653 C100.13754883 57.96108387 100.13641074 61.98264899 100.13381577 66.00422668 C100.1331464 67.94041449 100.13397525 69.87660339 100.13629532 71.81278992 C100.13882129 74.51389524 100.13498205 77.21491659 100.12939453 79.91601562 C100.13141876 80.72436356 100.13344299 81.53271149 100.13552856 82.36555481 C100.11426248 87.88573752 100.11426248 87.88573752 99 89 C97.30441274 89.09932153 95.60474253 89.13080007 93.90625 89.1328125 C92.87628906 89.13410156 91.84632813 89.13539063 90.78515625 89.13671875 C89.15900391 89.13091797 89.15900391 89.13091797 87.5 89.125 C86.41589844 89.12886719 85.33179688 89.13273437 84.21484375 89.13671875 C82.66990234 89.13478516 82.66990234 89.13478516 81.09375 89.1328125 C80.14177734 89.13168457 79.18980469 89.13055664 78.20898438 89.12939453 C76 89 76 89 75 88 C74.91125865 84.89748799 74.88481545 81.8173188 74.90234375 78.71484375 C74.9037587 77.78402481 74.90517365 76.85320587 74.90663147 75.8941803 C74.91224828 72.90858809 74.9248036 69.92306971 74.9375 66.9375 C74.94251284 64.91862087 74.94707612 62.89974057 74.95117188 60.88085938 C74.96222317 55.92054428 74.97949905 50.96028468 75 46 C72.72544022 48.21645381 71.01064799 50.36164008 69.328125 53.0625 C68.83159424 53.85479004 68.33506348 54.64708008 67.82348633 55.46337891 C67.30423584 56.30046387 66.78498535 57.13754883 66.25 58 C65.17587121 59.71620214 64.10165283 61.43234821 63.02734375 63.1484375 C62.24979736 64.39512207 62.24979736 64.39512207 61.45654297 65.66699219 C59.58740267 68.66087497 57.70355858 71.64491184 55.8125 74.625 C55.28269531 75.46289062 54.75289062 76.30078125 54.20703125 77.1640625 C53 79 53 79 52 80 C49.65991211 80.37084961 49.65991211 80.37084961 47 80 C45.15063477 77.93969727 45.15063477 77.93969727 43.44140625 75.06640625 C42.49104492 73.5030957 42.49104492 73.5030957 41.52148438 71.90820312 C40.87501953 70.80412109 40.22855469 69.70003906 39.5625 68.5625 C38.27329422 66.41727192 36.98294549 64.27273027 35.69140625 62.12890625 C35.07410645 61.0939502 34.45680664 60.05899414 33.82080078 58.99267578 C31.33698507 54.91026588 28.70112581 50.94111078 26 47 C25.97494385 48.20124512 25.9498877 49.40249023 25.92407227 50.64013672 C25.83006856 55.08686429 25.72983083 59.53343307 25.62768555 63.97998047 C25.58430999 65.90637504 25.54263686 67.83280871 25.50268555 69.75927734 C25.44504638 72.52453408 25.38133384 75.2895935 25.31640625 78.0546875 C25.29133751 79.3516304 25.29133751 79.3516304 25.26576233 80.67477417 C25.11387171 86.77225659 25.11387171 86.77225659 24 89 C20.18751574 89.02887236 16.3750593 89.04675492 12.5625 89.0625 C11.47388672 89.07087891 10.38527344 89.07925781 9.26367188 89.08789062 C8.22919922 89.09111328 7.19472656 89.09433594 6.12890625 89.09765625 C5.17056885 89.10289307 4.21223145 89.10812988 3.22485352 89.11352539 C1 89 1 89 0 88 C-0.09516211 85.2611158 -0.12554594 82.54752059 -0.11352539 79.80834961 C-0.11367142 78.94988937 -0.11381744 78.09142914 -0.1139679 77.20695496 C-0.11326847 74.35539262 -0.1054747 71.50389475 -0.09765625 68.65234375 C-0.09579218 66.68079158 -0.09436822 64.70923895 -0.09336853 62.73768616 C-0.08954251 57.53773733 -0.07971152 52.33781625 -0.06866455 47.13787842 C-0.05845222 41.83606339 -0.05387129 36.5342439 -0.04882812 31.23242188 C-0.03808933 20.82160237 -0.02101191 10.41080349 0 0 Z " fill="#2E3B8F" transform="translate(569,108)"/>
<path d="M0 0 C0.89847656 -0.01611328 1.79695312 -0.03222656 2.72265625 -0.04882812 C11.31279485 -0.05517239 11.31279485 -0.05517239 15.125 3.3125 C17.12977839 5.72408355 18.87937613 8.27180982 20.625 10.875 C21.67860793 12.40699302 22.73333502 13.93821683 23.7890625 15.46875 C24.33336914 16.2628125 24.87767578 17.056875 25.43847656 17.875 C28.2348171 21.91649738 31.11664001 25.89534511 34 29.875 C34.52271484 30.59953369 35.04542969 31.32406738 35.58398438 32.07055664 C39.04501809 36.85813623 42.57500032 41.59061349 46.125 46.3125 C46.13086624 45.76570587 46.13673248 45.21891174 46.14277649 44.6555481 C46.20658104 38.97786481 46.29096575 33.30075521 46.38745117 27.62353516 C46.4207596 25.50316926 46.4487729 23.38271343 46.47143555 21.26220703 C46.50487303 18.21868465 46.55718253 15.17599088 46.61328125 12.1328125 C46.61967117 11.18068878 46.6260611 10.22856506 46.63264465 9.24758911 C46.65243881 8.36682709 46.67223297 7.48606506 46.69262695 6.57861328 C46.70373001 5.80139923 46.71483307 5.02418518 46.72627258 4.22341919 C47.125 2.3125 47.125 2.3125 50.125 0.3125 C52.26977539 0.06958008 52.26977539 0.06958008 54.72265625 0.08203125 C55.60630859 0.08396484 56.48996094 0.08589844 57.40039062 0.08789062 C58.78000977 0.10625977 58.78000977 0.10625977 60.1875 0.125 C61.11111328 0.12564453 62.03472656 0.12628906 62.98632812 0.12695312 C69.84407383 0.17203692 69.84407383 0.17203692 72.125 1.3125 C72.14812241 12.76900016 72.16591457 24.22549481 72.17681217 35.68201351 C72.18204122 41.00115213 72.18913927 46.32027484 72.20043945 51.6394043 C72.21126755 56.76813985 72.21727667 61.89686006 72.21987724 67.02560616 C72.22173163 68.98691614 72.22535251 70.94822524 72.23073006 72.90952873 C72.23793946 75.64665447 72.23899099 78.38371597 72.23852539 81.12084961 C72.24212067 81.94011932 72.24571594 82.75938904 72.24942017 83.60348511 C72.23905216 89.19844784 72.23905216 89.19844784 71.125 90.3125 C67.42846121 90.7330464 63.71689343 90.77754487 60 90.875 C58.96617187 90.93751953 57.93234375 91.00003906 56.8671875 91.06445312 C49.36600691 91.22232236 49.36600691 91.22232236 46.01904297 88.76855469 C44.18281529 86.71177873 42.64707019 84.61007269 41.125 82.3125 C40.64756348 81.66514893 40.17012695 81.01779785 39.67822266 80.35083008 C38.24429395 78.4057808 36.86895081 76.42872285 35.5 74.4375 C34.46694807 72.95647135 33.4330631 71.47602349 32.3984375 69.99609375 C31.60131348 68.85309814 31.60131348 68.85309814 30.78808594 67.68701172 C27.92863326 63.60435806 25.03180241 59.54902616 22.125 55.5 C21.58536621 54.74154785 21.04573242 53.9830957 20.48974609 53.20166016 C19.97750488 52.48929199 19.46526367 51.77692383 18.9375 51.04296875 C18.49019531 50.41801514 18.04289063 49.79306152 17.58203125 49.14916992 C15.90721038 47.03796392 14.05929251 45.18595756 12.125 43.3125 C12.12722061 43.88657089 12.12944122 44.46064178 12.13172913 45.05210876 C12.15378257 51.0050291 12.16890684 56.9579379 12.17993164 62.91088867 C12.18497317 65.13517732 12.19180623 67.35946263 12.20043945 69.58374023 C12.21251298 72.77328309 12.21822996 75.96278229 12.22265625 79.15234375 C12.22781754 80.15337631 12.23297882 81.15440887 12.23829651 82.18577576 C12.23840981 83.56709435 12.23840981 83.56709435 12.23852539 84.97631836 C12.240746 85.79128281 12.24296661 86.60624725 12.24525452 87.44590759 C12.125 89.3125 12.125 89.3125 11.125 90.3125 C9.41727642 90.39963831 7.70601351 90.41950007 5.99609375 90.41015625 C4.44438477 90.40532227 4.44438477 90.40532227 2.86132812 90.40039062 C1.77271484 90.39201172 0.68410156 90.38363281 -0.4375 90.375 C-2.0762207 90.36823242 -2.0762207 90.36823242 -3.74804688 90.36132812 C-6.45708495 90.34949826 -9.16601599 90.33301543 -11.875 90.3125 C-13.46260996 87.13728007 -13.03122179 83.71014838 -13.03613281 80.22265625 C-13.04109772 79.38676971 -13.04606262 78.55088318 -13.05117798 77.68966675 C-13.06581177 74.91810288 -13.07260263 72.14659619 -13.078125 69.375 C-13.08387421 67.45450844 -13.08963197 65.5340169 -13.09539795 63.61352539 C-13.10591055 59.58512097 -13.11175193 55.55673653 -13.11523438 51.52832031 C-13.12072824 46.35615249 -13.14477415 41.18424671 -13.17320633 36.01216125 C-13.1917887 32.04544287 -13.19703589 28.07878827 -13.19857025 24.11203003 C-13.20160587 22.20456505 -13.20966476 20.29710143 -13.22275543 18.38967896 C-13.23972886 15.72702803 -13.23795758 13.06502616 -13.23144531 10.40234375 C-13.2406601 9.60851288 -13.24987488 8.81468201 -13.2593689 7.99679565 C-13.24249268 5.80444336 -13.24249268 5.80444336 -12.875 2.3125 C-8.62694557 -0.51953629 -4.99388731 -0.0177592 0 0 Z " fill="#303C90" transform="translate(730.875,106.6875)"/>
<path d="M0 0 C0.85199478 0.00404846 1.70398956 0.00809692 2.58180237 0.01226807 C3.46292191 0.01035461 4.34404144 0.00844116 5.25186157 0.00646973 C7.12397038 0.00510623 8.99608858 0.00881409 10.86817932 0.01715088 C13.69937685 0.0277339 16.52992306 0.01732118 19.36109924 0.00445557 C47.29070672 -0.01826601 47.29070672 -0.01826601 57.55445862 9.52789307 C64.99419523 17.42624358 66.27819271 25.896803 66.08961487 36.43804932 C65.45357592 45.00279295 61.5870273 53.01112921 55.05445862 58.65289307 C54.31195862 59.18914307 53.56945862 59.72539307 52.80445862 60.27789307 C54.53822911 64.3502377 57.30791195 67.60763062 60.05445862 71.02789307 C61.04570296 72.28021322 62.03659068 73.53281573 63.02711487 74.78570557 C64.6319604 76.80734483 66.24345854 78.82268614 67.86305237 80.83258057 C68.40059143 81.51578369 68.93813049 82.19898682 69.49195862 82.90289307 C69.94957581 83.47265869 70.40719299 84.04242432 70.87867737 84.62945557 C71.80445862 86.27789307 71.80445862 86.27789307 71.80445862 90.27789307 C67.24229397 90.42321341 62.680725 90.51197784 58.11695862 90.59039307 C56.8233844 90.6322876 55.52981018 90.67418213 54.19703674 90.71734619 C52.32628479 90.74151611 52.32628479 90.74151611 50.41773987 90.76617432 C49.27087708 90.7923584 48.12401428 90.81854248 46.94239807 90.84552002 C41.98851629 89.94940432 39.98045526 86.83880029 37.0627594 82.96612549 C36.54697327 82.19631348 36.03118713 81.42650146 35.49977112 80.63336182 C34.62385315 79.37169189 34.62385315 79.37169189 33.73023987 78.08453369 C32.52306774 76.32876598 31.3304397 74.56291512 30.15211487 72.78765869 C28.48007613 70.40821895 26.92434929 68.27022421 24.80445862 66.27789307 C20.99955787 65.50630516 20.99955787 65.50630516 17.80445862 66.27789307 C17.77940247 66.96939453 17.75434631 67.660896 17.72853088 68.37335205 C17.612937 71.48757173 17.4900462 74.60146096 17.36695862 77.71539307 C17.32764221 78.80400635 17.28832581 79.89261963 17.24781799 81.01422119 C17.20592346 82.04869385 17.16402893 83.0831665 17.12086487 84.14898682 C17.08420715 85.10732422 17.04754944 86.06566162 17.00978088 87.05303955 C16.80445862 89.27789307 16.80445862 89.27789307 15.80445862 90.27789307 C14.10887136 90.3772146 12.40920115 90.40869313 10.71070862 90.41070557 C9.68074768 90.41199463 8.65078674 90.41328369 7.58961487 90.41461182 C5.96346252 90.40881104 5.96346252 90.40881104 4.30445862 90.40289307 C3.22035706 90.40676025 2.13625549 90.41062744 1.01930237 90.41461182 C-0.01065857 90.41332275 -1.04061951 90.41203369 -2.10179138 90.41070557 C-3.05376404 90.40957764 -4.00573669 90.40844971 -4.98655701 90.4072876 C-7.19554138 90.27789307 -7.19554138 90.27789307 -8.19554138 89.27789307 C-8.30133129 86.58026845 -8.34232077 83.90811186 -8.34080505 81.20977783 C-8.34416367 80.36428375 -8.34752228 79.51878967 -8.35098267 78.64767456 C-8.3605222 75.83820141 -8.36243727 73.02878767 -8.36351013 70.21929932 C-8.3667206 68.27495804 -8.37008451 66.330617 -8.37359619 64.38627625 C-8.37959497 60.30481404 -8.38143532 56.22337304 -8.38084412 52.14190674 C-8.38074245 46.90138798 -8.3943964 41.66100457 -8.41161633 36.42051792 C-8.42271239 32.40318675 -8.42476406 28.38588855 -8.42423439 24.36854362 C-8.42541806 22.43596874 -8.42986135 20.50339309 -8.43756676 18.57083321 C-8.44731863 15.87225886 -8.44450776 13.17398154 -8.4384613 10.47540283 C-8.44408081 9.67065018 -8.44970032 8.86589752 -8.45549011 8.03675842 C-8.41491957 0.94368329 -7.00660185 0.05625591 0 0 Z M16.80445862 25.27789307 C16.7047083 27.78925411 16.66563679 30.26692721 16.67945862 32.77789307 C16.67559143 33.48043213 16.67172424 34.18297119 16.66773987 34.90679932 C16.36054931 38.38218115 16.36054931 38.38218115 17.80445862 41.27789307 C20.75649468 41.45850911 23.66278825 41.55606886 26.61695862 41.59039307 C27.84769104 41.63389893 27.84769104 41.63389893 29.10328674 41.67828369 C34.04092962 41.75246326 34.04092962 41.75246326 38.31227112 39.46929932 C40.47725828 36.28982864 40.8707073 34.12031643 40.80445862 30.27789307 C39.18010573 27.57942447 38.26654357 26.08207139 35.80445862 24.27789307 C32.68567027 23.53391497 29.74036206 23.66086994 26.55445862 23.84039307 C25.72688049 23.85908447 24.89930237 23.87777588 24.04664612 23.89703369 C20.10688784 23.67039607 20.10688784 23.67039607 16.80445862 25.27789307 Z " fill="#313E90" transform="translate(402.19554138183594,106.72210693359375)"/>
<path d="M0 0 C0.88365234 0.00193359 1.76730469 0.00386719 2.67773438 0.00585938 C3.59748047 0.01810547 4.51722656 0.03035156 5.46484375 0.04296875 C6.38845703 0.04361328 7.31207031 0.04425781 8.26367188 0.04492188 C15.12141758 0.09000567 15.12141758 0.09000567 17.40234375 1.23046875 C17.4273999 2.15907715 17.45245605 3.08768555 17.47827148 4.04443359 C17.57332307 7.48482679 17.67256082 10.92504588 17.7746582 14.36523438 C17.81800964 15.85509516 17.85968459 17.3450057 17.8996582 18.83496094 C17.9573559 20.97476202 18.0210513 23.1143126 18.0859375 25.25390625 C18.12259521 26.54216309 18.15925293 27.83041992 18.19702148 29.15771484 C18.1976505 32.14323695 18.1976505 32.14323695 19.40234375 34.23046875 C28.31234375 34.23046875 37.22234375 34.23046875 46.40234375 34.23046875 C46.43972656 32.02746094 46.47710938 29.82445312 46.515625 27.5546875 C46.56184355 25.41990254 46.6130757 23.2852927 46.66479492 21.15063477 C46.69803798 19.66767021 46.72607198 18.18457931 46.7487793 16.70141602 C46.78233843 14.56862582 46.83465013 12.43699263 46.890625 10.3046875 C46.91680908 9.02166748 46.94299316 7.73864746 46.9699707 6.41674805 C47.40234375 3.23046875 47.40234375 3.23046875 48.64916992 1.31103516 C50.89101321 -0.07072204 52.33775007 -0.14256395 54.96484375 -0.1328125 C55.84398437 -0.13216797 56.723125 -0.13152344 57.62890625 -0.13085938 C58.54414062 -0.11474609 59.459375 -0.09863281 60.40234375 -0.08203125 C61.77519531 -0.08686523 61.77519531 -0.08686523 63.17578125 -0.09179688 C70.00151467 -0.03675064 70.00151467 -0.03675064 73.40234375 2.23046875 C73.69922216 5.00070448 73.80135457 7.54779439 73.7746582 10.3203125 C73.77830887 11.15619904 73.78195953 11.99208557 73.78572083 12.853302 C73.79384776 15.62506224 73.78019862 18.39624178 73.765625 21.16796875 C73.76510665 23.08846028 73.76562338 25.00895235 73.76713562 26.92944336 C73.7670458 30.95792543 73.7565966 34.98620778 73.73852539 39.01464844 C73.7158379 44.18678678 73.71529308 49.35863309 73.72204304 54.5308075 C73.7253794 58.49754446 73.71875922 62.46421445 73.7089138 66.43093872 C73.70505576 68.33838552 73.70391608 70.24583975 73.70549965 72.15328979 C73.70586918 74.81588009 73.69328171 77.47809145 73.67700195 80.140625 C73.67947937 80.93445587 73.68195679 81.72828674 73.68450928 82.5461731 C73.6310845 88.001728 73.6310845 88.001728 71.40234375 90.23046875 C69.1875 90.48925781 69.1875 90.48925781 66.46484375 90.49609375 C65.48773437 90.49867188 64.510625 90.50125 63.50390625 90.50390625 C62.48039063 90.49617188 61.456875 90.4884375 60.40234375 90.48046875 C59.37882813 90.48820312 58.3553125 90.4959375 57.30078125 90.50390625 C56.32367187 90.50132812 55.3465625 90.49875 54.33984375 90.49609375 C53.44136719 90.49383789 52.54289063 90.49158203 51.6171875 90.48925781 C49.40234375 90.23046875 49.40234375 90.23046875 47.40234375 88.23046875 C47.08349609 85.34130859 47.08349609 85.34130859 46.98828125 81.69140625 C46.93027344 79.73847656 46.93027344 79.73847656 46.87109375 77.74609375 C46.83963612 76.36589013 46.80838884 74.98568171 46.77734375 73.60546875 C46.73916441 72.21742334 46.7001127 70.82940164 46.66015625 69.44140625 C46.56561687 66.03798848 46.48288146 62.63424663 46.40234375 59.23046875 C37.49234375 59.23046875 28.58234375 59.23046875 19.40234375 59.23046875 C18.00915633 62.01684359 18.20266671 64.40218486 18.12109375 67.515625 C18.08371094 68.76794922 18.04632812 70.02027344 18.0078125 71.31054688 C17.93739662 73.96939831 17.86708442 76.62825248 17.796875 79.28710938 C17.75949219 80.53814453 17.72210937 81.78917969 17.68359375 83.078125 C17.6381543 84.81074585 17.6381543 84.81074585 17.59179688 86.57836914 C17.40234375 89.23046875 17.40234375 89.23046875 16.40234375 90.23046875 C14.69462017 90.31760706 12.98335726 90.33746882 11.2734375 90.328125 C9.72172852 90.32329102 9.72172852 90.32329102 8.13867188 90.31835938 C7.05005859 90.30998047 5.96144531 90.30160156 4.83984375 90.29296875 C3.20112305 90.28620117 3.20112305 90.28620117 1.52929688 90.27929688 C-1.1797412 90.26746701 -3.88867224 90.25098418 -6.59765625 90.23046875 C-8.18526621 87.05524882 -7.75387804 83.62811713 -7.75878906 80.140625 C-7.76375397 79.30473846 -7.76871887 78.46885193 -7.77383423 77.6076355 C-7.78846802 74.83607163 -7.79525888 72.06456494 -7.80078125 69.29296875 C-7.80653046 67.37247719 -7.81228822 65.45198565 -7.8180542 63.53149414 C-7.8285668 59.50308972 -7.83440818 55.47470528 -7.83789062 51.44628906 C-7.84338449 46.27412124 -7.8674304 41.10221546 -7.89586258 35.93013 C-7.91444495 31.96341162 -7.91969214 27.99675702 -7.9212265 24.02999878 C-7.92426212 22.1225338 -7.93232101 20.21507018 -7.94541168 18.30764771 C-7.96238511 15.64499678 -7.96061383 12.98299491 -7.95410156 10.3203125 C-7.96331635 9.52648163 -7.97253113 8.73265076 -7.98202515 7.9147644 C-7.96514893 5.72241211 -7.96514893 5.72241211 -7.59765625 2.23046875 C-4.42094629 0.11266211 -3.63518307 -0.01845271 0 0 Z " fill="#323F91" transform="translate(924.59765625,106.76953125)"/>
<path d="M0 0 C1.59424805 -0.04930664 1.59424805 -0.04930664 3.22070312 -0.09960938 C4.23970703 -0.10669922 5.25871094 -0.11378906 6.30859375 -0.12109375 C7.71129517 -0.14127563 7.71129517 -0.14127563 9.14233398 -0.16186523 C11.5625 0.4375 11.5625 0.4375 13.22998047 2.62670898 C13.66971191 3.55427002 14.10944336 4.48183105 14.5625 5.4375 C14.98490967 6.30955078 15.40731934 7.18160156 15.8425293 8.08007812 C16.26961182 9.03333984 16.69669434 9.98660156 17.13671875 10.96875 C17.63171875 12.07162354 18.12671875 13.17449707 18.63671875 14.31079102 C19.16910156 15.50760498 19.70148438 16.70441895 20.25 17.9375 C20.66427246 18.86524734 20.66427246 18.86524734 21.08691406 19.81173706 C26.15978163 31.17248602 31.12408814 42.58027255 36.0625 54 C36.40107025 54.7827832 36.7396405 55.56556641 37.08847046 56.37207031 C38.97723203 60.74238249 40.8559326 65.11683329 42.7265625 69.49493408 C43.52041495 71.33970204 44.33008912 73.17763784 45.140625 75.01513672 C45.59953125 76.07104004 46.0584375 77.12694336 46.53125 78.21484375 C46.92763672 79.11323975 47.32402344 80.01163574 47.73242188 80.93725586 C48.61897095 83.60759383 48.7992745 85.64288963 48.5625 88.4375 C45.88344224 91.11655776 38.34741752 89.81959633 34.75 89.875 C33.54794922 89.92076172 32.34589844 89.96652344 31.10742188 90.01367188 C27.82058219 90.05583435 24.79732543 90.02651247 21.5625 89.4375 C18.71527114 86.49348149 17.91813416 84.37888454 16.5 80.625 C16.190625 79.903125 15.88125 79.18125 15.5625 78.4375 C10.40349981 76.71783327 4.96283356 77.2106774 -0.4375 77.1875 C-1.63890625 77.166875 -2.8403125 77.14625 -4.078125 77.125 C-5.22796875 77.11984375 -6.3778125 77.1146875 -7.5625 77.109375 C-8.61695313 77.1000293 -9.67140625 77.09068359 -10.7578125 77.08105469 C-13.4575375 77.21139004 -13.4575375 77.21139004 -15.23608398 78.83251953 C-16.60585877 80.66241172 -17.552439 82.48323658 -18.5 84.5625 C-20.21685943 88.32717972 -20.21685943 88.32717972 -22.4375 89.4375 C-24.3968604 89.52260205 -26.35912794 89.54467656 -28.3203125 89.53515625 C-29.48691406 89.53193359 -30.65351562 89.52871094 -31.85546875 89.52539062 C-33.07878906 89.51701172 -34.30210937 89.50863281 -35.5625 89.5 C-36.79355469 89.49548828 -38.02460937 89.49097656 -39.29296875 89.48632812 C-42.34119392 89.4745133 -45.38932314 89.45804028 -48.4375 89.4375 C-49.77773263 85.00403276 -49.05373545 82.73126234 -47.11328125 78.58984375 C-46.58524902 77.44161133 -46.0572168 76.29337891 -45.51318359 75.11035156 C-45.22626648 74.50259888 -44.93934937 73.89484619 -44.64373779 73.26867676 C-43.42420953 70.684706 -42.23441743 68.08741875 -41.04315186 65.49032593 C-40.42482378 64.14252461 -39.80505554 62.79538313 -39.18389893 61.44888306 C-36.0989923 54.74859645 -33.19432634 47.97768092 -30.3125 41.1875 C-26.34384482 31.88207399 -22.35848769 22.584611 -18.3125 13.3125 C-17.85085449 12.24483398 -17.38920898 11.17716797 -16.91357422 10.07714844 C-16.4857666 9.10036133 -16.05795898 8.12357422 -15.6171875 7.1171875 C-15.24319824 6.25851074 -14.86920898 5.39983398 -14.48388672 4.51513672 C-11.48524379 -1.43877167 -5.89601049 0.0320629 0 0 Z M-0.4375 38.4375 C-3.15720716 43.68934831 -5.44845551 48.86817543 -7.4375 54.4375 C-6.32623341 55.77651792 -6.32623341 55.77651792 -3.49609375 55.53515625 C-2.30113281 55.52355469 -1.10617187 55.51195312 0.125 55.5 C1.32253906 55.49097656 2.52007813 55.48195313 3.75390625 55.47265625 C5.14416016 55.45525391 5.14416016 55.45525391 6.5625 55.4375 C5.90746718 51.37930817 4.61690879 47.89778718 3 44.125 C2.54496094 43.05636719 2.08992187 41.98773438 1.62109375 40.88671875 C1.09708984 39.67435547 1.09708984 39.67435547 0.5625 38.4375 C0.2325 38.4375 -0.0975 38.4375 -0.4375 38.4375 Z " fill="#2F3C8F" transform="translate(860.4375,107.5625)"/>
<path d="M0 0 C3.97915159 -0.02886984 7.95827653 -0.04675406 11.9375 -0.0625 C13.07380859 -0.07087891 14.21011719 -0.07925781 15.38085938 -0.08789062 C16.46044922 -0.09111328 17.54003906 -0.09433594 18.65234375 -0.09765625 C20.15269165 -0.10551147 20.15269165 -0.10551147 21.68334961 -0.11352539 C24 0 24 0 25 1 C25.1022183 2.71725553 25.13570351 4.43865144 25.1418457 6.15893555 C25.14888016 7.26065598 25.15591461 8.3623764 25.16316223 9.4974823 C25.16732651 10.69843033 25.17149078 11.89937836 25.17578125 13.13671875 C25.19898501 15.65821142 25.22310257 18.17969582 25.24804688 20.70117188 C25.28314769 24.69309156 25.31248976 28.6844579 25.32592773 32.67651367 C25.34140428 36.51779293 25.38162412 40.35817611 25.42578125 44.19921875 C25.42387283 45.39004562 25.42196442 46.5808725 25.41999817 47.80778503 C25.51354843 54.14706507 25.66324693 58.21672012 30 63 C33.68541268 66.15892516 37.0804933 66.53946701 41.78515625 66.3359375 C45.48274472 65.77510397 47.33264132 64.60385014 50 62 C53.43114016 55.17113628 53.46874421 48.01171973 53.51171875 40.52734375 C53.52966995 39.3636879 53.54762115 38.20003204 53.56611633 37.00111389 C53.61995617 33.31327858 53.65403119 29.62557076 53.6875 25.9375 C53.72069622 23.42511257 53.75518799 20.91274191 53.79101562 18.40039062 C53.87566752 12.26704147 53.94412814 6.13367526 54 0 C57.97915159 -0.02886984 61.95827653 -0.04675406 65.9375 -0.0625 C67.07380859 -0.07087891 68.21011719 -0.07925781 69.38085938 -0.08789062 C70.46044922 -0.09111328 71.54003906 -0.09433594 72.65234375 -0.09765625 C74.15269165 -0.10551147 74.15269165 -0.10551147 75.68334961 -0.11352539 C78 0 78 0 79 1 C79.10414495 2.73192237 79.13853727 4.46808725 79.14526367 6.203125 C79.15164352 7.31518311 79.15802338 8.42724121 79.16459656 9.57299805 C79.16570938 10.78640869 79.1668222 11.99981934 79.16796875 13.25 C79.17296135 15.11362183 79.17296135 15.11362183 79.17805481 17.01489258 C79.18313208 19.65465857 79.18589394 22.29432176 79.18530273 24.93408203 C79.18522178 27.63043979 79.1921078 30.32662658 79.20581055 33.02294922 C79.22420763 36.91118545 79.22904347 40.79922447 79.23046875 44.6875 C79.23765427 45.8847168 79.24483978 47.08193359 79.25224304 48.31542969 C79.21884035 60.66272766 77.19793289 71.04303248 68.69140625 80.40234375 C60.53172567 88.10975566 50.58671211 90.5635772 39.625 90.4375 C38.70178955 90.42992676 37.7785791 90.42235352 36.82739258 90.41455078 C24.47058628 90.11600877 15.84261098 85.97539759 7.25 77.1875 C2.36257923 70.26365391 -0.13099755 63.40281619 -0.11352539 54.94628906 C-0.11344986 53.72532532 -0.11337433 52.50436157 -0.11329651 51.24639893 C-0.10813522 49.93274353 -0.10297394 48.61908813 -0.09765625 47.265625 C-0.09579021 45.9037074 -0.09436718 44.54178912 -0.09336853 43.17987061 C-0.08955803 39.60258111 -0.07974032 36.02533248 -0.06866455 32.44805908 C-0.05841884 28.79480543 -0.05386415 25.14154514 -0.04882812 21.48828125 C-0.03811669 14.32550224 -0.02105794 7.16275686 0 0 Z " fill="#2F3C8F" transform="translate(478,108)"/>
<path d="M0 0 C1.00023193 0.00523682 2.00046387 0.01047363 3.03100586 0.01586914 C4.1105957 0.0190918 5.19018555 0.02231445 6.30249023 0.02563477 C8.00695312 0.03820312 8.00695312 0.03820312 9.74584961 0.05102539 C11.45611328 0.05779297 11.45611328 0.05779297 13.20092773 0.06469727 C16.02845312 0.07652792 18.85587601 0.09301129 21.68334961 0.11352539 C21.69547989 1.06406799 21.69547989 1.06406799 21.70785522 2.03381348 C21.79417801 8.65302978 21.89369274 15.27195613 22.00073242 21.89086914 C22.03892143 24.35826737 22.07379157 26.82571935 22.10522461 29.29321289 C22.15109406 32.8480953 22.20905289 36.40261084 22.26928711 39.95727539 C22.28083832 41.05342163 22.29238953 42.14956787 22.30429077 43.27893066 C22.38569691 53.91050946 22.38569691 53.91050946 27.18334961 63.05102539 C31.57909457 66.67751498 35.14173042 66.61730895 40.68334961 66.11352539 C44.3570944 64.88894379 46.0873231 63.95859375 48.31762695 60.79638672 C50.34343166 55.33352222 50.14411639 50.09532061 50.15991211 44.31274414 C50.17549164 43.08062698 50.19107117 41.84850983 50.2071228 40.57905579 C50.25457721 36.65305174 50.28239762 32.72722548 50.30834961 28.80102539 C50.342976 24.85709105 50.38533334 20.91325885 50.43099976 16.96943665 C50.45831055 14.5166876 50.47962488 12.06386345 50.49453735 9.61100769 C50.50993057 7.95842705 50.50993057 7.95842705 50.52563477 6.27246094 C50.53213043 5.29794479 50.5386261 4.32342865 50.5453186 3.31938171 C50.68334961 1.11352539 50.68334961 1.11352539 51.68334961 0.11352539 C53.46406207 0.02626316 55.24818101 0.00653498 57.03100586 0.01586914 C58.1105957 0.0190918 59.19018555 0.02231445 60.30249023 0.02563477 C62.00695313 0.03820312 62.00695313 0.03820312 63.74584961 0.05102539 C65.45611328 0.05779297 65.45611328 0.05779297 67.20092773 0.06469727 C70.02845312 0.07652792 72.85587601 0.09301129 75.68334961 0.11352539 C75.77654989 8.00728305 75.84736532 15.90080597 75.8905983 23.79498005 C75.9113613 27.46166406 75.93946805 31.12796815 75.98510742 34.79443359 C76.02897401 38.34119011 76.05257129 41.88758417 76.06285858 45.43459129 C76.07370882 47.42797693 76.10486784 49.42121932 76.13653564 51.41438293 C76.13942732 63.28697126 73.64036062 72.22204045 65.32788086 80.87915039 C53.55715781 90.82428124 40.33774827 91.1472741 25.68334961 90.11352539 C16.95244628 88.50136749 9.3651144 83.83456296 3.89819336 76.82446289 C-2.6124189 66.74661099 -3.76734396 56.38819173 -3.64477539 44.60571289 C-3.64290222 43.35847443 -3.64102905 42.11123596 -3.63909912 40.82620239 C-3.63241896 38.21263929 -3.61858594 35.59908549 -3.59790039 32.9855957 C-3.57167084 29.63067242 -3.55865492 26.27633341 -3.55421829 22.92135429 C-3.54908263 19.71194357 -3.53455613 16.50259173 -3.51977539 13.29321289 C-3.51552551 12.08607635 -3.51127563 10.87893982 -3.50689697 9.63522339 C-3.49728943 8.52962067 -3.48768188 7.42401794 -3.4777832 6.28491211 C-3.4709552 5.3077121 -3.4641272 4.33051208 -3.45709229 3.32369995 C-3.26317518 0.27197065 -3.06055829 0.14997994 0 0 Z " fill="#2F3C8F" transform="translate(1009.316650390625,107.886474609375)"/>
<path d="M0 0 C3.17937133 0.13573671 4.62739876 0.65184377 6.96484375 2.8359375 C7.94130859 4.09277344 7.94130859 4.09277344 8.9375 5.375 C10.10925781 6.87546875 10.10925781 6.87546875 11.3046875 8.40625 C15.03174048 13.34578528 18.700614 18.32902637 22.35327148 23.32373047 C26.8285664 29.4401848 31.39172341 35.48325244 36 41.5 C42.40041362 49.86471316 48.70522543 58.29287875 54.9140625 66.80078125 C56.79012131 69.36956527 58.69104081 71.91066546 60.6484375 74.41796875 C61.38320312 75.37316406 62.11796875 76.32835937 62.875 77.3125 C63.49117188 78.09238281 64.10734375 78.87226563 64.7421875 79.67578125 C66.33442815 82.61796505 66.30689681 84.70318426 66 88 C65 89 65 89 62.18431091 89.12025452 C60.29568077 89.1169236 60.29568077 89.1169236 58.36889648 89.11352539 C57.67624695 89.11367142 56.98359741 89.11381744 56.2699585 89.1139679 C53.97030554 89.11326874 51.67073263 89.10547628 49.37109375 89.09765625 C47.78068588 89.09579208 46.19027743 89.09436817 44.59986877 89.09336853 C40.4060407 89.08954329 36.21224705 89.07971295 32.01843262 89.06866455 C27.74211086 89.05845057 23.46578356 89.05387094 19.18945312 89.04882812 C10.79295292 89.03809069 2.39648074 89.02101419 -6 89 C-10.54658583 80.21261529 -14.07860191 71.08034564 -17.67480469 61.87231445 C-18.47819849 59.82411784 -19.28914219 57.77886738 -20.10742188 55.73657227 C-21.29399251 52.77465464 -22.45798239 49.80474815 -23.6171875 46.83203125 C-23.9868161 45.92048782 -24.3564447 45.0089444 -24.73727417 44.06977844 C-27.16289188 37.74116742 -27.16289188 37.74116742 -26.36352539 34.10400391 C-25.91356201 33.40968262 -25.46359863 32.71536133 -25 32 C-24.6191626 31.40131104 -24.2383252 30.80262207 -23.84594727 30.18579102 C-23.42369873 29.63076904 -23.0014502 29.07574707 -22.56640625 28.50390625 C-22.0873584 27.8692041 -21.60831055 27.23450195 -21.11474609 26.58056641 C-20.60250488 25.91460449 -20.09026367 25.24864258 -19.5625 24.5625 C-19.03479004 23.86817871 -18.50708008 23.17385742 -17.96337891 22.45849609 C-3.53688904 3.53688904 -3.53688904 3.53688904 0 0 Z " fill="#2D3A8E" transform="translate(132,108)"/>
<path d="M0 0 C1.32 0.66 2.64 1.32 4 2 C4 6 4 6 1.98828125 8.40234375 C0.66376953 9.65724609 0.66376953 9.65724609 -0.6875 10.9375 C-1.55761719 11.77152344 -2.42773438 12.60554688 -3.32421875 13.46484375 C-4.64873047 14.71974609 -4.64873047 14.71974609 -6 16 C-7.67127069 17.66204989 -9.33932848 19.32735968 -11 21 C-7.07870131 21.35977741 -7.07870131 21.35977741 -4.5625 19.4375 C-2 18 -2 18 0.421875 18.18359375 C3.45964771 19.14555511 4.67187189 20.29058871 6.8125 22.625 C9.98250214 26.0450876 13.35418178 29.08705652 16.87475586 32.13525391 C20.28815889 35.13026509 23.57662432 38.25454332 26.875 41.375 C32.03596428 46.23619178 37.23046221 51.04746458 42.51953125 55.76953125 C46.05157324 58.9455879 49.53554054 62.17271595 53.02172852 65.39892578 C57.84291247 69.85989404 62.68797013 74.29424619 67.5390625 78.72265625 C68.35117188 79.47417969 69.16328125 80.22570312 70 81 C70.60585937 81.55558594 71.21171875 82.11117187 71.8359375 82.68359375 C73 84 73 84 73 86 C52.44547173 96.88498672 31.45881099 103.44921127 8 103 C7.69449219 101.84242187 7.38898438 100.68484375 7.07421875 99.4921875 C4.67343954 90.60165923 4.67343954 90.60165923 -0.84765625 83.53515625 C-3.53308589 82.11794241 -6.11498712 80.9394259 -9 80 C-9 78.02 -9 76.04 -9 74 C-7.4375 72.8125 -7.4375 72.8125 -5 72 C-3.989375 72.495 -2.97875 72.99 -1.9375 73.5 C3.17913995 75.93907625 7.72268928 74.36252985 13 73 C14.75183594 72.55720703 14.75183594 72.55720703 16.5390625 72.10546875 C23.11822019 70.33740817 29.05328969 68.33015777 35 65 C34.59610365 60.57785277 31.58508434 58.4277163 28.4375 55.6875 C27.89174316 55.20039551 27.34598633 54.71329102 26.78369141 54.21142578 C25.19674856 52.79867672 23.60023325 51.39765886 22 50 C21.26652344 49.35417969 20.53304687 48.70835938 19.77734375 48.04296875 C18.52274388 46.9429397 17.26499079 45.84649516 16.00390625 44.75390625 C12.76219131 41.91661579 9.58142572 39.01186217 6.39453125 36.11328125 C5.60433594 35.41589844 4.81414063 34.71851563 4 34 C3.14148438 33.23816406 2.28296875 32.47632813 1.3984375 31.69140625 C0.60695313 31.13324219 -0.18453125 30.57507813 -1 30 C-4.57195286 30.70038291 -6.42284442 31.42284442 -9 34 C-12.1100135 33.82750333 -13.61340719 33.34553185 -15.94921875 31.2578125 C-16.52285156 30.55398437 -17.09648438 29.85015625 -17.6875 29.125 C-18.26886719 28.42632812 -18.85023437 27.72765625 -19.44921875 27.0078125 C-22.47960384 23.08434162 -23.53074418 20.98899526 -23 16 C-20 14 -20 14 -17.625 14.171875 C-13.77904766 13.92005669 -12.56962897 12.02841133 -10 9.25 C-6.83024874 5.86232834 -3.68959147 2.81990205 0 0 Z " fill="#3A4695" transform="translate(57,15)"/>
<path d="M0 0 C4.74042614 0.42399706 8.24225146 1.87622211 12.375 4.1875 C13.43460938 4.75855469 14.49421875 5.32960938 15.5859375 5.91796875 C18 8 18 8 18.3515625 11.23828125 C18.23554687 12.14964844 18.11953125 13.06101562 18 14 C17.21625 13.67 16.4325 13.34 15.625 13 C11.00638131 11.72589829 6.75750644 11.83076064 2 12 C2.495 12.78375 2.99 13.5675 3.5 14.375 C5 17 5 17 5 19 C5.87978516 19.433125 5.87978516 19.433125 6.77734375 19.875 C8.11827276 20.55371275 9.44829888 21.25560025 10.75390625 22 C22.03851536 28.2394383 35.11036853 27.34950027 47.625 27.5 C57.65039632 27.62205483 67.61387218 27.78450866 77.5859375 28.90625 C78.29303864 28.98282837 79.00013977 29.05940674 79.72866821 29.13830566 C83.18731613 29.56970852 85.0416278 30.02775187 88 32 C87.390837 35.84310187 85.6055444 38.13990697 83.25 41.1875 C82.85586914 41.70159424 82.46173828 42.21568848 82.05566406 42.74536133 C81.18169418 43.88436844 80.30491802 45.02122616 79.42578125 46.15625 C77.93213337 48.08776178 76.44929296 50.0271772 74.96875 51.96875 C72.79287739 54.82195393 70.61301661 57.67202922 68.4296875 60.51953125 C66.07308624 63.59450923 63.72512571 66.67584408 61.3828125 69.76171875 C60.79532227 70.53427002 60.20783203 71.30682129 59.60253906 72.1027832 C58.47512704 73.58565824 57.34939678 75.06981384 56.22558594 76.55541992 C55.46036621 77.56052612 55.46036621 77.56052612 54.6796875 78.5859375 C54.23351074 79.1742334 53.78733398 79.7625293 53.32763672 80.36865234 C49.64415858 84.89476505 49.64415858 84.89476505 46.9152832 85.34057617 C46.13499756 85.32486572 45.35471191 85.30915527 44.55078125 85.29296875 C43.70322266 85.28330078 42.85566406 85.27363281 41.98242188 85.26367188 C41.10134766 85.23853516 40.22027344 85.21339844 39.3125 85.1875 C38.41982422 85.17396484 37.52714844 85.16042969 36.60742188 85.14648438 C34.40433834 85.11114079 32.20247418 85.06180493 30 85 C28.96336791 81.06401659 29.13670216 78.34004133 30.05859375 74.39453125 C32.93119678 62.95236657 32.93119678 62.95236657 31.91015625 51.51953125 C29.81602806 48.89437669 27.6674871 47.03847268 25 45 C24.02125894 44.08880445 23.05426025 43.16487776 22.09765625 42.23046875 C17.69046085 37.96052907 13.0982481 33.99975114 8.1875 30.3125 C2.98955583 26.35486673 -1.95419408 22.13741776 -4.0625 15.8125 C-3.99320685 12.69430828 -3.24686652 10.84008485 -2 8 C-1.6503582 5.66905466 -1.31445513 3.33595238 -1 1 C-0.67 0.67 -0.34 0.34 0 0 Z " fill="#344192" transform="translate(16,112)"/>
<path d="M0 0 C5.28 0 10.56 0 16 0 C21.99690083 6.34555785 21.99690083 6.34555785 23.671875 9.2421875 C26.04873326 13.16461939 28.79031779 16.71406442 31.625 20.3125 C33.06875 22.189375 34.5125 24.06625 36 26 C36.33 17.42 36.66 8.84 37 0 C42.28 0 47.56 0 53 0 C53 18.48 53 36.96 53 56 C38 56 38 56 33.71875 52.37890625 C32.59552252 50.80822483 31.52237234 49.20061931 30.5 47.5625 C29.95859375 46.77939453 29.4171875 45.99628906 28.859375 45.18945312 C27.8298944 43.70038297 26.82059491 42.19693623 25.84179688 40.67407227 C23.07284514 36.65388028 19.99695079 32.85322244 17 29 C16.67 37.91 16.34 46.82 16 56 C10.72 56 5.44 56 0 56 C0 37.52 0 19.04 0 0 Z " fill="#3A4695" transform="translate(460,17)"/>
<path d="M0 0 C1.02996094 -0.00128906 2.05992188 -0.00257812 3.12109375 -0.00390625 C4.74724609 0.00189453 4.74724609 0.00189453 6.40625 0.0078125 C7.49035156 0.00394531 8.57445312 0.00007813 9.69140625 -0.00390625 C10.72136719 -0.00261719 11.75132813 -0.00132813 12.8125 0 C14.24045898 0.00169189 14.24045898 0.00169189 15.69726562 0.00341797 C17.90625 0.1328125 17.90625 0.1328125 18.90625 1.1328125 C19.00671803 3.83581549 19.04241452 6.51329596 19.03564453 9.21679688 C19.03739685 10.06389725 19.03914917 10.91099762 19.04095459 11.7837677 C19.04537409 14.59805316 19.04243477 17.41227634 19.0390625 20.2265625 C19.03973551 22.17329928 19.04070551 24.12003597 19.04196167 26.06677246 C19.04343878 30.15243325 19.04128368 34.23807221 19.03662109 38.32373047 C19.0309238 43.57327766 19.03420274 48.82277372 19.04019356 54.07231903 C19.04379883 58.09389637 19.04266074 62.11546149 19.04006577 66.13703918 C19.0393964 68.07322699 19.04022525 70.00941589 19.04254532 71.94560242 C19.04507129 74.64670774 19.04123205 77.34772909 19.03564453 80.04882812 C19.03766876 80.85717606 19.03969299 81.66552399 19.04177856 82.49836731 C19.02051248 88.01855002 19.02051248 88.01855002 17.90625 89.1328125 C16.21066274 89.23213403 14.51099253 89.26361257 12.8125 89.265625 C11.78253906 89.26691406 10.75257812 89.26820313 9.69140625 89.26953125 C8.06525391 89.26373047 8.06525391 89.26373047 6.40625 89.2578125 C5.32214844 89.26167969 4.23804688 89.26554687 3.12109375 89.26953125 C2.09113281 89.26824219 1.06117187 89.26695312 0 89.265625 C-0.95197266 89.26449707 -1.90394531 89.26336914 -2.88476562 89.26220703 C-5.09375 89.1328125 -5.09375 89.1328125 -6.09375 88.1328125 C-6.19421803 85.42980951 -6.22991452 82.75232904 -6.22314453 80.04882812 C-6.22489685 79.20172775 -6.22664917 78.35462738 -6.22845459 77.4818573 C-6.23287409 74.66757184 -6.22993477 71.85334866 -6.2265625 69.0390625 C-6.22723551 67.09232572 -6.22820551 65.14558903 -6.22946167 63.19885254 C-6.23093878 59.11319175 -6.22878368 55.02755279 -6.22412109 50.94189453 C-6.2184238 45.69234734 -6.22170274 40.44285128 -6.22769356 35.19330597 C-6.23129883 31.17172863 -6.23016074 27.15016351 -6.22756577 23.12858582 C-6.2268964 21.19239801 -6.22772525 19.25620911 -6.23004532 17.32002258 C-6.23257129 14.61891726 -6.22873205 11.91789591 -6.22314453 9.21679688 C-6.22516876 8.40844894 -6.22719299 7.60010101 -6.22927856 6.76725769 C-6.2053302 0.55081839 -6.17204664 0.00731285 0 0 Z " fill="#2F3C8F" transform="translate(1101.09375,107.8671875)"/>
<path d="M0 0 C1.00023193 0.00523682 2.00046387 0.01047363 3.03100586 0.01586914 C4.1105957 0.0190918 5.19018555 0.02231445 6.30249023 0.02563477 C8.00695312 0.03820312 8.00695312 0.03820312 9.74584961 0.05102539 C11.45611328 0.05779297 11.45611328 0.05779297 13.20092773 0.06469727 C16.02845312 0.07652792 18.85587601 0.09301129 21.68334961 0.11352539 C21.70647202 11.57002555 21.72426418 23.0265202 21.73516178 34.4830389 C21.74039083 39.80217752 21.74748888 45.12130023 21.75878906 50.44042969 C21.76961716 55.56916524 21.77562628 60.69788545 21.77822685 65.82663155 C21.78008124 67.78794153 21.78370212 69.74925063 21.78907967 71.71055412 C21.79628907 74.44767986 21.79734059 77.18474137 21.796875 79.921875 C21.80047028 80.74114471 21.80406555 81.56041443 21.80776978 82.4045105 C21.79740177 87.99947323 21.79740177 87.99947323 20.68334961 89.11352539 C18.97562603 89.20066371 17.26436312 89.22052546 15.55444336 89.21118164 C14.00273438 89.20634766 14.00273438 89.20634766 12.41967773 89.20141602 C11.33106445 89.19303711 10.24245117 89.1846582 9.12084961 89.17602539 C7.48212891 89.16925781 7.48212891 89.16925781 5.81030273 89.16235352 C3.10126466 89.15052366 0.39233362 89.13404082 -2.31665039 89.11352539 C-3.90675181 85.93332255 -3.45493189 82.49986213 -3.44604492 79.0078125 C-3.44779724 78.17031967 -3.44954956 77.33282684 -3.45135498 76.46995544 C-3.45576687 73.69357245 -3.45283809 70.91725282 -3.44946289 68.14086914 C-3.45013606 66.21798185 -3.45110619 64.29509464 -3.45236206 62.37220764 C-3.45383808 58.33960155 -3.45168729 54.30701759 -3.44702148 50.27441406 C-3.44132043 45.09327658 -3.44460619 39.91219085 -3.45059395 34.73105526 C-3.45419887 30.76009223 -3.45306136 26.78914157 -3.45046616 22.81817818 C-3.44979689 20.90711015 -3.45062528 18.99604102 -3.45294571 17.08497429 C-3.45547152 14.41990027 -3.45163284 11.75491139 -3.44604492 9.08984375 C-3.44806915 8.2924176 -3.45009338 7.49499146 -3.45217896 6.67340088 C-3.42677492 0.16792606 -3.42677492 0.16792606 0 0 Z " fill="#2E3B8F" transform="translate(684.316650390625,107.886474609375)"/>
<path d="M0 0 C5.28 -0.061875 10.56 -0.12375 16 -0.1875 C17.65 -0.21481201 19.3 -0.24212402 21 -0.27026367 C36.83511065 -0.42446458 36.83511065 -0.42446458 43.8125 5.3125 C48.14448186 10.63464914 49.5259813 14.747769 49.28125 21.5390625 C48.67219416 26.86830107 46.86000781 30.51194966 42.8125 33.9375 C41.4203125 34.9584375 41.4203125 34.9584375 40 36 C41.57893091 40.54593296 43.98381181 44.27171028 46.625 48.25 C51 54.87960123 51 54.87960123 51 56 C38.00335605 57.80138289 38.00335605 57.80138289 32 56 C27.11184383 52.25871463 24.41645935 46.52866021 22 41 C22 40.34 22 39.68 22 39 C20.02 39 18.04 39 16 39 C16 44.61 16 50.22 16 56 C10.72 56 5.44 56 0 56 C0 37.52 0 19.04 0 0 Z M16 14 C16 17.96 16 21.92 16 26 C18.08218362 26.10832169 20.16599129 26.18573541 22.25 26.25 C23.41015625 26.29640625 24.5703125 26.3428125 25.765625 26.390625 C29.07354245 26.26964898 29.07354245 26.26964898 31.41796875 24.14453125 C33.24278316 22.10023601 33.24278316 22.10023601 33.0625 19.4375 C32.1449572 16.90957999 32.1449572 16.90957999 30.125 15.1875 C25.36832701 13.37996426 21.06938996 13.81676904 16 14 Z " fill="#374393" transform="translate(689,17)"/>
<path d="M0 0 C7.6415625 -0.0928125 7.6415625 -0.0928125 15.4375 -0.1875 C17.02618896 -0.21481201 18.61487793 -0.24212402 20.25170898 -0.27026367 C36.79600636 -0.36734359 36.79600636 -0.36734359 43.375 4.90234375 C43.91125 5.57394531 44.4475 6.24554688 45 6.9375 C45.556875 7.60652344 46.11375 8.27554687 46.6875 8.96484375 C49.60180037 13.48374403 49.60947816 18.78080674 49 24 C47.10294101 30.07058876 43.87623758 33.12572905 39 37 C39.36351562 37.54003662 39.72703125 38.08007324 40.1015625 38.63647461 C41.73675411 41.06856008 43.36841945 43.50299073 45 45.9375 C45.57234375 46.78763672 46.1446875 47.63777344 46.734375 48.51367188 C47.27578125 49.32255859 47.8171875 50.13144531 48.375 50.96484375 C48.87773438 51.7137085 49.38046875 52.46257324 49.8984375 53.23413086 C51 55 51 55 51 56 C38.05872653 57.93113304 38.05872653 57.93113304 32 56 C27.43124085 52.26064275 24.75935964 46.84707596 22.27587891 41.58227539 C20.79873894 39.40488316 20.79873894 39.40488316 16 39 C16 44.61 16 50.22 16 56 C10.72 56 5.44 56 0 56 C0 37.52 0 19.04 0 0 Z M16 14 C16 17.96 16 21.92 16 26 C18.10388569 26.05402274 20.20816714 26.09280256 22.3125 26.125 C23.48425781 26.14820313 24.65601563 26.17140625 25.86328125 26.1953125 C29.16393661 26.25320618 29.16393661 26.25320618 32 24 C33.00635246 21.63537508 33.00635246 21.63537508 33 19 C31.26635169 15.87943304 30.44004627 15.14668209 27 14 C25.10529184 13.9314505 23.2083166 13.91519628 21.3125 13.9375 C19.559375 13.958125 17.80625 13.97875 16 14 Z " fill="#374393" transform="translate(966,17)"/>
<path d="M0 0 C5.79483241 4.66361282 9.28572519 10.14166653 10.74609375 17.45703125 C11.62348962 27.26660476 10.16306743 35.37962654 4.05859375 43.26953125 C-1.01682368 48.73238513 -7.7035527 52.07627464 -15.1015625 52.6953125 C-25.0032862 52.92390636 -33.21604117 51.67941668 -40.69140625 44.76953125 C-46.78631349 38.01267712 -49.36840879 30.53135727 -49.25390625 21.45703125 C-48.45759014 12.89663308 -44.67383017 6.50718804 -38.50390625 0.64453125 C-27.37051003 -8.43633941 -11.64046188 -7.96877373 0 0 Z M-29.25390625 13.45703125 C-32.26975177 17.88027135 -33.1692043 22.18898245 -32.25390625 27.45703125 C-30.90621385 31.0943516 -28.98943941 33.80555902 -26.06640625 36.39453125 C-22.01045658 37.9267789 -18.52206574 38.35443914 -14.25390625 37.45703125 C-10.2681585 35.26449326 -7.84676449 32.59334287 -5.75390625 28.58203125 C-4.96817731 23.67122536 -4.84302712 19.65360953 -7.55859375 15.42578125 C-10.02959696 12.42615547 -11.50347776 10.70717408 -15.25390625 9.45703125 C-21.30873392 8.9607339 -24.50865915 9.26355707 -29.25390625 13.45703125 Z " fill="#384494" transform="translate(1109.25390625,21.54296875)"/>
<path d="M0 0 C14.85 0 29.7 0 45 0 C45 4.62 45 9.24 45 14 C35.43 14 25.86 14 16 14 C16 16.31 16 18.62 16 21 C24.58 21 33.16 21 42 21 C42 25.29 42 29.58 42 34 C33.42 34 24.84 34 16 34 C16 36.64 16 39.28 16 42 C25.57 42 35.14 42 45 42 C45 46.62 45 51.24 45 56 C30.15 56 15.3 56 0 56 C0 37.52 0 19.04 0 0 Z " fill="#3B4796" transform="translate(629,17)"/>
<path d="M0 0 C5.28 0 10.56 0 16 0 C16.03738281 2.30097656 16.07476562 4.60195313 16.11328125 6.97265625 C16.15959428 9.22006317 16.21079205 11.46730996 16.26245117 13.71459961 C16.29554777 15.26723362 16.32362651 16.81998353 16.34643555 18.37280273 C16.38026524 20.6149194 16.43258987 22.85598847 16.48828125 25.09765625 C16.49467117 25.78336197 16.5010611 26.46906769 16.50764465 27.17555237 C16.65743506 32.17122042 17.73096901 35.62920299 20 40 C23.14341993 41.57170996 26.55771451 41.23175783 30 41 C31.485 40.505 31.485 40.505 33 40 C34.44749758 36.07893973 34.22632246 31.86764418 34.31640625 27.734375 C34.33718735 26.94097717 34.35796844 26.14757935 34.37937927 25.33013916 C34.44459973 22.80351156 34.50363144 20.27678279 34.5625 17.75 C34.6057114 16.03384384 34.64932653 14.31769778 34.69335938 12.6015625 C34.80101034 8.40114373 34.90028773 4.20064473 35 0 C40.61 0 46.22 0 52 0 C52.04617339 4.8199884 52.08591875 9.63919433 52.10986328 14.45922852 C52.11985617 16.09532283 52.13345507 17.73139959 52.15087891 19.36743164 C52.38728456 42.15276468 52.38728456 42.15276468 46 50 C40.11541431 55.72112498 34.0277486 57.18616868 26.0625 57.375 C18.8620233 57.20539562 13.3518572 56.01111432 7.1875 52.3125 C0.86917803 45.63313106 -0.15412339 38.1648051 -0.09765625 29.296875 C-0.0962413 28.45908508 -0.09482635 27.62129517 -0.09336853 26.75811768 C-0.08778197 24.08870843 -0.07523194 21.4193838 -0.0625 18.75 C-0.05748326 16.93750121 -0.05292066 15.12500111 -0.04882812 13.3125 C-0.03781694 8.87496752 -0.02056155 4.43749809 0 0 Z " fill="#3B4695" transform="translate(393,17)"/>
<path d="M0 0 C5.61 0 11.22 0 17 0 C19.49127467 5.94031965 21.98146959 11.88109037 24.47070312 17.82226562 C25.3161159 19.83963993 26.16181388 21.85689474 27.0078125 23.87402344 C28.22993367 26.78809065 29.45099855 29.70259861 30.671875 32.6171875 C31.04495789 33.50614716 31.41804077 34.39510681 31.8024292 35.31100464 C32.87432315 37.87154025 33.93817929 40.43527287 35 43 C35.38240845 43.91235413 35.76481689 44.82470825 36.15881348 45.76470947 C36.70910217 47.09958405 36.70910217 47.09958405 37.27050781 48.46142578 C37.60270325 49.26105743 37.93489868 50.06068909 38.27716064 50.884552 C39 53 39 53 39 56 C33.39 56 27.78 56 22 56 C19 49 19 49 19 46 C12.07 46 5.14 46 -2 46 C-2.99 49.3 -3.98 52.6 -5 56 C-10.61 56 -16.22 56 -22 56 C-21.30007983 52.50039916 -20.71851413 50.00142474 -19.3894043 46.82739258 C-18.89835457 45.64509819 -18.89835457 45.64509819 -18.39738464 44.43891907 C-17.86616753 43.1794471 -17.86616753 43.1794471 -17.32421875 41.89453125 C-16.95778763 41.01528488 -16.59135651 40.13603851 -16.21382141 39.23014832 C-15.04269316 36.4224412 -13.86530726 33.61741101 -12.6875 30.8125 C-11.52174834 28.02489605 -10.35729522 25.23675349 -9.1933136 22.44841003 C-8.47001768 20.71699102 -7.7454837 18.98608845 -7.01945496 17.2558136 C-4.61938191 11.52711973 -2.29497842 5.77163477 0 0 Z M8 20 C7.32694982 21.60149886 6.66177773 23.20631029 6 24.8125 C5.62875 25.70582031 5.2575 26.59914063 4.875 27.51953125 C3.83366763 30.0331433 3.83366763 30.0331433 4 33 C6.97 33 9.94 33 13 33 C12.27991594 28.39146203 10.68704061 24.32762591 9 20 C8.67 20 8.34 20 8 20 Z " fill="#384494" transform="translate(914,17)"/>
<path d="M0 0 C0.78375 0.598125 1.5675 1.19625 2.375 1.8125 C0.81798069 6.48355792 -1.70947373 9.89955685 -4.625 13.8125 C-10.31095041 11.96126033 -10.31095041 11.96126033 -13 10.6875 C-16.64843543 9.47135486 -19.7878306 9.68242646 -23.625 9.8125 C-23.625 11.1325 -23.625 12.4525 -23.625 13.8125 C-22.46742188 14.12703125 -21.30984375 14.4415625 -20.1171875 14.765625 C-18.57796799 15.1973573 -17.03891412 15.6296804 -15.5 16.0625 C-14.73945312 16.26746094 -13.97890625 16.47242187 -13.1953125 16.68359375 C-6.10956497 18.69936675 -0.90870187 21.62493063 3.375 27.8125 C4.98222415 32.63417246 4.76129143 36.51728754 3.3125 41.375 C0.32323775 46.67852981 -3.2283884 49.77866755 -8.8125 52.1875 C-20.33877073 54.07705258 -32.15516607 52.98507905 -41.9375 46.0625 C-42.824375 45.32 -43.71125 44.5775 -44.625 43.8125 C-43.26129701 40.82029732 -41.67591917 38.52223471 -39.5 36.0625 C-38.96117187 35.44890625 -38.42234375 34.8353125 -37.8671875 34.203125 C-37.25230469 33.51476563 -37.25230469 33.51476563 -36.625 32.8125 C-33.6408763 33.44670974 -31.25931165 34.46862533 -28.5625 35.875 C-23.25993777 38.32301623 -18.3652421 38.19875928 -12.625 37.8125 C-12.81221654 35.8427595 -12.81221654 35.8427595 -13.625 33.8125 C-15.41360294 32.77300479 -15.41360294 32.77300479 -17.66796875 32.25 C-18.49490234 32.01023438 -19.32183594 31.77046875 -20.17382812 31.5234375 C-21.04458984 31.28882813 -21.91535156 31.05421875 -22.8125 30.8125 C-29.7474023 28.90159581 -35.51976162 27.22826221 -40.5 21.75 C-42.66980068 16.08440935 -42.40343865 10.14781594 -40.5 4.4375 C-31.3328482 -8.39651252 -12.47354068 -8.18940404 0 0 Z " fill="#3C4796" transform="translate(792.625,21.1875)"/>
<path d="M0 0 C5.94 0 11.88 0 18 0 C18.78246094 2.15402344 19.56492187 4.30804688 20.37109375 6.52734375 C21.12831739 8.60595811 21.88649891 10.68422069 22.64477539 12.76245117 C23.17247265 14.21032763 23.69916861 15.65856943 24.22485352 17.10717773 C24.97932068 19.18569567 25.73734369 21.26288606 26.49609375 23.33984375 C26.73154404 23.99089584 26.96699432 24.64194794 27.20957947 25.31272888 C28.19210434 28.39660126 28.19210434 28.39660126 30 31 C35.445 15.655 35.445 15.655 41 0 C46.94 0 52.88 0 59 0 C56.96595515 7.10872596 54.57046877 13.93114676 51.8046875 20.78515625 C51.41177521 21.76745712 51.01886292 22.749758 50.61404419 23.76182556 C49.79082054 25.81722364 48.96550791 27.87178618 48.13818359 29.92553711 C46.86673988 33.083013 45.60282267 36.24342686 44.33984375 39.40429688 C43.53689639 41.40642574 42.7335264 43.40838517 41.9296875 45.41015625 C41.55053192 46.35794449 41.17137634 47.30573273 40.7807312 48.28224182 C40.43011627 49.15082321 40.07950134 50.0194046 39.71826172 50.91430664 C39.40976288 51.68134415 39.10126404 52.44838165 38.78341675 53.23866272 C38 55 38 55 37 56 C34.46950598 56.07313567 31.96695163 56.09247527 29.4375 56.0625 C28.72658203 56.05798828 28.01566406 56.05347656 27.28320312 56.04882812 C25.52209987 56.03700864 23.76103964 56.01907263 22 56 C19.03888222 50.27355778 16.50837403 44.5046625 14.1796875 38.49609375 C13.83495392 37.6139772 13.49022034 36.73186066 13.13504028 35.82301331 C12.41223078 33.97070252 11.69129899 32.11765801 10.97216797 30.26391602 C9.87602486 27.44014014 8.77243308 24.6193582 7.66796875 21.79882812 C6.9630958 19.98975699 6.25865399 18.1805178 5.5546875 16.37109375 C5.22757782 15.53549423 4.90046814 14.69989471 4.56344604 13.838974 C4.25617584 13.04447342 3.94890564 12.24997284 3.63232422 11.43139648 C3.36459198 10.74270981 3.09685974 10.05402313 2.8210144 9.34446716 C1.74563773 6.27364979 0.89385129 3.12847953 0 0 Z " fill="#3A4595" transform="translate(558,17)"/>
<path d="M0 0 C16.17 0 32.34 0 49 0 C49 4.62 49 9.24 49 14 C43.39 14 37.78 14 32 14 C32 27.86 32 41.72 32 56 C26.72 56 21.44 56 16 56 C16 42.14 16 28.28 16 14 C10.72 14 5.44 14 0 14 C0 9.38 0 4.76 0 0 Z " fill="#364293" transform="translate(841,17)"/>
<path d="M0 0 C5.61 0 11.22 0 17 0 C17 18.48 17 36.96 17 56 C11.39 56 5.78 56 0 56 C0 37.52 0 19.04 0 0 Z " fill="#434F9A" transform="translate(1029,17)"/>
<path d="M0 0 C5.61 0 11.22 0 17 0 C17 18.48 17 36.96 17 56 C11.39 56 5.78 56 0 56 C0 37.52 0 19.04 0 0 Z " fill="#434F9A" transform="translate(529,17)"/>
<path d="M0 0 C5.28 0 10.56 0 16 0 C16 18.48 16 36.96 16 56 C10.72 56 5.44 56 0 56 C0 37.52 0 19.04 0 0 Z " fill="#3C4896" transform="translate(811,17)"/>
<path d="M0 0 C3.86072318 2.81005631 7.23854341 6.07938676 10.56542969 9.49365234 C12.23158073 11.14511588 14.0224415 12.53269192 15.95019531 13.86621094 C15.45519531 16.34121094 15.45519531 16.34121094 14.95019531 18.86621094 C13.15722656 19.50610352 13.15722656 19.50610352 10.95019531 19.86621094 C8.44783168 18.17534495 6.23746317 16.49884564 3.95019531 14.55371094 C2.72359864 13.53368546 1.49450116 12.51665832 0.26269531 11.50292969 C-0.27742188 11.04619873 -0.81753906 10.58946777 -1.37402344 10.11889648 C-3.17761444 8.77067017 -5.01209044 7.81542396 -7.04980469 6.86621094 C-7.04980469 7.85621094 -7.04980469 8.84621094 -7.04980469 9.86621094 C-5.28579067 11.55391904 -5.28579067 11.55391904 -3.04980469 13.05371094 C-1.93605469 13.84841797 -1.93605469 13.84841797 -0.79980469 14.65917969 C-0.22230469 15.0575 0.35519531 15.45582031 0.95019531 15.86621094 C0.29019531 17.84621094 -0.36980469 19.82621094 -1.04980469 21.86621094 C-1.96503906 21.79402344 -2.88027344 21.72183594 -3.82324219 21.64746094 C-5.01175781 21.55464844 -6.20027344 21.46183594 -7.42480469 21.36621094 C-8.60816406 21.27339844 -9.79152344 21.18058594 -11.01074219 21.08496094 C-12.68767312 20.9642564 -14.36853525 20.86621094 -16.04980469 20.86621094 C-16.35917969 21.83558594 -16.66855469 22.80496094 -16.98730469 23.80371094 C-18.04980469 26.86621094 -18.04980469 26.86621094 -19.04980469 27.86621094 C-21.38277902 27.90714031 -23.71685693 27.90862817 -26.04980469 27.86621094 C-26.70980469 24.89621094 -27.36980469 21.92621094 -28.04980469 18.86621094 C-29.49355469 19.07246094 -30.93730469 19.27871094 -32.42480469 19.49121094 C-34.88574219 19.84277344 -34.88574219 19.84277344 -37.04980469 19.86621094 C-39.04980469 17.86621094 -39.04980469 17.86621094 -39.42480469 15.52636719 C-38.68474401 10.27656173 -33.95569131 7.10597736 -30.04980469 3.86621094 C-22.00672151 -1.2852926 -8.91796771 -4.93271106 0 0 Z " fill="#414D99" transform="translate(66.0498046875,54.1337890625)"/>
<path d="M0 0 C3.46134846 1.68312823 5.09467779 2.44351442 9 2.375 C11.56970653 1.57605245 11.56970653 1.57605245 13.4375 -0.5625 C18.31242223 -0.18015316 22.78762736 1.0140696 27.4375 2.4375 C27.0821631 8.35978163 25.68161091 11.28770267 21.4375 15.4375 C16.99322096 18.4003527 12.69992083 19.4862717 7.4375 18.4375 C4.79749202 17.24042768 2.32160876 15.91768761 -0.16796875 14.43359375 C-3.14841511 13.19376696 -4.54108373 13.37431752 -7.5625 14.4375 C-8.036875 14.96859375 -8.51125 15.4996875 -9 16.046875 C-10.5625 17.4375 -10.5625 17.4375 -13.375 17.328125 C-14.426875 17.11671875 -15.47875 16.9053125 -16.5625 16.6875 C-17.614375 16.48640625 -18.66625 16.2853125 -19.75 16.078125 C-22.5625 15.4375 -22.5625 15.4375 -25.5625 14.4375 C-25.01285616 8.57463235 -21.7275003 3.41147087 -17.4375 -0.5 C-11.08276487 -4.10101657 -6.20126299 -3.04579039 0 0 Z " fill="#3D4997" transform="translate(758.5625,87.5625)"/>
<path d="M0 0 C6.40629424 -0.20852314 11.92972642 -0.1583195 18 2 C18 3.98 18 5.96 18 8 C15.98177083 7.90234375 13.96354167 7.8046875 11.9453125 7.70703125 C10.98238281 7.85205078 10.98238281 7.85205078 10 8 C7.81134795 10.66946851 7.81134795 10.66946851 8.02734375 12.94921875 C9.47188818 15.99494496 11.7366267 17.04046451 14.5625 18.8125 C19.79546209 22.41607725 19.79546209 22.41607725 20.7265625 25.07421875 C20.6875 27 20.6875 27 20 30 C2.68674699 23.53012048 2.68674699 23.53012048 -1 18 C-0.67440381 14.17424478 0.25519339 11.37329278 2 8 C2 7.01 2 6.02 2 5 C1.01 4.34 0.02 3.68 -1 3 C-0.67 2.01 -0.34 1.02 0 0 Z " fill="#535EA3" transform="translate(17,88)"/>
<path d="M0 0 C0.99 0.33 1.98 0.66 3 1 C-0.465 3.97 -0.465 3.97 -4 7 C-3.04065919 3.16263678 -2.76390737 2.40339772 0 0 Z " fill="#7E85B9" transform="translate(741,87)"/>
</svg>
